<svg width="600" height="107" viewBox="0 0 600 107" fill="none" xmlns="http://www.w3.org/2000/svg">
<g clip-path="url(#clip0_48_6)">
<path fill-rule="evenodd" clip-rule="evenodd" d="M548.534 52.8632C556.718 44.2642 596.691 6.21152 599.83 0.549119C573.267 0.0141878 576.135 -2.05269 565.091 9.01351C553.979 20.148 505.35 70.1503 500.127 72.9707C500.127 63.7561 499.182 4.36913 500.687 0.480535H481.605V95.6945C481.605 104.833 486.477 109.557 495.327 104.848C503.554 100.47 526.548 71.146 535.283 67.5561C539.16 73.1099 549.765 82.5443 555.252 88.0308C576.575 109.354 568.285 107.165 599.83 106.622C597.856 102.588 579.068 84.0487 574.36 79.341C569.02 74.0022 551.66 58.072 548.534 52.8632Z" fill="#0A9994"/>
<path fill-rule="evenodd" clip-rule="evenodd" d="M156.321 19.0077C175.805 18.9985 199.622 17.561 196.929 41.2369C195.933 50.0032 189.453 55.2655 181.588 57.3147C172.01 59.8105 160.511 54.8136 157.8 65.0111L157.727 68.6506C158.881 76.6401 174.558 89.917 179.904 95.2627C194.662 110.02 187.256 106.69 218.397 106.69C213.816 99.696 197.449 85.9063 191.465 79.1599C188.413 75.719 190.042 78.432 188.305 74.0695C210.362 70.4372 225.722 41.9362 210.872 18.027C198.275 -2.25574 165.717 0.509185 137.799 0.477023V106.113H155.163L155.149 28.5458C155.088 22.5831 154.549 22.1641 156.321 19.0077Z" fill="#0A9994"/>
<path fill-rule="evenodd" clip-rule="evenodd" d="M-0.391602 106.69C27.5637 106.69 22.7289 109.785 34.6326 97.8697L99.3069 34.2043V106.69L118.552 106.262C116.706 98.2245 117.829 40.1249 117.833 23.9234C117.834 16.1469 119.961 6.12528 113.853 1.42379C104.957 -1.80943 99.2468 5.4151 95.3963 9.30271C81.9331 22.8949 2.56726 100.087 -0.391602 106.69Z" fill="#0A9994"/>
<path fill-rule="evenodd" clip-rule="evenodd" d="M234.304 107.27H251.826L252.477 34.2082C258.36 38.0256 288.625 69.1314 295.949 76.4551C303.37 83.8762 309.95 90.4433 317.365 97.8703C328.509 109.033 325.632 107.155 352.103 106.622C349.524 101.35 250.977 4.19922 248.231 2.57441C231.442 -7.3599 233.586 14.016 233.588 25.0809C233.59 42.3569 231.366 93.9279 234.304 107.27Z" fill="#0A9994"/>
<path fill-rule="evenodd" clip-rule="evenodd" d="M431.829 19.0063L471.437 19.0158L471.766 0.480591H413.883C412.66 3.55628 412.541 102.656 413.886 106.69H471.765L471.476 87.8779H431.829L431.756 60.3926L466.324 60.4238L466.484 41.5742H431.829V19.0063Z" fill="#0A9994"/>
<path fill-rule="evenodd" clip-rule="evenodd" d="M330.31 18.7962L357.453 19.1064L357.452 106.69L376.702 106.327C373.711 93.2636 375.977 36.5625 375.977 19.0063H402.82L403.327 0.476013L330.247 0.512741L330.31 18.7962Z" fill="#0A9994"/>
</g>
<defs>
<clipPath id="clip0_48_6">
<rect width="600" height="106.802" fill="white" transform="translate(0 0.198242)"/>
</clipPath>
</defs>
</svg>
