<svg width="746" height="497" viewBox="0 0 746 497" fill="none" xmlns="http://www.w3.org/2000/svg">
<path d="M368.962 299.585C368.212 299.38 356.685 296.409 344.435 296.409C321.242 296.409 307.278 308.925 307.278 327.562C307.278 344.06 318.96 352.287 332.979 356.713C334.534 357.225 336.824 357.942 338.349 358.447C344.589 360.409 349.57 363.324 349.57 368.373C349.57 374.02 343.813 377.676 331.298 377.676C320.299 377.676 309.755 374.533 307.534 373.973V396.903C308.772 397.166 321.303 399.624 334.69 399.624C353.946 399.624 375.973 391.216 375.973 366.186C375.973 354.045 368.534 342.868 352.203 337.68L345.261 335.471C341.119 334.165 333.726 332.049 333.726 325.982C333.726 321.19 339.204 317.816 349.291 317.816C357.995 317.816 368.587 320.739 368.962 320.856V299.585ZM581.606 348.018C581.606 362.517 570.493 374.246 555.581 374.246C540.653 374.246 529.569 362.517 529.569 348.018C529.569 333.549 540.653 321.814 555.581 321.814C570.493 321.814 581.606 333.549 581.606 348.018ZM555.581 296.441C524.912 296.441 502.917 319.557 502.917 348.018C502.917 376.524 524.912 399.624 555.581 399.624C586.247 399.624 608.274 376.524 608.274 348.018C608.274 319.557 586.247 296.441 555.581 296.441ZM273.536 397.851H248.372V298.207H273.536" fill="#049FD9"/>
<path d="M213.784 300.012C211.42 299.311 202.679 296.441 190.841 296.441C160.22 296.441 137.742 318.259 137.742 348.018C137.742 380.124 162.555 399.624 190.841 399.624C202.079 399.624 210.657 396.964 213.784 396.077V369.329C212.703 369.929 204.478 374.618 192.645 374.618C175.881 374.618 165.068 362.827 165.068 348.018C165.068 332.758 176.349 321.44 192.645 321.44C204.68 321.44 212.772 326.232 213.784 326.76" fill="#049FD9"/>
<path d="M476.425 300.012C474.061 299.311 465.32 296.441 453.482 296.441C422.861 296.441 400.383 318.259 400.383 348.018C400.383 380.124 425.196 399.624 453.482 399.624C464.72 399.624 473.298 396.964 476.425 396.077V369.329C475.344 369.929 467.119 374.618 455.286 374.618C438.522 374.618 427.71 362.827 427.71 348.018C427.71 332.758 438.99 321.44 455.286 321.44C467.321 321.44 475.413 326.232 476.425 326.76" fill="#049FD9"/>
<path d="M248.298 109.814C248.298 102.946 242.684 97.3756 235.803 97.3756C228.925 97.3756 223.311 102.946 223.311 109.814V242.135C223.313 245.444 224.63 248.618 226.972 250.958C229.315 253.297 232.491 254.611 235.803 254.61C237.443 254.611 239.067 254.289 240.583 253.662C242.098 253.036 243.476 252.117 244.636 250.958C245.796 249.8 246.717 248.425 247.345 246.911C247.973 245.397 248.297 243.774 248.298 242.135V109.814ZM179.678 156.785C179.678 149.919 174.067 144.341 167.186 144.341C160.305 144.341 154.694 149.919 154.694 156.785V217.277C154.696 220.586 156.012 223.76 158.355 226.1C160.698 228.439 163.874 229.753 167.186 229.752C170.498 229.753 173.674 228.439 176.017 226.1C178.36 223.76 179.676 220.586 179.678 217.277V156.785ZM111.061 191.118C111.061 184.25 105.45 178.682 98.5689 178.682C91.6961 178.682 86.0771 184.25 86.0771 191.118V217.277C86.1446 220.543 87.4903 223.653 89.8256 225.939C92.1609 228.225 95.2998 229.505 98.5689 229.505C101.838 229.505 104.977 228.225 107.312 225.939C109.648 223.653 110.993 220.543 111.061 217.277" fill="#049FD9"/>
<path d="M223.311 109.814C223.311 102.946 228.925 97.3755 235.806 97.3755C242.684 97.3755 248.297 102.946 248.297 109.814V242.135C248.296 245.444 246.979 248.618 244.637 250.957C242.294 253.297 239.118 254.611 235.806 254.61C234.166 254.611 232.541 254.289 231.026 253.662C229.51 253.036 228.133 252.117 226.973 250.958C225.813 249.8 224.892 248.424 224.264 246.911C223.636 245.397 223.312 243.774 223.311 242.135V109.814ZM291.931 156.785C291.931 149.919 297.542 144.341 304.423 144.341C311.304 144.341 316.915 149.919 316.915 156.785V217.277C316.913 220.586 315.596 223.76 313.254 226.1C310.911 228.439 307.735 229.753 304.423 229.752C301.111 229.753 297.934 228.439 295.592 226.1C293.249 223.76 291.932 220.586 291.931 217.277V156.785ZM360.548 191.118C360.548 184.25 366.159 178.682 373.04 178.682C379.913 178.682 385.532 184.25 385.532 191.118V217.277C385.464 220.543 384.119 223.653 381.783 225.939C379.448 228.225 376.309 229.505 373.04 229.505C369.771 229.505 366.632 228.225 364.297 225.939C361.961 223.653 360.616 220.543 360.548 217.277" fill="#049FD9"/>
<path d="M497.702 109.814C497.702 102.946 503.316 97.3756 510.197 97.3756C517.075 97.3756 522.689 102.946 522.689 109.814V242.135C522.687 245.444 521.37 248.618 519.028 250.958C516.685 253.297 513.509 254.611 510.197 254.61C508.557 254.611 506.933 254.289 505.417 253.662C503.902 253.036 502.524 252.117 501.364 250.958C500.204 249.8 499.283 248.425 498.655 246.911C498.027 245.397 497.703 243.774 497.702 242.135V109.814ZM566.322 156.785C566.322 149.919 571.933 144.341 578.814 144.341C585.695 144.341 591.306 149.919 591.306 156.785V217.277C591.304 220.586 589.988 223.76 587.645 226.1C585.302 228.439 582.126 229.753 578.814 229.752C575.502 229.753 572.326 228.439 569.983 226.1C567.64 223.76 566.324 220.586 566.322 217.277V156.785ZM634.939 191.118C634.939 184.25 640.55 178.682 647.431 178.682C654.304 178.682 659.923 184.25 659.923 191.118V217.277C659.855 220.543 658.51 223.653 656.174 225.939C653.839 228.225 650.7 229.505 647.431 229.505C644.162 229.505 641.023 228.225 638.688 225.939C636.352 223.653 635.007 220.543 634.939 217.277" fill="#049FD9"/>
<path d="M522.689 109.814C522.689 102.946 517.075 97.3755 510.194 97.3755C503.316 97.3755 497.703 102.946 497.703 109.814V242.135C497.704 245.444 499.021 248.618 501.363 250.957C503.706 253.297 506.882 254.611 510.194 254.61C511.834 254.611 513.459 254.289 514.974 253.662C516.49 253.036 517.867 252.117 519.027 250.958C520.187 249.8 521.108 248.424 521.736 246.911C522.364 245.397 522.688 243.774 522.689 242.135V109.814ZM454.069 156.785C454.069 149.919 448.458 144.341 441.577 144.341C434.696 144.341 429.085 149.919 429.085 156.785V217.277C429.087 220.586 430.404 223.76 432.746 226.1C435.089 228.439 438.265 229.753 441.577 229.752C444.889 229.753 448.066 228.439 450.408 226.1C452.751 223.76 454.068 220.586 454.069 217.277V156.785ZM385.452 191.118C385.452 184.25 379.841 178.682 372.96 178.682C366.087 178.682 360.468 184.25 360.468 191.118V217.277C360.536 220.543 361.881 223.653 364.217 225.939C366.552 228.225 369.691 229.505 372.96 229.505C376.229 229.505 379.368 228.225 381.703 225.939C384.039 223.653 385.384 220.543 385.452 217.277" fill="#049FD9"/>
</svg>
