<svg width="931" height="486" viewBox="0 0 931 486" fill="none" xmlns="http://www.w3.org/2000/svg">
<g clip-path="url(#clip0_1057_6057)">
<path d="M462.004 325.228C460.799 324.899 442.256 320.117 422.551 320.117C385.243 320.117 362.782 340.262 362.782 370.262C362.782 396.818 381.572 410.062 404.124 417.186C406.624 418.01 410.307 419.164 412.76 419.976C422.799 423.134 430.812 427.827 430.812 435.955C430.812 445.045 421.551 450.929 401.419 450.929C383.726 450.929 366.765 445.869 363.192 444.968V481.878C365.184 482.301 385.342 486.258 406.876 486.258C437.85 486.258 473.282 472.724 473.282 432.433C473.282 412.891 461.316 394.899 435.047 386.549L423.88 382.993C417.218 380.891 405.325 377.485 405.325 367.72C405.325 360.006 414.136 354.574 430.363 354.574C444.363 354.574 461.401 359.28 462.004 359.468V325.228ZM804.06 403.19C804.06 426.527 786.184 445.408 762.196 445.408C738.184 445.408 720.354 426.527 720.354 403.19C720.354 379.899 738.184 361.01 762.196 361.01C786.184 361.01 804.06 379.899 804.06 403.19ZM762.196 320.168C712.863 320.168 677.483 357.378 677.483 403.19C677.483 449.074 712.863 486.258 762.196 486.258C811.525 486.258 846.957 449.074 846.957 403.19C846.957 357.378 811.525 320.168 762.196 320.168ZM308.504 483.404H268.025V323.01H308.504" fill="#049FD9"/>
<path d="M212.389 325.917C208.585 324.789 194.526 320.169 175.483 320.169C126.226 320.169 90.0684 355.289 90.0684 403.19C90.0684 454.87 129.983 486.259 175.483 486.259C193.56 486.259 207.359 481.977 212.389 480.549V437.494C210.65 438.46 197.419 446.007 178.385 446.007C151.419 446.007 134.026 427.028 134.026 403.19C134.026 378.626 152.171 360.408 178.385 360.408C197.744 360.408 210.761 368.122 212.389 368.972" fill="#049FD9"/>
<path d="M634.867 325.917C631.064 324.789 617.004 320.169 597.961 320.169C548.705 320.169 512.547 355.289 512.547 403.19C512.547 454.87 552.461 486.259 597.961 486.259C616.038 486.259 629.837 481.977 634.867 480.549V437.494C633.128 438.46 619.897 446.007 600.863 446.007C573.897 446.007 556.504 427.028 556.504 403.19C556.504 378.626 574.649 360.408 600.863 360.408C620.222 360.408 633.239 368.122 634.867 368.972" fill="#049FD9"/>
<path d="M267.905 19.7626C267.905 8.70702 258.875 -0.258789 247.807 -0.258789C236.743 -0.258789 227.713 8.70702 227.713 19.7626V232.754C227.715 238.081 229.834 243.19 233.602 246.956C237.37 250.721 242.48 252.836 247.807 252.835C250.445 252.836 253.058 252.318 255.496 251.309C257.934 250.301 260.149 248.822 262.015 246.957C263.881 245.092 265.362 242.878 266.373 240.441C267.384 238.004 267.904 235.392 267.905 232.754V19.7626ZM157.525 95.3694C157.525 84.3181 148.499 75.3395 137.431 75.3395C126.363 75.3395 117.337 84.3181 117.337 95.3694V192.741C117.339 198.069 119.457 203.177 123.226 206.943C126.994 210.709 132.104 212.824 137.431 212.822C142.758 212.824 147.868 210.709 151.636 206.943C155.405 203.177 157.523 198.069 157.525 192.741V95.3694ZM47.149 150.634C47.149 139.579 38.1233 130.617 27.055 130.617C15.9994 130.617 6.96094 139.579 6.96094 150.634V192.741C7.06937 197.999 9.23406 203.004 12.9906 206.684C16.7472 210.364 21.7963 212.425 27.055 212.425C32.3136 212.425 37.3628 210.364 41.1193 206.684C44.8759 203.004 47.0405 197.999 47.149 192.741" fill="#049FD9"/>
<path d="M227.714 19.7626C227.714 8.70702 236.744 -0.258789 247.812 -0.258789C258.876 -0.258789 267.906 8.70702 267.906 19.7626V232.754C267.904 238.081 265.786 243.19 262.017 246.956C258.249 250.721 253.139 252.836 247.812 252.835C245.174 252.836 242.561 252.318 240.123 251.309C237.686 250.301 235.47 248.822 233.604 246.957C231.738 245.092 230.257 242.878 229.246 240.441C228.236 238.004 227.715 235.392 227.714 232.754V19.7626ZM338.094 95.3694C338.094 84.3181 347.12 75.3395 358.188 75.3395C369.256 75.3395 378.282 84.3181 378.282 95.3694V192.741C378.28 198.069 376.162 203.177 372.393 206.943C368.625 210.709 363.516 212.824 358.188 212.822C352.861 212.824 347.751 210.709 343.983 206.943C340.215 203.177 338.096 198.069 338.094 192.741V95.3694ZM448.47 150.634C448.47 139.579 457.496 130.617 468.564 130.617C479.62 130.617 488.658 139.579 488.658 150.634V192.741C488.55 197.999 486.385 203.004 482.629 206.684C478.872 210.364 473.823 212.425 468.564 212.425C463.306 212.425 458.256 210.364 454.5 206.684C450.743 203.004 448.579 197.999 448.47 192.741" fill="#049FD9"/>
<path d="M669.095 19.7626C669.095 8.70702 678.125 -0.258789 689.193 -0.258789C700.257 -0.258789 709.287 8.70702 709.287 19.7626V232.754C709.285 238.081 707.166 243.19 703.398 246.956C699.63 250.721 694.52 252.836 689.193 252.835C686.555 252.836 683.942 252.318 681.504 251.309C679.066 250.301 676.851 248.822 674.985 246.957C673.119 245.092 671.638 242.878 670.627 240.441C669.616 238.004 669.096 235.392 669.095 232.754V19.7626ZM779.475 95.3694C779.475 84.3181 788.501 75.3395 799.569 75.3395C810.637 75.3395 819.663 84.3181 819.663 95.3694V192.741C819.661 198.069 817.543 203.177 813.774 206.943C810.006 210.709 804.896 212.824 799.569 212.822C794.242 212.824 789.132 210.709 785.364 206.943C781.595 203.177 779.477 198.069 779.475 192.741V95.3694ZM889.851 150.634C889.851 139.579 898.877 130.617 909.945 130.617C921.001 130.617 930.039 139.579 930.039 150.634V192.741C929.931 197.999 927.766 203.004 924.009 206.684C920.253 210.364 915.204 212.425 909.945 212.425C904.686 212.425 899.637 210.364 895.881 206.684C892.124 203.004 889.959 197.999 889.851 192.741" fill="#049FD9"/>
<path d="M709.286 19.7626C709.286 8.70702 700.256 -0.258789 689.188 -0.258789C678.124 -0.258789 669.094 8.70702 669.094 19.7626V232.754C669.096 238.081 671.214 243.19 674.983 246.956C678.751 250.721 683.861 252.836 689.188 252.835C691.826 252.836 694.439 252.318 696.877 251.309C699.314 250.301 701.53 248.822 703.396 246.957C705.262 245.092 706.743 242.878 707.754 240.441C708.764 238.004 709.285 235.392 709.286 232.754V19.7626ZM598.906 95.3694C598.906 84.3181 589.88 75.3395 578.812 75.3395C567.744 75.3395 558.718 84.3181 558.718 95.3694V192.741C558.72 198.069 560.838 203.177 564.607 206.943C568.375 210.709 573.484 212.824 578.812 212.822C584.139 212.824 589.249 210.709 593.017 206.943C596.785 203.177 598.904 198.069 598.906 192.741V95.3694ZM488.53 150.634C488.53 139.579 479.504 130.617 468.436 130.617C457.38 130.617 448.342 139.579 448.342 150.634V192.741C448.45 197.999 450.615 203.004 454.371 206.684C458.128 210.364 463.177 212.425 468.436 212.425C473.694 212.425 478.744 210.364 482.5 206.684C486.257 203.004 488.421 197.999 488.53 192.741" fill="#049FD9"/>
</g>
<defs>
<clipPath id="clip0_1057_6057">
<rect width="930" height="486" fill="white" transform="translate(0.5)"/>
</clipPath>
</defs>
</svg>
