<?xml version="1.0" encoding="UTF-8"?>
<svg xmlns="http://www.w3.org/2000/svg" xmlns:xlink="http://www.w3.org/1999/xlink" width="931" height="486" viewBox="0 0 198 198" version="1.1">
<defs>
<clipPath id="clip1">
  <path d="M 0.128906 0 L 197.871094 0 L 197.871094 197.871094 L 0.128906 197.871094 Z M 0.128906 0 "/>
</clipPath>
</defs>
<g id="surface1">
<g clip-path="url(#clip1)" clip-rule="nonzero">
<path style=" stroke:none;fill-rule:nonzero;fill:rgb(0%,58.823532%,83.92157%);fill-opacity:1;" d="M 197.191406 98.933594 C 197.191406 44.359375 153.066406 0.125 98.628906 0.125 C 97.144531 0.125 95.667969 0.160156 94.199219 0.230469 L 74.039062 55.78125 L 91.597656 55.78125 C 102.042969 55.78125 107.671875 63.84375 104.097656 73.691406 L 79.230469 142.207031 L 58.347656 142.203125 L 85.035156 68.765625 L 69.335938 68.765625 L 42.648438 142.203125 L 21.761719 142.203125 L 53.140625 55.78125 L 53.144531 55.78125 L 72.019531 3.773438 C 30.511719 15.414062 0.0664062 53.609375 0.0664062 98.933594 C 0.0664062 145.609375 32.347656 184.71875 75.746094 195.066406 L 94.039062 144.671875 L 94.054688 144.671875 L 126.320312 55.78125 L 164.78125 55.78125 C 175.238281 55.78125 180.863281 63.84375 177.285156 73.691406 L 155.433594 133.871094 C 153.769531 138.453125 148.429688 142.203125 143.566406 142.203125 L 115.84375 142.203125 L 95.703125 197.703125 C 96.671875 197.730469 97.652344 197.746094 98.628906 197.746094 C 153.066406 197.746094 197.191406 153.507812 197.191406 98.933594 Z M 197.191406 98.933594 "/>
</g>
<path style=" stroke:none;fill-rule:nonzero;fill:rgb(0%,58.823532%,83.92157%);fill-opacity:1;" d="M 158.269531 68.714844 L 142.574219 68.714844 L 120.597656 129.167969 L 136.289062 129.167969 Z M 158.269531 68.714844 "/>
</g>
</svg>
