<svg width="397" height="396" viewBox="0 0 397 396" fill="none" xmlns="http://www.w3.org/2000/svg">
<g clip-path="url(#clip0_1057_6067)">
<path d="M395.381 197.871C395.381 88.7226 306.906 0.24707 197.757 0.24707C194.781 0.24707 191.82 0.322318 188.874 0.457368L148.451 111.561H183.659C204.604 111.561 215.891 127.688 208.722 147.385L158.86 284.415L116.993 284.407L170.5 137.533H139.02L85.5117 284.407H43.6304L106.547 111.561H106.554L144.4 7.54452C61.1781 30.8254 0.132812 107.216 0.132812 197.871C0.132812 291.216 64.8601 369.441 151.877 390.13L188.551 289.345H188.581L253.278 111.561H330.391C351.358 111.561 362.639 127.688 355.469 147.385L311.656 267.739C308.319 276.908 297.61 284.407 287.856 284.407H232.274L191.888 395.406C193.834 395.458 195.796 395.496 197.757 395.496C306.906 395.496 395.381 307.013 395.381 197.871Z" fill="#0096D6"/>
<path d="M317.338 137.428H285.872L241.803 258.338H273.269L317.338 137.428Z" fill="#0096D6"/>
</g>
<defs>
<clipPath id="clip0_1057_6067">
<rect width="396.484" height="395.743" fill="white" transform="translate(0.257812)"/>
</clipPath>
</defs>
</svg>
