<svg width="274" height="275" viewBox="0 0 274 275" fill="none" xmlns="http://www.w3.org/2000/svg">
<g clip-path="url(#clip0_37_166)">
<path fill-rule="evenodd" clip-rule="evenodd" d="M137 0.645752C212.663 0.645752 274 61.9175 274 137.5C274 213.083 212.663 274.354 137 274.354C134.464 274.354 131.946 274.28 129.443 274.144L158.259 193.301H188.218C196.918 193.301 206.072 186.19 208.561 177.499L233.857 106.527C238.993 92.118 229.385 83.6188 218.359 83.5873L169 83.5724L102.555 269.99C43.5652 254.729 0 201.198 0 137.5C0 72.4677 45.4089 18.0306 106.282 4.10206L40.4177 188.889H68.7872L100.689 99.3857H116.989L85.1545 188.7H113.524L142.813 106.527C147.949 92.118 138.34 83.6188 127.315 83.5873L106.341 83.5273L135.878 0.65988C136.253 0.656913 136.625 0.645752 137 0.645752Z" fill="#015294"/>
<path fill-rule="evenodd" clip-rule="evenodd" d="M163.891 177.499L191.733 99.3857H208.033L180.191 177.499H163.891Z" fill="#015294"/>
</g>
<defs>
<clipPath id="clip0_37_166">
<rect width="274" height="275" fill="white"/>
</clipPath>
</defs>
</svg>
