<svg width="977" height="216" viewBox="0 0 977 216" fill="none" xmlns="http://www.w3.org/2000/svg">
<g clip-path="url(#clip0_35_128)">
<path d="M358.867 71.6844H336.386V179.052H358.867V135.524H408.18V179.052H429.936V71.6844H408.18V115.212H358.867V71.6844ZM531.464 133.348C531.464 150.759 522.761 160.19 506.807 160.19C490.853 160.19 482.15 150.759 482.15 132.623V71.6844H460.394V133.348C460.394 163.817 477.074 181.228 506.807 181.228C536.54 181.228 553.219 163.817 553.219 132.623V71.6844H531.464V133.348ZM741.771 71.6844L717.114 145.681L693.182 71.6844H669.976L707.686 179.052H725.816L750.473 108.683L774.405 179.052H793.26L830.245 71.6844H807.764L783.832 145.681L759.175 71.6844H741.771ZM909.291 113.035H869.405V91.2717H927.421V71.6844H847.649V179.052H929.597V159.464H869.405V132.623H909.291V113.035ZM955.704 71.6844H977.46V179.052H955.704V71.6844ZM645.319 156.563L654.747 179.052H677.953L630.816 71.6844L630.09 70.959H611.235L564.097 179.052H586.579L596.006 158.013L596.731 156.563H645.319ZM620.663 98.5262L635.892 134.799L636.617 136.975H603.258L603.983 134.799L620.663 98.5262Z" fill="#262729"/>
<path d="M121.727 168.17C121.727 168.17 122.453 167.444 121.727 167.444C88.3684 94.8987 42.681 39.0388 42.681 39.0388C42.681 39.0388 18.0243 62.2533 19.4747 86.1933C20.1999 104.33 33.9787 114.486 33.9787 114.486C55.7346 135.524 107.949 162.366 120.277 168.17H121.727ZM113.025 186.306C113.025 185.58 111.575 185.58 111.575 185.58L24.5511 188.482C33.9787 205.168 49.933 218.226 66.6125 214.599C78.2157 211.697 104.323 193.56 112.3 187.757C113.75 186.306 113.025 186.306 113.025 186.306ZM114.476 178.326C115.201 177.6 114.476 176.875 114.476 176.875C76.0401 150.759 2.07001 111.584 2.07001 111.584C-4.45676 132.622 4.2456 149.308 4.2456 149.308C13.6732 169.621 31.8031 175.424 31.8031 175.424C39.7802 179.051 48.4826 179.051 48.4826 179.051H113.75C114.476 179.051 114.476 178.326 114.476 178.326ZM120.277 1.31518C116.651 1.31518 106.498 4.21699 106.498 4.21699C83.2921 10.0206 78.2157 31.0588 78.2157 31.0588C73.8645 44.117 78.2157 58.626 78.2157 58.626C86.1928 92.7224 123.903 149.308 131.88 160.915L132.605 161.641C133.331 161.641 133.331 160.915 133.331 160.915C146.384 33.9606 120.277 1.31518 120.277 1.31518ZM149.285 160.915C150.01 160.915 150.735 160.19 150.735 160.19C159.438 147.857 196.423 91.9969 204.4 57.9006C204.4 57.9006 208.751 41.2151 204.4 30.3333C204.4 30.3333 198.598 9.29517 175.392 3.49154C175.392 3.49154 168.865 2.04063 161.613 0.589722C161.613 0.589722 135.506 33.9606 148.56 159.464C148.56 160.915 149.285 160.915 149.285 160.915ZM169.59 185.58C169.59 185.58 168.865 185.58 168.865 186.306V187.757C177.568 193.56 202.224 211.697 214.553 214.599C214.553 214.599 237.034 222.579 256.614 188.482L169.59 185.58ZM280.546 110.859C280.546 110.859 206.576 150.759 168.14 176.875C168.14 176.875 167.415 177.6 167.415 178.326C167.415 178.326 167.415 179.051 168.14 179.051H234.858C234.858 179.051 241.385 179.051 250.087 175.424C250.087 175.424 268.217 169.621 278.37 148.582C278.37 147.857 287.072 131.171 280.546 110.859ZM160.888 168.17C160.888 168.17 161.613 168.895 162.339 168.17C174.667 161.641 226.881 135.524 248.637 114.486C248.637 114.486 262.416 103.604 263.141 86.1933C264.591 61.5279 239.935 39.0388 239.935 39.0388C239.935 39.0388 194.247 93.4478 160.888 166.719C160.888 166.719 160.163 167.444 160.888 168.17Z" fill="#CF0A2C"/>
</g>
<defs>
<clipPath id="clip0_35_128">
<rect width="977" height="216" fill="white"/>
</clipPath>
</defs>
</svg>
