<svg width="1471" height="323" viewBox="0 0 1471 323" fill="none" xmlns="http://www.w3.org/2000/svg">
<g clip-path="url(#clip0_1058_6842)">
<path d="M540.703 106.234H506.936V267.447H540.703V202.09H614.774V267.447H647.452V106.234H614.774V171.591H540.703V106.234ZM799.951 198.822C799.951 224.965 786.88 239.126 762.916 239.126C738.952 239.126 725.88 224.965 725.88 197.733V106.234H693.202V198.822C693.202 244.572 718.256 270.715 762.916 270.715C807.576 270.715 832.63 244.572 832.63 197.733V106.234H799.951V198.822ZM1115.84 106.234L1078.81 217.34L1042.86 106.234H1008L1064.65 267.447H1091.88L1128.91 161.787L1164.86 267.447H1193.18L1248.73 106.234H1214.97L1179.02 217.34L1141.98 106.234H1115.84ZM1367.47 168.323H1307.55V135.644H1394.7V106.234H1274.88V267.447H1397.97V238.036H1307.55V197.733H1367.47V168.323ZM1437.18 106.234H1469.86V267.447H1437.18V106.234ZM970.968 233.679L985.129 267.447H1019.99L949.182 106.234L948.093 105.145H919.772L848.969 267.447H882.737L896.897 235.858L897.986 233.679H970.968ZM933.933 146.537L956.807 201.001L957.897 204.269H907.79L908.879 201.001L933.933 146.537Z" fill="#262729"/>
<path d="M184.512 251.108C184.512 251.108 185.601 250.018 184.512 250.018C134.405 141.091 65.7803 57.2161 65.7803 57.2161C65.7803 57.2161 28.7448 92.073 30.9234 128.019C32.0126 155.251 52.7089 170.501 52.7089 170.501C85.3873 202.09 163.815 242.393 182.333 251.108H184.512ZM171.44 278.34C171.44 277.25 169.262 277.25 169.262 277.25L38.5483 281.607C52.7089 306.661 76.6731 326.268 101.726 320.821C119.155 316.464 158.369 289.232 170.351 280.518C172.53 278.34 171.44 278.34 171.44 278.34ZM173.619 266.357C174.708 265.268 173.619 264.179 173.619 264.179C115.887 224.965 4.7807 166.144 4.7807 166.144C-5.02281 197.733 8.04853 222.786 8.04853 222.786C22.2091 253.286 49.4411 262 49.4411 262C61.4232 267.447 74.4945 267.447 74.4945 267.447H172.53C173.619 267.447 173.619 266.357 173.619 266.357ZM182.333 0.573653C176.887 0.573653 161.637 4.93077 161.637 4.93077C126.78 13.645 119.155 45.2341 119.155 45.2341C112.619 64.8411 119.155 86.6266 119.155 86.6266C131.137 137.823 187.779 222.786 199.761 240.215L200.851 241.304C201.94 241.304 201.94 240.215 201.94 240.215C221.547 49.5912 182.333 0.573653 182.333 0.573653ZM225.904 240.215C226.993 240.215 228.083 239.126 228.083 239.126C241.154 220.608 296.707 136.733 308.689 85.5373C308.689 85.5373 315.225 60.4839 308.689 44.1448C308.689 44.1448 299.975 12.5557 265.118 3.84149C265.118 3.84149 255.315 1.66293 244.422 -0.515625C244.422 -0.515625 205.208 49.5912 224.815 238.036C224.815 240.215 225.904 240.215 225.904 240.215ZM256.404 277.25C256.404 277.25 255.315 277.25 255.315 278.34V280.518C268.386 289.232 305.421 316.464 323.939 320.821C323.939 320.821 357.707 332.803 387.117 281.607L256.404 277.25ZM423.063 165.055C423.063 165.055 311.957 224.965 254.225 264.179C254.225 264.179 253.136 265.268 253.136 266.357C253.136 266.357 253.136 267.447 254.225 267.447H354.439C354.439 267.447 364.242 267.447 377.314 262C377.314 262 404.546 253.286 419.796 221.697C419.796 220.608 432.867 195.554 423.063 165.055ZM243.333 251.108C243.333 251.108 244.422 252.197 245.511 251.108C264.029 241.304 342.457 202.09 375.135 170.501C375.135 170.501 395.832 154.162 396.921 128.019C399.099 90.9837 362.064 57.2161 362.064 57.2161C362.064 57.2161 293.439 138.912 243.333 248.929C243.333 248.929 242.243 250.018 243.333 251.108Z" fill="#CF0A2C"/>
</g>
<defs>
<clipPath id="clip0_1058_6842">
<rect width="1470.19" height="322.997" fill="white" transform="translate(0.402344 -0.00292969)"/>
</clipPath>
</defs>
</svg>
