<svg width="1425" height="372" viewBox="0 0 1425 372" fill="none" xmlns="http://www.w3.org/2000/svg">
<path d="M602.572 100.06V270.293H657.061C678.462 271.265 698.886 264.471 716.396 251.825C734.878 236.261 746.548 211.935 746.548 185.67C746.548 168.16 740.711 151.623 731.956 137.032C724.174 126.332 714.447 116.612 702.773 110.775C688.182 103.966 672.61 100.06 656.073 100.06H602.572ZM520.875 101.048V271.28H547.132V101.048H520.875ZM790.322 101.048V271.28H900.251V246.961H817.567V196.367H892.462V172.048H817.567V125.367H900.251V101.048H790.322ZM945.963 101.048V271.28H972.22V143.834H973.208L1025.72 271.28H1048.1L1101.6 143.834V271.28H1127.86V101.048H1090.91L1036.44 232.37L981.948 101.048H945.963ZM1183.32 101.048V271.28H1209.58V101.048H1183.32ZM1312.69 101.048L1243.62 271.28H1270.87L1286.43 231.382H1369.11L1384.67 271.28H1412.89L1343.83 101.048H1312.69ZM627.879 126.335H655.104C669.696 126.335 685.268 130.23 696.941 139.958C710.559 151.631 718.334 168.157 718.334 186.639C718.334 198.312 715.416 209.989 708.606 219.717C704.715 224.58 700.836 229.448 695.972 233.339C684.299 242.094 668.727 246.946 654.135 245.974H627.879V126.335ZM1327.28 127.304L1359.39 208.051H1295.19L1327.28 127.304Z" fill="#420098"/>
<path d="M105.494 10.5742L12.1133 185.671L105.494 360.768H137.603L44.2219 185.671L137.603 10.5742H105.494ZM171.65 10.5742L136.634 185.671L171.65 360.768H200.832L165.817 185.671L200.832 10.5742H171.65ZM238.774 10.5742L273.789 185.671L238.774 360.768H267.957L302.972 185.671L267.957 10.5742H238.774ZM302.003 10.5742L395.384 185.671L302.003 360.768H334.093L427.474 185.671L334.093 10.5742H302.003Z" fill="#420098"/>
</svg>
