<svg width="933" height="215" viewBox="0 0 933 215" fill="none" xmlns="http://www.w3.org/2000/svg">
<g clip-path="url(#clip0_35_132)">
<path d="M128.073 -0.992798L106.608 107.284L128.073 215.417H146.246L124.782 107.284L146.246 -0.992798H128.073Z" fill="#403092"/>
<path d="M87.433 -0.992798L29.9075 107.284L87.2899 215.417H107.181L49.6551 107.284L107.181 -0.992798H87.433Z" fill="#403092"/>
<path d="M169.285 -0.992798L190.893 107.284L169.428 215.417H187.602L209.066 107.284L187.459 -0.992798H169.285Z" fill="#403092"/>
<path d="M208.351 -0.992798L266.019 107.284L208.494 215.417H228.385L285.767 107.284L228.242 -0.992798H208.351Z" fill="#403092"/>
<path d="M816.232 123.367L836.122 73.3934L856.156 123.367H816.232ZM810.508 138.015H861.737L871.325 162.714H888.496L845.996 57.4535H826.535L783.892 162.714H800.777L810.508 138.015ZM763.286 57.5971H746.829V162.858H763.286V57.5971ZM712.915 162.714V57.4535H690.019L656.677 138.876H656.534L622.62 57.4535H600.297V162.714H616.467V84.1636H616.896L649.522 162.714H663.546L696.316 83.8764H696.602V162.714H712.915ZM504.421 57.5971V162.858H571.963V147.78H520.734V116.761H566.955V101.683H520.734V72.5318H571.534V57.4535H504.421V57.5971ZM460.204 110.299C460.204 117.479 458.486 124.372 454.48 130.978C452.333 134.137 449.757 137.009 446.896 139.451C441.028 144.19 431.727 147.492 421.138 147.492H404.682V72.819H421.281C431.87 72.819 441.172 76.1219 447.039 81.148C455.911 89.0461 460.49 100.391 460.204 110.299ZM477.519 110.299C477.519 100.822 474.657 90.0513 468.36 80.4299C464.21 74.1114 457.914 68.3673 450.33 64.0592C442.889 60.0384 432.729 57.5971 421.567 57.5971H388.368V162.858H421.853C436.879 162.858 449.757 158.263 458.2 151.37C471.079 140.743 477.805 124.803 477.519 110.299ZM354.311 57.5971H337.855V162.858H354.311V57.5971Z" fill="#403092"/>
</g>
<defs>
<clipPath id="clip0_35_132">
<rect width="933" height="215" fill="white"/>
</clipPath>
</defs>
</svg>
