<svg width="1581" height="433" viewBox="0 0 1581 433" fill="none" xmlns="http://www.w3.org/2000/svg">
<path fill-rule="evenodd" clip-rule="evenodd" d="M521.001 226.179L526.355 195.695C526.355 195.695 485.124 182.305 451.566 207.139V329.085H487.202V230.009C501.402 218.566 521.001 226.179 521.001 226.179Z" fill="#03435F"/>
<mask id="mask0_1059_6954" style="mask-type:luminance" maskUnits="userSpaceOnUse" x="451" y="192" width="76" height="138">
<path d="M451.564 207.135C467.71 195.189 485.634 192.088 499.885 192.09C515.254 192.09 526.355 195.694 526.355 195.694L520.999 226.178C520.999 226.178 501.4 218.564 487.2 230.005V329.081H451.564V207.135Z" fill="white"/>
</mask>
<g mask="url(#mask0_1059_6954)">
<path fill-rule="evenodd" clip-rule="evenodd" d="M-1717.66 707.036L3300.69 707.036V-6402.29H-1717.66L-1717.66 707.036Z" fill="#03435F"/>
</g>
<mask id="mask1_1059_6954" style="mask-type:luminance" maskUnits="userSpaceOnUse" x="451" y="192" width="76" height="138">
<path d="M451.564 207.135C467.71 195.189 485.631 192.09 499.885 192.09C515.254 192.09 526.355 195.694 526.355 195.694L520.999 226.178C520.999 226.178 501.4 218.564 487.2 230.005V329.081H451.564V207.135Z" fill="white"/>
</mask>
<g mask="url(#mask1_1059_6954)">
<path fill-rule="evenodd" clip-rule="evenodd" d="M391.822 388.824H586.097V132.346H391.822V388.824Z" fill="#03435F"/>
</g>
<path fill-rule="evenodd" clip-rule="evenodd" d="M213.781 160.929L249.4 154.219V193.879H284.647V225.596H249.4V272.896C249.4 280.953 250.703 287.35 253.367 292.08C256.001 296.883 261.283 299.263 269.215 299.263C273.094 299.263 276.989 298.891 281.098 298.102C285.091 297.299 288.814 296.268 292.164 294.919L297.204 324.628C292.893 326.478 288.127 328.083 282.874 329.444C277.603 330.791 271.132 331.494 263.487 331.494C253.767 331.494 245.735 330.077 239.348 327.266C232.994 324.456 227.884 320.512 224.075 315.479C220.266 310.49 217.588 304.368 216.085 297.199C214.554 290.044 213.781 282.142 213.781 273.426V160.929Z" fill="#03435F"/>
<mask id="mask2_1059_6954" style="mask-type:luminance" maskUnits="userSpaceOnUse" x="213" y="154" width="85" height="178">
<path d="M213.783 160.929L249.402 154.219V193.879H284.648V225.596H249.402V272.896C249.402 280.956 250.705 287.35 253.367 292.08C256.001 296.885 261.283 299.263 269.215 299.263C273.094 299.263 276.986 298.891 281.098 298.102C285.091 297.299 288.816 296.268 292.166 294.921L297.204 324.628C292.895 326.48 288.127 328.085 282.873 329.447C277.603 330.794 271.132 331.494 263.486 331.494C253.765 331.494 245.735 330.077 239.35 327.266C232.993 324.456 227.881 320.512 224.075 315.481C220.266 310.49 217.59 304.368 216.087 297.199C214.553 290.044 213.783 282.145 213.783 273.426V160.929Z" fill="white"/>
</mask>
<g mask="url(#mask2_1059_6954)">
<path fill-rule="evenodd" clip-rule="evenodd" d="M-1717.66 707.04L3300.69 707.04V-6402.29H-1717.66L-1717.66 707.04Z" fill="#03435F"/>
</g>
<mask id="mask3_1059_6954" style="mask-type:luminance" maskUnits="userSpaceOnUse" x="213" y="154" width="85" height="178">
<path d="M213.783 160.929L249.402 154.219V193.879H284.648V225.596H249.402V272.896C249.402 280.956 250.705 287.35 253.367 292.08C256.001 296.885 261.283 299.263 269.215 299.263C273.094 299.263 276.986 298.891 281.098 298.102C285.091 297.299 288.816 296.268 292.166 294.921L297.204 324.628C292.895 326.48 288.127 328.085 282.873 329.447C277.603 330.794 271.132 331.494 263.486 331.494C253.765 331.494 245.735 330.077 239.35 327.266C232.993 324.456 227.881 320.512 224.075 315.481C220.266 310.49 217.59 304.368 216.087 297.199C214.553 290.044 213.783 282.145 213.783 273.426V160.929Z" fill="white"/>
</mask>
<g mask="url(#mask3_1059_6954)">
<path fill-rule="evenodd" clip-rule="evenodd" d="M154.039 391.237H356.945V94.4751H154.039L154.039 391.237Z" fill="#03435F"/>
</g>
<path fill-rule="evenodd" clip-rule="evenodd" d="M579.114 301.776C585.629 301.776 590.239 301.057 592.975 299.71C595.693 298.349 597.01 295.682 597.01 291.782C597.01 288.699 595.293 286.019 591.77 283.738C588.249 281.416 582.951 278.836 575.766 275.895C570.196 273.673 565.128 271.381 560.56 269.014C556.051 266.606 552.186 263.795 548.994 260.454C545.813 257.129 543.351 253.141 541.576 248.496C539.8 243.936 538.958 238.417 538.958 231.906C538.958 219.302 543.351 209.308 552.1 201.981C560.86 194.684 572.86 190.957 588.177 190.957C595.837 190.957 603.167 191.687 610.182 193.165C617.183 194.598 622.782 196.234 626.888 197.881L620.69 227.56C616.539 226.026 612.029 224.679 607.176 223.504C602.322 222.301 596.854 221.668 590.811 221.668C579.659 221.668 574.074 225.024 574.074 231.662C574.074 233.195 574.319 234.559 574.805 235.748C575.291 236.953 576.238 238.1 577.642 239.203C579.114 240.295 581.034 241.525 583.524 242.789C585.999 244.122 589.15 245.497 592.975 247.061C600.747 250.158 607.204 253.169 612.302 256.21C617.411 259.249 621.42 262.448 624.385 266.001C627.333 269.473 629.425 273.317 630.597 277.586C631.773 281.847 632.387 286.763 632.387 292.371C632.387 305.662 627.719 315.711 618.428 322.508C609.093 329.276 595.893 332.688 578.842 332.688C567.703 332.688 558.427 331.699 551.025 329.621C543.595 327.599 538.47 325.851 535.607 324.502L541.576 293.56C547.604 296.112 553.875 298.09 560.204 299.584C566.617 301.045 572.86 301.776 579.114 301.776Z" fill="#03435F"/>
<mask id="mask4_1059_6954" style="mask-type:luminance" maskUnits="userSpaceOnUse" x="535" y="190" width="98" height="143">
<path d="M552.096 201.983C560.859 194.684 572.856 190.957 588.173 190.957C595.835 190.957 603.165 191.687 610.18 193.165C617.179 194.598 622.778 196.231 626.887 197.881L620.688 227.56C616.535 226.026 612.028 224.679 607.172 223.504C602.32 222.299 596.85 221.671 590.81 221.671C579.655 221.671 574.073 225.021 574.073 231.662C574.073 233.195 574.315 234.559 574.801 235.748C575.29 236.953 576.237 238.1 577.64 239.203C579.11 240.295 581.032 241.525 583.522 242.789C585.998 244.12 589.146 245.499 592.971 247.061C600.745 250.158 607.202 253.169 612.298 256.21C617.41 259.249 621.419 262.446 624.383 266.001C627.331 269.473 629.421 273.314 630.596 277.586C631.771 281.847 632.383 286.763 632.383 292.371C632.383 305.662 627.715 315.713 618.426 322.508C609.091 329.276 595.891 332.688 578.84 332.688C567.702 332.688 558.425 331.699 551.023 329.621C543.591 327.599 538.468 325.851 535.604 324.502L541.574 293.56C547.603 296.115 553.871 298.09 560.2 299.584C566.613 301.043 572.856 301.776 579.11 301.776C585.626 301.776 590.237 301.059 592.971 299.71C595.691 298.349 597.008 295.682 597.008 291.782C597.008 288.699 595.291 286.019 591.768 283.738C588.245 281.416 582.947 278.836 575.762 275.895C570.192 273.673 565.126 271.381 560.556 269.014C556.049 266.606 552.182 263.795 548.992 260.454C545.811 257.127 543.35 253.141 541.574 248.496C539.799 243.934 538.954 238.417 538.954 231.906C538.954 219.304 543.35 209.311 552.096 201.983Z" fill="white"/>
</mask>
<g mask="url(#mask4_1059_6954)">
<path fill-rule="evenodd" clip-rule="evenodd" d="M-1717.67 707.039L3300.68 707.039V-6402.29H-1717.67L-1717.67 707.039Z" fill="#03435F"/>
</g>
<mask id="mask5_1059_6954" style="mask-type:luminance" maskUnits="userSpaceOnUse" x="535" y="190" width="98" height="143">
<path d="M552.096 201.983C560.859 194.684 572.856 190.957 588.173 190.957C595.835 190.957 603.165 191.687 610.18 193.165C617.179 194.598 622.778 196.231 626.887 197.881L620.688 227.56C616.535 226.026 612.028 224.679 607.172 223.504C602.32 222.299 596.85 221.671 590.81 221.671C579.655 221.671 574.073 225.021 574.073 231.662C574.073 233.195 574.315 234.559 574.801 235.748C575.29 236.953 576.237 238.1 577.64 239.203C579.11 240.295 581.032 241.525 583.522 242.789C585.998 244.12 589.146 245.499 592.971 247.061C600.745 250.158 607.202 253.169 612.298 256.21C617.41 259.249 621.419 262.446 624.383 266.001C627.331 269.473 629.421 273.314 630.596 277.586C631.771 281.847 632.383 286.763 632.383 292.371C632.383 305.662 627.715 315.713 618.426 322.508C609.091 329.276 595.891 332.688 578.84 332.688C567.702 332.688 558.425 331.699 551.023 329.621C543.591 327.599 538.468 325.851 535.604 324.502L541.574 293.56C547.603 296.115 553.871 298.09 560.2 299.584C566.613 301.043 572.856 301.776 579.11 301.776C585.626 301.776 590.237 301.059 592.971 299.71C595.691 298.349 597.008 295.682 597.008 291.782C597.008 288.699 595.291 286.019 591.768 283.738C588.245 281.416 582.947 278.836 575.762 275.895C570.192 273.673 565.126 271.381 560.556 269.014C556.049 266.606 552.182 263.795 548.992 260.454C545.811 257.127 543.35 253.141 541.574 248.496C539.799 243.934 538.954 238.417 538.954 231.906C538.954 219.304 543.35 209.311 552.096 201.983Z" fill="white"/>
</mask>
<g mask="url(#mask5_1059_6954)">
<path fill-rule="evenodd" clip-rule="evenodd" d="M475.863 392.431H692.129V131.213H475.863V392.431Z" fill="#03435F"/>
</g>
<path fill-rule="evenodd" clip-rule="evenodd" d="M742.167 251.858C738.975 264.821 735.61 277.725 732.018 290.486C728.437 303.29 724.628 316.166 720.693 329.127H692.962C690.084 321.958 686.95 313.442 683.599 303.562C680.218 293.641 676.77 282.872 673.147 271.159C669.566 259.485 665.904 247.128 662.15 234.051C658.386 221.032 654.735 207.87 651.242 194.549H688.781C690.026 200.671 691.443 207.397 692.974 214.636C694.493 221.891 696.096 229.362 697.771 237.048C699.447 244.705 701.236 252.402 703.067 260.174C704.915 267.945 706.806 275.387 708.721 282.544C710.799 275.045 712.833 267.387 714.822 259.543C716.784 251.688 718.717 243.972 720.563 236.389C722.382 228.818 724.172 221.463 725.803 214.38C727.464 207.309 728.939 200.671 730.242 194.549H756.026C757.343 200.671 758.729 207.309 760.347 214.38C761.922 221.463 763.599 228.818 765.375 236.389C767.092 243.972 768.967 251.688 770.843 259.543C772.774 267.387 774.752 275.045 776.799 282.544C778.731 275.387 780.65 267.945 782.581 260.174C784.515 252.402 786.332 244.705 787.994 237.048C789.655 229.362 791.258 221.891 792.806 214.636C794.337 207.397 795.726 200.671 796.998 194.549H834.051C830.53 207.87 826.907 221.032 823.143 234.051C819.348 247.128 815.725 259.485 812.104 271.159C808.537 282.872 805.017 293.641 801.594 303.562C798.146 313.442 794.965 321.958 792.133 329.127H764.402C760.391 316.166 756.498 303.29 752.661 290.486C748.838 277.725 745.373 264.821 742.167 251.858Z" fill="#03435F"/>
<mask id="mask6_1059_6954" style="mask-type:luminance" maskUnits="userSpaceOnUse" x="651" y="194" width="184" height="136">
<path d="M796.998 194.55H834.051C830.53 207.87 826.907 221.033 823.14 234.05C819.348 247.129 815.725 259.489 812.102 271.16C808.537 282.873 805.017 293.642 801.592 303.563C798.143 313.443 794.965 321.957 792.131 329.128H764.4C760.391 316.167 756.498 303.289 752.661 290.484C748.838 277.726 745.373 264.822 742.167 251.859C738.972 264.822 735.608 277.726 732.018 290.484C728.437 303.289 724.628 316.167 720.691 329.128H692.96C690.081 321.957 686.947 313.443 683.596 303.563C680.218 293.642 676.767 282.873 673.147 271.16C669.566 259.489 665.901 247.129 662.15 234.05C658.386 221.033 654.735 207.87 651.242 194.55H688.778C690.026 200.671 691.443 207.396 692.974 214.637C694.493 221.892 696.094 229.363 697.771 237.046C699.444 244.704 701.236 252.403 703.067 260.175C704.915 267.946 706.806 275.388 708.721 282.545C710.797 275.046 712.831 267.386 714.82 259.544C716.781 251.689 718.717 243.973 720.563 236.39C722.38 228.816 724.169 221.461 725.803 214.381C727.464 207.31 728.939 200.671 730.24 194.55H756.026C757.34 200.671 758.729 207.31 760.347 214.381C761.922 221.461 763.599 228.816 765.372 236.39C767.092 243.973 768.965 251.689 770.843 259.544C772.774 267.386 774.752 275.046 776.797 282.545C778.731 275.388 780.648 267.946 782.581 260.175C784.515 252.403 786.332 244.704 787.994 237.046C789.655 229.363 791.258 221.892 792.803 214.637C794.337 207.396 795.726 200.671 796.998 194.55Z" fill="white"/>
</mask>
<g mask="url(#mask6_1059_6954)">
<path fill-rule="evenodd" clip-rule="evenodd" d="M-1717.67 707.04L3300.68 707.04V-6402.29H-1717.67L-1717.67 707.04Z" fill="#03435F"/>
</g>
<mask id="mask7_1059_6954" style="mask-type:luminance" maskUnits="userSpaceOnUse" x="651" y="194" width="184" height="136">
<path d="M796.998 194.55H834.051C830.53 207.87 826.907 221.033 823.14 234.05C819.348 247.129 815.725 259.489 812.102 271.16C808.537 282.873 805.017 293.642 801.592 303.563C798.143 313.443 794.965 321.957 792.131 329.128H764.4C760.391 316.167 756.498 303.289 752.661 290.484C748.838 277.726 745.373 264.822 742.167 251.859C738.972 264.822 735.608 277.726 732.018 290.484C728.437 303.289 724.628 316.167 720.691 329.128H692.96C690.081 321.957 686.947 313.443 683.596 303.563C680.218 293.642 676.767 282.873 673.147 271.16C669.566 259.489 665.901 247.129 662.15 234.05C658.386 221.033 654.735 207.87 651.242 194.55H688.778C690.026 200.671 691.443 207.396 692.974 214.637C694.493 221.892 696.094 229.363 697.771 237.046C699.444 244.704 701.236 252.403 703.067 260.175C704.915 267.946 706.806 275.388 708.721 282.545C710.797 275.046 712.831 267.386 714.82 259.544C716.781 251.689 718.717 243.973 720.563 236.39C722.38 228.816 724.169 221.461 725.803 214.381C727.464 207.31 728.939 200.671 730.24 194.55H756.026C757.34 200.671 758.729 207.31 760.347 214.381C761.922 221.461 763.599 228.816 765.372 236.39C767.092 243.973 768.965 251.689 770.843 259.544C772.774 267.386 774.752 275.046 776.797 282.545C778.731 275.388 780.648 267.946 782.581 260.175C784.515 252.403 786.332 244.704 787.994 237.046C789.655 229.363 791.258 221.892 792.803 214.637C794.337 207.396 795.726 200.671 796.998 194.55Z" fill="white"/>
</mask>
<g mask="url(#mask7_1059_6954)">
<path fill-rule="evenodd" clip-rule="evenodd" d="M591.498 388.871H893.791V134.807L591.498 134.807V388.871Z" fill="#03435F"/>
</g>
<path fill-rule="evenodd" clip-rule="evenodd" d="M859.23 329.072H894.794V194.522H859.23V329.072Z" fill="#03435F"/>
<mask id="mask8_1059_6954" style="mask-type:luminance" maskUnits="userSpaceOnUse" x="859" y="194" width="36" height="136">
<path d="M859.232 329.076V194.526H894.798V329.076H859.232Z" fill="white"/>
</mask>
<g mask="url(#mask8_1059_6954)">
<path fill-rule="evenodd" clip-rule="evenodd" d="M-1717.67 707.038L3300.68 707.038V-6402.29H-1717.67L-1717.67 707.038Z" fill="#03435F"/>
</g>
<mask id="mask9_1059_6954" style="mask-type:luminance" maskUnits="userSpaceOnUse" x="859" y="194" width="36" height="136">
<path d="M859.232 329.076V194.526H894.798V329.076H859.232Z" fill="white"/>
</mask>
<g mask="url(#mask9_1059_6954)">
<path fill-rule="evenodd" clip-rule="evenodd" d="M799.488 388.816H954.535V134.78H799.488V388.816Z" fill="#03435F"/>
</g>
<path fill-rule="evenodd" clip-rule="evenodd" d="M923.08 160.968L958.671 154.215V194.59H993.892V226.249H958.671V273.595C958.671 281.608 959.988 288.063 962.608 292.78C965.228 297.554 970.538 299.949 978.486 299.949C982.337 299.949 986.288 299.604 990.325 298.815C994.404 298.04 998.099 296.938 1001.46 295.604L1006.46 325.285C1002.15 327.174 997.354 328.782 992.131 330.157C986.844 331.505 980.448 332.193 972.772 332.193C963.039 332.193 955.006 330.79 948.635 327.949C942.251 325.183 937.153 321.269 933.346 316.192C929.537 311.203 926.875 305.051 925.344 297.927C923.797 290.744 923.08 282.8 923.08 274.123V160.968Z" fill="#03435F"/>
<mask id="mask10_1059_6954" style="mask-type:luminance" maskUnits="userSpaceOnUse" x="923" y="154" width="84" height="179">
<path d="M923.084 160.97L958.673 154.217V194.592H993.894V226.251H958.673V273.597C958.673 281.61 959.992 288.063 962.612 292.782C965.232 297.556 970.542 299.948 978.488 299.948C982.339 299.948 986.292 299.606 990.329 298.817C994.408 298.04 998.103 296.94 1001.47 295.606L1006.46 325.285C1002.15 327.176 997.356 328.784 992.135 330.159C986.848 331.507 980.452 332.195 972.775 332.195C963.043 332.195 955.008 330.792 948.639 327.951C942.252 325.182 937.157 321.271 933.35 316.196C929.541 311.205 926.879 305.056 925.346 297.928C923.801 290.746 923.084 282.799 923.084 274.127V160.97Z" fill="white"/>
</mask>
<g mask="url(#mask10_1059_6954)">
<path fill-rule="evenodd" clip-rule="evenodd" d="M-1717.67 707.039L3300.68 707.039V-6402.29H-1717.67L-1717.67 707.039Z" fill="#03435F"/>
</g>
<mask id="mask11_1059_6954" style="mask-type:luminance" maskUnits="userSpaceOnUse" x="923" y="154" width="84" height="179">
<path d="M923.084 160.97L958.673 154.217V194.592H993.894V226.251H958.673V273.597C958.673 281.61 959.992 288.063 962.612 292.782C965.232 297.556 970.542 299.948 978.488 299.948C982.339 299.948 986.292 299.606 990.329 298.817C994.408 298.04 998.103 296.94 1001.47 295.606L1006.46 325.285C1002.15 327.176 997.356 328.784 992.135 330.159C986.848 331.507 980.452 332.195 972.775 332.195C963.043 332.195 955.008 330.792 948.639 327.951C942.252 325.182 937.157 321.271 933.35 316.196C929.541 311.205 926.879 305.056 925.346 297.928C923.801 290.746 923.084 282.799 923.084 274.127V160.97Z" fill="white"/>
</mask>
<g mask="url(#mask11_1059_6954)">
<path fill-rule="evenodd" clip-rule="evenodd" d="M863.34 391.938H1066.21V94.4732H863.34V391.938Z" fill="#03435F"/>
</g>
<path fill-rule="evenodd" clip-rule="evenodd" d="M1019.04 261.868C1019.04 252.13 1020.52 242.955 1023.47 234.353C1026.42 225.721 1030.67 218.237 1036.24 211.827C1041.82 205.419 1048.58 200.37 1056.57 196.6C1064.51 192.887 1073.59 190.965 1083.78 190.965C1090.47 190.965 1096.61 191.64 1102.19 192.901C1107.78 194.206 1113.22 196.028 1118.44 198.392L1111.06 228.834C1107.69 227.484 1104.04 226.309 1100.03 225.248C1096.05 224.243 1091.57 223.715 1086.65 223.715C1076.14 223.715 1068.28 227.226 1063.14 234.223C1057.91 241.236 1055.36 250.426 1055.36 261.868C1055.36 273.953 1057.78 283.344 1062.68 289.999C1067.49 296.637 1076 299.978 1088.09 299.978C1092.4 299.978 1097 299.532 1101.97 298.687C1106.89 297.826 1111.43 296.479 1115.61 294.587L1120.59 325.815C1116.44 327.693 1111.29 329.271 1105.07 330.66C1098.83 332.012 1092 332.712 1084.53 332.712C1073.06 332.712 1063.15 330.848 1054.89 327.19C1046.62 323.535 1039.79 318.544 1034.46 312.236C1029.09 305.914 1025.23 298.459 1022.75 289.854C1020.28 281.238 1019.04 271.891 1019.04 261.868Z" fill="#03435F"/>
<mask id="mask12_1059_6954" style="mask-type:luminance" maskUnits="userSpaceOnUse" x="1019" y="190" width="102" height="143">
<path d="M1056.56 196.602C1064.51 192.889 1073.58 190.967 1083.78 190.967C1090.46 190.967 1096.61 191.639 1102.19 192.9C1107.77 194.208 1113.21 196.028 1118.44 198.394L1111.05 228.833C1107.69 227.486 1104.04 226.311 1100.03 225.25C1096.05 224.243 1091.57 223.714 1086.64 223.714C1076.13 223.714 1068.27 227.228 1063.13 234.225C1057.91 241.235 1055.36 250.426 1055.36 261.87C1055.36 273.955 1057.78 283.346 1062.68 290.001C1067.49 296.639 1075.99 299.98 1088.09 299.98C1092.4 299.98 1096.99 299.534 1101.96 298.689C1106.89 297.828 1111.42 296.481 1115.6 294.587L1120.59 325.817C1116.44 327.695 1111.28 329.27 1105.07 330.662C1098.83 332.011 1092 332.714 1084.52 332.714C1073.05 332.714 1063.15 330.848 1054.89 327.19C1046.61 323.535 1039.78 318.546 1034.45 312.24C1029.09 305.916 1025.22 298.461 1022.75 289.856C1020.27 281.24 1019.04 271.891 1019.04 261.87C1019.04 252.132 1020.51 242.957 1023.46 234.355C1026.41 225.722 1030.66 218.237 1036.23 211.827C1041.82 205.419 1048.57 200.372 1056.56 196.602Z" fill="white"/>
</mask>
<g mask="url(#mask12_1059_6954)">
<path fill-rule="evenodd" clip-rule="evenodd" d="M-1717.67 707.036L3300.68 707.036V-6402.29H-1717.67L-1717.67 707.036Z" fill="#03435F"/>
</g>
<mask id="mask13_1059_6954" style="mask-type:luminance" maskUnits="userSpaceOnUse" x="1019" y="190" width="102" height="143">
<path d="M1056.56 196.602C1064.51 192.889 1073.58 190.967 1083.78 190.967C1090.46 190.967 1096.61 191.639 1102.19 192.9C1107.77 194.208 1113.21 196.028 1118.44 198.394L1111.05 228.833C1107.69 227.486 1104.04 226.311 1100.03 225.25C1096.05 224.243 1091.57 223.714 1086.64 223.714C1076.13 223.714 1068.27 227.228 1063.13 234.225C1057.91 241.235 1055.36 250.426 1055.36 261.87C1055.36 273.955 1057.78 283.346 1062.68 290.001C1067.49 296.639 1075.99 299.98 1088.09 299.98C1092.4 299.98 1096.99 299.534 1101.96 298.689C1106.89 297.828 1111.42 296.481 1115.6 294.587L1120.59 325.817C1116.44 327.695 1111.28 329.27 1105.07 330.662C1098.83 332.011 1092 332.714 1084.52 332.714C1073.05 332.714 1063.15 330.848 1054.89 327.19C1046.61 323.535 1039.78 318.546 1034.45 312.24C1029.09 305.916 1025.22 298.461 1022.75 289.856C1020.27 281.24 1019.04 271.891 1019.04 261.87C1019.04 252.132 1020.51 242.957 1023.46 234.355C1026.41 225.722 1030.66 218.237 1036.23 211.827C1041.82 205.419 1048.57 200.372 1056.56 196.602Z" fill="white"/>
</mask>
<g mask="url(#mask13_1059_6954)">
<path fill-rule="evenodd" clip-rule="evenodd" d="M959.295 392.457H1180.33V131.223H959.295V392.457Z" fill="#03435F"/>
</g>
<path fill-rule="evenodd" clip-rule="evenodd" d="M1143.6 329.08V160.921L1179.2 154.227V195.09C1181.58 194.243 1184.63 193.427 1188.41 192.654C1192.13 191.893 1195.78 191.491 1199.28 191.491C1209.45 191.491 1217.91 192.996 1224.7 195.965C1231.46 198.948 1236.91 203.178 1240.95 208.639C1245.04 214.075 1247.88 220.583 1249.58 228.054C1251.23 235.579 1252.06 243.956 1252.06 253.161V329.08H1216.47V257.733C1216.47 245.459 1214.99 236.771 1212.06 231.624C1209.11 226.561 1203.64 223.996 1195.7 223.996C1192.46 223.996 1189.51 224.299 1186.7 224.871C1183.93 225.474 1181.42 226.132 1179.2 226.807V329.08H1143.6Z" fill="#03435F"/>
<mask id="mask14_1059_6954" style="mask-type:luminance" maskUnits="userSpaceOnUse" x="1143" y="154" width="110" height="176">
<path d="M1143.6 160.919L1179.2 154.225V195.091C1181.58 194.241 1184.63 193.425 1188.41 192.652C1192.13 191.891 1195.78 191.491 1199.28 191.491C1209.45 191.491 1217.92 192.997 1224.7 195.963C1231.46 198.949 1236.91 203.177 1240.95 208.64C1245.04 214.073 1247.88 220.581 1249.58 228.055C1251.23 235.58 1252.06 243.954 1252.06 253.161V329.078H1216.47V257.731C1216.47 245.459 1214.99 236.769 1212.06 231.622C1209.11 226.561 1203.64 223.994 1195.69 223.994C1192.46 223.994 1189.51 224.297 1186.7 224.872C1183.93 225.472 1181.42 226.131 1179.2 226.805V329.078H1143.6V160.919Z" fill="white"/>
</mask>
<g mask="url(#mask14_1059_6954)">
<path fill-rule="evenodd" clip-rule="evenodd" d="M-1717.67 707.038L3300.68 707.038V-6402.29H-1717.67L-1717.67 707.038Z" fill="#03435F"/>
</g>
<mask id="mask15_1059_6954" style="mask-type:luminance" maskUnits="userSpaceOnUse" x="1143" y="154" width="110" height="176">
<path d="M1143.6 160.919L1179.2 154.225V195.091C1181.58 194.241 1184.63 193.425 1188.41 192.652C1192.13 191.891 1195.78 191.491 1199.28 191.491C1209.45 191.491 1217.92 192.997 1224.7 195.963C1231.46 198.949 1236.91 203.177 1240.95 208.64C1245.04 214.073 1247.88 220.581 1249.58 228.055C1251.23 235.58 1252.06 243.954 1252.06 253.161V329.078H1216.47V257.731C1216.47 245.459 1214.99 236.769 1212.06 231.622C1209.11 226.561 1203.64 223.994 1195.69 223.994C1192.46 223.994 1189.51 224.297 1186.7 224.872C1183.93 225.472 1181.42 226.131 1179.2 226.805V329.078H1143.6V160.919Z" fill="white"/>
</mask>
<g mask="url(#mask15_1059_6954)">
<path fill-rule="evenodd" clip-rule="evenodd" d="M1083.85 388.821H1311.8V94.48H1083.85V388.821Z" fill="#03435F"/>
</g>
<path fill-rule="evenodd" clip-rule="evenodd" d="M70.1465 329.12L70.1465 207.188C70.1465 207.188 88.0419 191.889 127.184 191.889C162.802 191.889 182.362 210.946 182.362 252.884V329.12H146.785V252.884C146.785 226.172 134.299 224.323 123.633 224.323C112.967 224.323 105.824 230 105.824 230V329.12H70.1465Z" fill="#03435F"/>
<mask id="mask16_1059_6954" style="mask-type:luminance" maskUnits="userSpaceOnUse" x="70" y="191" width="113" height="139">
<path d="M70.1445 207.191C70.1445 207.191 88.04 191.892 127.182 191.892C162.801 191.892 182.357 210.946 182.357 252.889V329.123H146.783V252.889C146.783 226.173 134.297 224.325 123.631 224.325C112.965 224.325 105.822 230.005 105.822 230.005V329.123H70.1445L70.1445 207.191Z" fill="white"/>
</mask>
<g mask="url(#mask16_1059_6954)">
<path fill-rule="evenodd" clip-rule="evenodd" d="M-1717.67 707.04L3300.68 707.04V-6402.29H-1717.67L-1717.67 707.04Z" fill="#03435F"/>
</g>
<mask id="mask17_1059_6954" style="mask-type:luminance" maskUnits="userSpaceOnUse" x="70" y="191" width="113" height="139">
<path d="M70.1445 207.191C70.1445 207.191 88.04 191.892 127.182 191.892C162.801 191.892 182.357 210.946 182.357 252.889V329.123H146.783V252.889C146.783 226.173 134.297 224.325 123.631 224.325C112.965 224.325 105.822 230.005 105.822 230.005V329.123H70.1445L70.1445 207.191Z" fill="white"/>
</mask>
<g mask="url(#mask17_1059_6954)">
<path fill-rule="evenodd" clip-rule="evenodd" d="M10.4062 388.866H242.102L242.102 132.151H10.4063L10.4062 388.866Z" fill="#03435F"/>
</g>
<path fill-rule="evenodd" clip-rule="evenodd" d="M3.11523 329.123L3.11523 160.935L38.7343 154.224L38.7343 329.123H3.11523Z" fill="#03435F"/>
<mask id="mask18_1059_6954" style="mask-type:luminance" maskUnits="userSpaceOnUse" x="3" y="154" width="36" height="176">
<path d="M3.11914 160.937L38.7382 154.224L38.7382 329.123H3.11914L3.11914 160.937Z" fill="white"/>
</mask>
<g mask="url(#mask18_1059_6954)">
<path fill-rule="evenodd" clip-rule="evenodd" d="M-1717.66 707.037L3300.69 707.037V-6402.29H-1717.66L-1717.66 707.037Z" fill="#03435F"/>
</g>
<mask id="mask19_1059_6954" style="mask-type:luminance" maskUnits="userSpaceOnUse" x="3" y="154" width="36" height="176">
<path d="M3.11914 160.937L38.7382 154.224L38.7382 329.123H3.11914L3.11914 160.937Z" fill="white"/>
</mask>
<g mask="url(#mask19_1059_6954)">
<path fill-rule="evenodd" clip-rule="evenodd" d="M-56.625 388.866H98.4802L98.4802 94.4831H-56.625L-56.625 388.866Z" fill="#03435F"/>
</g>
<path fill-rule="evenodd" clip-rule="evenodd" d="M423.712 271.505H343.595C343.595 271.505 345.385 300.08 380.961 300.08C398.773 300.08 416.583 294.387 416.583 294.387L420.147 324.912C420.147 324.912 402.352 332.47 377.441 332.47C341.806 332.47 309.766 313.441 309.766 260.092C309.766 218.137 334.677 191.497 370.284 191.497C423.712 191.497 427.291 248.59 423.712 271.505ZM368.536 218.137C345.385 218.137 343.595 244.805 343.595 244.805H393.417C393.417 244.805 391.672 218.137 368.536 218.137Z" fill="#03435F"/>
<mask id="mask20_1059_6954" style="mask-type:luminance" maskUnits="userSpaceOnUse" x="309" y="191" width="116" height="142">
<path d="M309.77 260.087C309.77 218.132 334.681 191.492 370.285 191.492C423.714 191.492 427.292 248.587 423.714 271.499H343.599C343.599 271.499 345.388 300.075 380.963 300.075C398.775 300.075 416.584 294.382 416.584 294.382L420.149 324.907C420.149 324.907 402.354 332.467 377.443 332.467C341.81 332.467 309.77 313.438 309.77 260.087ZM368.538 218.132C345.388 218.132 343.599 244.802 343.599 244.802H393.421C393.421 244.802 391.673 218.132 368.538 218.132Z" fill="white"/>
</mask>
<g mask="url(#mask20_1059_6954)">
<path fill-rule="evenodd" clip-rule="evenodd" d="M-1717.67 707.035L3300.68 707.035V-6402.29H-1717.67L-1717.67 707.035Z" fill="#03435F"/>
</g>
<mask id="mask21_1059_6954" style="mask-type:luminance" maskUnits="userSpaceOnUse" x="309" y="191" width="116" height="142">
<path d="M309.77 260.087C309.77 218.132 334.681 191.492 370.285 191.492C423.714 191.492 427.292 248.587 423.714 271.499H343.599C343.599 271.499 345.388 300.075 380.963 300.075C398.775 300.075 416.584 294.382 416.584 294.382L420.149 324.907C420.149 324.907 402.354 332.467 377.443 332.467C341.81 332.467 309.77 313.438 309.77 260.087ZM368.538 218.132C345.388 218.132 343.599 244.802 343.599 244.802H393.421C393.421 244.802 391.673 218.132 368.538 218.132Z" fill="white"/>
</mask>
<g mask="url(#mask21_1059_6954)">
<path fill-rule="evenodd" clip-rule="evenodd" d="M250.027 392.209H484.453V131.75H250.027L250.027 392.209Z" fill="#03435F"/>
</g>
<mask id="mask22_1059_6954" style="mask-type:luminance" maskUnits="userSpaceOnUse" x="1299" y="128" width="234" height="303">
<path d="M1299.23 154.258C1299.23 146.129 1401.64 128.584 1470.32 128.584C1500.1 128.584 1523.54 131.884 1529.53 140.679C1560.46 181.515 1342.76 437.709 1324.62 429.937C1310.07 426.051 1440.68 262.983 1418.91 196.958C1408.04 162.044 1299.23 165.927 1299.23 154.258Z" fill="white"/>
</mask>
<g mask="url(#mask22_1059_6954)">
<path fill-rule="evenodd" clip-rule="evenodd" d="M1239.5 489.854H1592.28V68.8422H1239.5V489.854Z" fill="#ED342B"/>
</g>
<mask id="mask23_1059_6954" style="mask-type:luminance" maskUnits="userSpaceOnUse" x="1484" y="2" width="95" height="102">
<path d="M1484.2 53.3203C1484.2 25.4335 1505.32 2.86578 1531.35 2.86578C1557.4 2.86578 1578.49 25.4335 1578.49 53.3203C1578.49 81.2213 1557.4 103.789 1531.35 103.789C1505.32 103.789 1484.2 81.2213 1484.2 53.3203Z" fill="white"/>
</mask>
<g mask="url(#mask23_1059_6954)">
<path fill-rule="evenodd" clip-rule="evenodd" d="M1424.46 163.533H1638.23V-56.8788H1424.46V163.533Z" fill="#ED342B"/>
</g>
</svg>
