<svg width="853" height="176" viewBox="0 0 853 176" fill="none" xmlns="http://www.w3.org/2000/svg">
<g clip-path="url(#clip0_1059_7609)">
<path d="M357.382 38.0347C341.985 38.0347 324.473 45.1719 313.773 59.4636L313.78 59.4343L313.773 59.4412L313.78 40.2794H277.055V174.019H313.773V97.9182C313.773 84.2226 324.394 69.6638 344.055 69.6638C359.25 69.6638 374.975 80.2327 374.975 97.9182V174.019H411.7V91.1134C411.7 60.3543 389.692 38.0347 357.382 38.0347ZM672.714 40.2846L639.514 131.385L606.314 40.2846H564.362L619.389 173.981H659.632L714.659 40.2846H672.714ZM167.418 80.5738C173.671 72.1756 183.634 67.2469 195.665 67.2469C208.899 67.2469 218.939 74.8044 224.132 85.9591L159.969 112.579C158.217 98.9174 161.712 88.2331 167.418 80.5738ZM237.972 132.9C222.516 144.339 213.685 147.067 199.59 147.067C186.905 147.067 176.974 143.129 169.973 136.223L263.861 97.2756C261.811 82.76 256.302 69.7948 247.826 59.9339C235.489 45.6078 217.23 38.0278 195 38.0278C154.62 38.0278 124.169 67.8188 124.169 107.164C124.169 147.531 154.69 176.293 199.047 176.293C223.899 176.293 249.309 164.515 261.196 150.752L237.972 132.9ZM120.668 140.297H37.2009V0.28125H-0.0253906V174.018H120.668V140.297ZM780.603 69.4985C760.094 69.4985 745.201 85.0408 745.201 107.15C745.201 128.26 760.976 144.802 781.096 144.802C801.612 144.802 816.496 128.832 816.496 107.15C816.496 86.04 800.728 69.4985 780.603 69.4985ZM780.603 176.273C740.44 176.273 708.969 146.351 708.969 107.15C708.969 68.3907 740.657 38.0295 781.096 38.0295C821.259 38.0295 852.721 67.9497 852.721 107.15C852.721 145.903 821.041 176.273 780.603 176.273ZM497.855 69.4985C477.346 69.4985 462.461 85.0408 462.461 107.15C462.461 128.26 478.229 144.802 498.354 144.802C518.863 144.802 533.748 128.832 533.748 107.15C533.748 86.04 517.98 69.4985 497.855 69.4985ZM497.855 176.273C457.691 176.273 426.229 146.351 426.229 107.15C426.229 68.3907 457.908 38.0295 498.354 38.0295C538.511 38.0295 569.98 67.9497 569.98 107.15C569.98 145.903 538.294 176.273 497.855 176.273Z" fill="#E60012"/>
</g>
<defs>
<clipPath id="clip0_1059_7609">
<rect width="852.676" height="175.524" fill="white" transform="translate(0.162109 0.273438)"/>
</clipPath>
</defs>
</svg>
