<svg width="520" height="107" viewBox="0 0 520 107" fill="none" xmlns="http://www.w3.org/2000/svg">
<g clip-path="url(#clip0_37_164)">
<path d="M217.945 23.4741C208.556 23.4741 197.877 27.7387 191.353 36.2771L191.357 36.2606L191.353 36.2647L191.357 24.8143H168.962V104.725H191.353V59.2551C191.353 51.0718 197.828 42.3718 209.818 42.3718C219.084 42.3718 228.673 48.6879 228.673 59.2551V104.725H251.068V55.1892C251.068 36.8093 237.647 23.4741 217.945 23.4741ZM410.233 24.8185L389.987 79.2511L369.742 24.8185H344.16L377.715 104.704H402.255L435.81 24.8185H410.233ZM102.106 48.8917C105.919 43.8736 111.994 40.9277 119.331 40.9277C127.401 40.9277 133.523 45.4434 136.689 52.1094L97.5636 68.0148C96.4952 59.8521 98.6267 53.4681 102.106 48.8917ZM145.129 80.1569C135.704 86.9917 130.319 88.6222 121.724 88.6222C113.989 88.6222 107.933 86.2691 103.664 82.1425L160.916 58.8701C159.666 50.1979 156.307 42.4501 151.138 36.5591C143.616 27.9991 132.481 23.47 118.925 23.47C94.3007 23.47 75.733 41.2694 75.733 64.7795C75.733 88.8991 94.3448 106.084 121.393 106.084C136.548 106.084 152.043 99.0463 159.291 90.8239L145.129 80.1569ZM73.5984 84.5769H22.7004V0.916138H0V104.725H73.5984V84.5769ZM476.023 42.274C463.516 42.274 454.435 51.5607 454.435 64.7713C454.435 77.3849 464.054 87.2686 476.323 87.2686C488.834 87.2686 497.91 77.7266 497.91 64.7713C497.91 52.1578 488.295 42.274 476.023 42.274ZM476.023 106.073C451.531 106.073 432.341 88.194 432.341 64.7713C432.341 41.6111 451.664 23.47 476.323 23.47C500.815 23.47 520 41.3476 520 64.7713C520 87.9263 500.681 106.073 476.023 106.073ZM303.604 42.274C291.098 42.274 282.022 51.5607 282.022 64.7713C282.022 77.3849 291.637 87.2686 303.909 87.2686C316.415 87.2686 325.492 77.7266 325.492 64.7713C325.492 52.1578 315.876 42.274 303.604 42.274ZM303.604 106.073C279.113 106.073 259.928 88.194 259.928 64.7713C259.928 41.6111 279.245 23.47 303.909 23.47C328.396 23.47 347.586 41.3476 347.586 64.7713C347.586 87.9263 328.264 106.073 303.604 106.073Z" fill="#E60012"/>
</g>
<defs>
<clipPath id="clip0_37_164">
<rect width="520" height="107" fill="white"/>
</clipPath>
</defs>
</svg>
