<svg width="1815" height="324" viewBox="0 0 1815 324" fill="none" xmlns="http://www.w3.org/2000/svg">
<g clip-path="url(#clip0_1057_6149)">
<mask id="mask0_1057_6149" style="mask-type:luminance" maskUnits="userSpaceOnUse" x="1678" y="8" width="137" height="267">
<path d="M1678.9 8.69336H1815V274.475H1678.9V8.69336Z" fill="white"/>
</mask>
<g mask="url(#mask0_1057_6149)">
<path d="M1730.45 9.7627C1836.63 83.4448 1792.21 253.567 1679.52 271.988C1823.63 271.988 1871.31 74.7793 1730.45 9.7627Z" fill="#FFCD39"/>
</g>
<path d="M1617.76 8.68334C1743.45 -9.73718 1795.46 145.213 1740.19 216.726C1831.22 125.713 1758.62 -36.8232 1617.76 8.68334Z" fill="#107DB9"/>
<path d="M1544.07 83.4446C1605.83 -8.658 1734.78 47.6932 1747.78 140.875C1762.95 27.1037 1611.25 -36.8233 1544.07 83.4446Z" fill="#0FA45B"/>
<path d="M1540.83 152.8C1555.99 57.4386 1679.52 47.6939 1725.03 114.869C1688.19 19.5183 1542.99 31.4423 1540.83 152.8Z" fill="#CD2A40"/>
<mask id="mask1_1057_6149" style="mask-type:luminance" maskUnits="userSpaceOnUse" x="0" y="92" width="1679" height="233">
<path d="M0 92.9014H1678.9V324.001H0V92.9014Z" fill="white"/>
</mask>
<g mask="url(#mask1_1057_6149)">
<path d="M1589.58 193.968C1590.67 187.472 1592.83 180.975 1596.09 176.637C1599.34 172.299 1603.66 167.972 1609.09 165.803C1614.51 163.634 1619.93 162.555 1625.34 162.555C1630.76 162.555 1635.09 163.634 1640.51 165.803C1644.84 167.972 1648.09 172.299 1651.35 176.637C1654.6 180.975 1655.68 187.472 1655.68 195.058L1589.58 193.968ZM1563.58 209.141C1563.58 218.896 1565.74 227.561 1567.91 235.147C1571.16 242.733 1575.5 250.319 1580.92 255.737C1587.41 262.233 1593.92 266.571 1601.51 269.819C1610.17 273.078 1618.84 275.236 1628.59 275.236C1635.09 275.236 1640.51 275.236 1644.84 273.078C1650.26 271.988 1654.6 269.819 1657.85 268.74C1661.1 266.571 1665.43 265.492 1667.6 263.323C1670.85 261.154 1673.02 260.074 1674.1 258.985C1675.19 257.906 1676.27 256.816 1676.27 256.816L1666.51 239.485C1666.51 239.485 1666.51 239.485 1664.35 240.564C1662.18 241.654 1661.1 242.733 1658.93 243.813C1656.77 244.902 1654.6 247.071 1651.35 248.15C1648.09 249.23 1644.84 251.399 1641.6 251.399C1638.35 252.488 1634.01 252.488 1629.67 252.488C1624.25 252.488 1618.84 251.399 1613.42 249.23C1608 247.071 1603.66 244.902 1600.42 241.654C1596.09 238.395 1593.92 234.068 1590.67 228.651C1588.5 223.233 1587.41 217.816 1586.33 210.23H1677.35C1677.35 210.23 1677.35 209.141 1677.35 208.061C1677.35 206.972 1677.35 204.813 1677.35 203.723C1677.35 202.644 1677.35 200.475 1677.35 199.396C1677.35 190.72 1676.27 183.134 1674.1 176.637C1671.93 170.131 1668.68 163.634 1664.35 158.217C1660.02 152.8 1654.6 148.462 1647.01 145.214C1640.51 141.965 1632.93 140.876 1623.17 140.876C1614.51 140.876 1605.83 141.965 1598.25 145.214C1590.67 148.462 1584.16 152.8 1578.75 158.217C1573.33 163.634 1568.99 171.22 1565.74 178.806C1564.66 189.641 1563.58 199.396 1563.58 209.141ZM1422.72 271.988H1446.56V213.478C1446.56 210.23 1446.56 206.972 1446.56 204.813C1446.56 201.554 1447.63 199.396 1447.63 197.227C1449.8 190.72 1451.97 185.303 1456.3 180.975C1459.56 176.637 1464.98 172.299 1470.39 170.131C1475.81 166.882 1481.23 166.882 1487.72 166.882C1493.14 166.882 1497.48 167.972 1499.65 169.051C1502.9 170.131 1505.07 172.299 1507.23 175.548C1509.4 178.806 1510.48 182.055 1510.48 185.303C1510.48 188.551 1511.56 192.889 1511.56 198.306V273.078H1535.41V192.889C1535.41 176.637 1532.15 164.713 1524.57 157.127C1518.07 149.551 1506.14 145.214 1492.06 145.214C1485.57 145.214 1479.06 146.293 1473.64 148.462C1468.22 150.631 1463.89 152.8 1459.56 156.048C1456.3 159.296 1453.05 162.555 1449.8 165.803C1447.63 169.051 1445.47 172.299 1444.39 175.548C1444.39 175.548 1444.39 175.548 1444.39 174.468C1444.39 173.389 1444.39 172.299 1444.39 171.22C1444.39 170.131 1444.39 167.972 1444.39 166.882V150.631H1421.63L1422.72 271.988ZM1360.95 271.988H1384.79V146.293H1360.95V271.988ZM1360.95 121.376H1384.79V96.4485H1360.95V121.376ZM1266.68 249.23C1259.1 249.23 1252.6 247.071 1247.18 243.813C1241.76 240.564 1237.42 235.147 1234.17 228.651C1230.93 222.144 1229.84 214.558 1229.84 205.892C1229.84 197.227 1230.93 189.641 1234.17 183.134C1237.42 176.637 1240.68 172.299 1246.1 169.051C1251.52 165.803 1256.93 163.634 1264.52 163.634C1269.94 163.634 1274.26 163.634 1278.6 165.803C1282.94 166.882 1286.19 169.051 1289.44 172.299C1292.68 175.548 1294.85 179.886 1297.02 185.303C1299.19 190.72 1300.27 197.227 1300.27 205.892C1300.27 214.558 1299.19 221.065 1297.02 226.482C1294.85 231.899 1292.68 236.237 1289.44 239.485C1286.19 242.733 1282.94 244.902 1278.6 245.982C1275.35 248.15 1271.02 249.23 1266.68 249.23ZM1225.51 294.747L1217.92 314.246C1222.26 316.415 1226.59 317.495 1230.93 319.664C1235.25 320.753 1240.68 322.912 1246.1 322.912C1251.52 324.001 1255.84 324.001 1261.26 324.001C1267.77 324.001 1274.26 324.001 1279.68 321.833C1286.19 320.753 1291.61 318.584 1297.02 315.336C1302.44 312.077 1306.78 308.829 1311.11 304.491C1315.44 300.164 1318.69 294.747 1320.86 288.24C1323.03 281.743 1324.11 275.236 1324.11 266.571V147.382H1301.36V159.296C1301.36 160.386 1301.36 161.465 1301.36 162.555C1301.36 163.634 1301.36 163.634 1301.36 163.634C1301.36 163.634 1301.36 162.555 1300.27 161.465C1299.19 160.386 1298.1 158.217 1295.94 157.127C1293.77 154.969 1291.61 153.879 1288.36 151.71C1285.1 149.551 1281.85 148.462 1277.52 147.382C1273.18 146.293 1267.77 145.214 1261.26 145.214C1252.6 145.214 1245.01 146.293 1238.51 149.551C1232.01 152.8 1225.51 157.127 1221.17 162.555C1216.83 167.972 1212.51 174.468 1210.34 182.055C1208.17 189.641 1207.09 198.306 1207.09 206.972C1207.09 216.727 1208.17 224.313 1210.34 232.978C1212.51 240.564 1216.83 247.071 1221.17 253.568C1225.51 260.074 1232.01 263.323 1238.51 266.571C1245.01 269.819 1253.67 271.988 1262.35 271.988C1271.02 271.988 1278.6 269.819 1285.1 266.571C1291.61 263.323 1295.94 257.906 1299.19 252.488C1299.19 252.488 1299.19 252.488 1299.19 253.568C1299.19 254.657 1299.19 255.737 1299.19 256.816C1299.19 257.906 1299.19 258.985 1299.19 260.074V269.819C1299.19 276.326 1298.1 281.743 1295.94 286.071C1293.77 290.409 1290.52 293.657 1287.27 296.916C1284.02 300.164 1279.68 301.243 1274.26 303.412C1268.85 305.581 1264.52 305.581 1259.1 305.581C1254.76 305.581 1249.35 305.581 1246.1 304.491C1241.76 303.412 1238.51 302.333 1235.25 301.243C1232.01 300.164 1229.84 299.074 1227.68 297.995C1226.59 294.747 1225.51 294.747 1225.51 294.747ZM1065.14 271.988H1088.98V213.478C1088.98 210.23 1088.98 206.972 1088.98 204.813C1088.98 201.554 1090.06 199.396 1090.06 197.227C1092.23 190.72 1094.4 185.303 1098.73 180.975C1101.98 176.637 1107.4 172.299 1112.82 170.131C1118.23 166.882 1123.65 166.882 1130.16 166.882C1135.58 166.882 1139.9 167.972 1142.07 169.051C1145.32 170.131 1147.49 172.299 1149.66 175.548C1151.83 178.806 1152.91 182.055 1152.91 185.303C1152.91 188.551 1154 192.889 1154 198.306V273.078H1177.83V192.889C1177.83 176.637 1174.58 164.713 1167 157.127C1160.49 149.551 1148.58 145.214 1134.49 145.214C1127.99 145.214 1121.48 146.293 1116.07 148.462C1110.65 150.631 1106.31 152.8 1101.98 156.048C1098.73 159.296 1095.48 162.555 1092.23 165.803C1090.06 169.051 1087.89 172.299 1086.81 175.548C1086.81 175.548 1086.81 175.548 1086.81 174.468C1086.81 173.389 1086.81 172.299 1086.81 171.22C1086.81 170.131 1086.81 167.972 1086.81 166.882V150.631H1064.05L1065.14 271.988ZM927.533 271.988H1033.72V250.319H952.45V193.968H1015.3V172.299H952.45V118.128H1029.38V96.4485H927.533V271.988ZM808.334 192.889C809.424 187.472 811.582 183.134 813.751 178.806C817.01 175.548 820.258 172.299 823.506 170.131C827.844 167.972 832.172 166.882 837.589 166.882C841.927 166.882 846.265 167.972 850.592 170.131C853.851 172.299 857.099 175.548 859.268 178.806C861.427 182.055 862.516 187.472 862.516 192.889H808.334ZM775.831 209.141C775.831 218.896 776.91 226.482 780.169 235.147C783.417 242.733 787.744 250.319 793.162 255.737C799.668 262.233 806.165 266.571 814.841 269.819C823.506 273.078 832.172 275.236 843.006 275.236C849.513 275.236 854.93 275.236 860.347 273.078C865.764 271.988 870.102 269.819 874.43 268.74C878.768 266.571 882.016 265.492 885.264 263.323C888.523 261.154 890.692 260.074 891.771 258.985C892.85 257.906 893.94 256.816 893.94 256.816L882.016 234.068C882.016 234.068 882.016 234.068 879.847 235.147C878.768 236.237 876.599 237.316 874.43 238.395C872.271 239.485 870.102 241.654 866.844 242.733C863.596 243.813 860.347 244.902 857.099 245.982C853.851 247.071 849.513 247.071 845.175 247.071C840.847 247.071 835.43 245.982 832.172 244.902C827.844 243.813 823.506 241.654 820.258 238.395C817.01 235.147 813.751 231.899 811.582 227.561C809.424 223.233 808.334 217.816 807.255 213.478H893.94C893.94 213.478 893.94 213.478 893.94 212.389C893.94 211.309 893.94 210.23 893.94 209.141C893.94 208.061 893.94 205.892 893.94 204.813C893.94 203.723 893.94 202.644 893.94 201.554C893.94 192.889 892.85 185.303 890.692 177.717C888.523 170.131 884.185 164.713 879.847 158.217C875.52 152.8 869.013 148.462 862.516 145.214C856.009 141.965 847.344 140.876 838.678 140.876C828.923 140.876 820.258 143.045 812.672 146.293C805.086 149.551 798.589 153.879 792.082 159.296C786.665 165.803 782.327 172.299 779.079 179.886C776.91 189.641 775.831 198.306 775.831 209.141ZM690.225 242.733C683.728 242.733 677.221 240.564 672.894 237.316C668.556 234.068 664.218 229.73 662.059 224.313C659.89 218.896 658.801 211.309 658.801 204.813C658.801 198.306 659.89 191.81 662.059 186.392C664.218 180.975 667.477 176.637 671.804 174.468C676.142 171.22 681.559 170.131 688.066 170.131C692.394 170.131 696.732 170.131 699.98 172.299C703.228 173.389 706.487 175.548 709.735 177.717C712.983 180.975 715.152 184.223 716.231 188.551C717.321 192.889 718.4 199.396 718.4 205.892C718.4 212.389 717.321 218.896 716.231 223.233C715.152 227.561 712.983 231.899 709.735 235.147C706.487 238.395 703.228 240.564 699.98 241.654C696.732 241.654 693.483 242.733 690.225 242.733ZM647.966 288.24L638.222 313.167C642.549 315.336 646.887 317.495 651.225 318.584C656.642 319.664 660.97 321.833 666.387 321.833C671.804 322.912 677.221 322.912 682.639 322.912C689.145 322.912 695.642 322.912 702.149 320.753C708.645 319.664 715.152 317.495 720.569 314.246C725.986 310.998 731.404 307.75 735.741 302.333C740.069 297.995 743.328 292.578 745.486 286.071C747.655 279.574 748.745 271.988 748.745 263.323V145.214H719.48V154.969C719.48 156.048 719.48 157.127 719.48 157.127V158.217H718.4C718.4 158.217 718.4 158.217 717.321 156.048C716.231 154.969 715.152 153.879 712.983 151.71C710.814 150.631 708.645 148.462 706.487 147.382C703.228 146.293 699.98 144.134 695.642 143.045C691.314 141.965 686.976 140.876 681.559 140.876C671.804 140.876 664.218 143.045 657.722 146.293C651.225 149.551 644.718 153.879 640.38 159.296C636.053 164.713 631.715 172.299 629.546 178.806C627.377 186.392 626.298 195.058 626.298 203.723C626.298 212.389 627.377 221.065 629.546 228.651C631.715 236.237 636.053 242.733 640.38 249.23C644.718 255.737 651.225 260.074 657.722 263.323C664.218 266.571 672.894 268.74 681.559 268.74C690.225 268.74 696.732 267.65 703.228 264.402C708.645 261.154 712.983 257.906 717.321 251.399C717.321 251.399 717.321 251.399 717.321 252.488C717.321 253.568 717.321 253.568 717.321 255.737C717.321 257.906 717.321 257.906 717.321 258.985V266.571C717.321 271.988 716.231 276.326 714.062 280.654C711.904 283.912 709.735 287.16 706.487 290.409C703.228 292.578 699.98 294.747 695.642 295.826C691.314 296.916 686.976 296.916 681.559 296.916C677.221 296.916 671.804 296.916 668.556 295.826C664.218 294.747 660.97 293.657 657.722 292.578C654.473 291.498 652.304 290.409 650.135 289.329C647.966 289.329 647.966 288.24 647.966 288.24ZM523.361 234.068C523.361 230.809 524.44 227.561 526.609 225.392C528.778 223.233 530.947 221.065 534.195 219.975C537.443 218.896 540.702 216.727 543.95 216.727C547.198 215.647 551.536 215.647 554.785 215.647C558.033 215.647 562.371 215.647 565.619 215.647H571.036V218.896C571.036 222.144 569.957 226.482 568.867 230.809C567.788 234.068 565.619 238.395 562.371 241.654C559.122 244.902 556.953 248.15 552.616 249.23C549.367 251.399 545.029 252.488 540.702 252.488C536.364 252.488 533.116 251.399 529.857 250.319C526.609 249.23 524.44 247.071 523.361 243.813C524.44 239.485 523.361 236.237 523.361 234.068ZM491.937 235.147C491.937 241.654 493.016 247.071 495.185 251.399C497.354 256.816 500.602 260.074 504.94 264.402C509.278 267.65 513.606 270.909 517.943 271.988C523.361 274.157 528.778 275.236 534.195 275.236C539.612 275.236 545.029 274.157 549.367 273.078C553.695 271.988 556.953 269.819 560.202 267.65C563.45 265.492 565.619 263.323 567.788 261.154C569.957 258.985 571.036 256.816 572.115 255.737C573.205 254.657 573.205 253.568 573.205 253.568C573.205 253.568 573.205 254.657 573.205 256.816C573.205 258.985 573.205 260.074 573.205 263.323V273.078H602.46V193.968C602.46 183.134 600.291 174.468 595.963 166.882C591.626 159.296 586.208 153.879 577.543 149.551C569.957 146.293 560.202 143.045 549.367 143.045C542.861 143.045 537.443 143.045 533.116 144.134C527.699 145.214 523.361 146.293 519.023 147.382C514.695 148.462 511.437 150.631 509.278 151.71C506.019 152.8 503.861 154.969 502.771 154.969C501.692 156.048 500.602 156.048 500.602 156.048L512.526 178.806C512.526 178.806 513.606 177.717 515.775 176.637C517.943 175.548 520.112 173.389 523.361 172.299C526.609 171.22 529.857 169.051 534.195 167.972C538.533 166.882 542.861 165.803 547.198 165.803C551.536 165.803 555.864 165.803 560.202 167.972C563.45 169.051 566.698 171.22 568.867 174.468C571.036 177.717 572.115 182.055 572.115 187.472V189.641H567.788C564.54 189.641 560.202 189.641 554.785 189.641C549.367 189.641 545.029 190.72 538.533 191.81C533.116 192.889 527.699 193.968 522.281 196.137C516.854 198.306 512.526 200.475 507.109 203.723C502.771 206.972 499.523 210.23 496.275 215.647C493.016 223.233 491.937 228.651 491.937 235.147ZM349.99 271.988H381.414V214.558C381.414 211.309 381.414 208.061 381.414 205.892C381.414 202.644 382.493 200.475 383.583 197.227C384.662 191.81 387.91 187.472 390.079 184.223C393.338 180.975 396.586 177.717 402.003 174.468C407.42 171.22 411.758 171.22 417.175 171.22C422.593 171.22 426.92 172.299 430.179 174.468C433.427 176.637 435.596 179.886 436.675 183.134C437.755 186.392 438.844 191.81 437.755 196.137V270.909H469.178V189.641C469.178 178.806 467.02 169.051 463.761 162.555C460.513 156.048 455.096 149.551 448.599 146.293C442.092 143.045 434.506 140.876 424.751 140.876C418.255 140.876 412.838 141.965 407.42 144.134C402.003 146.293 397.665 147.382 394.417 150.631C391.169 153.879 387.91 156.048 384.662 159.296C382.493 162.555 380.334 165.803 379.245 167.972C379.245 167.972 379.245 166.882 379.245 164.713C379.245 162.555 379.245 161.465 379.245 158.217V143.045H348.911L349.99 271.988ZM239.467 234.068C239.467 230.809 240.546 227.561 242.715 225.392C244.884 223.233 247.053 221.065 250.301 219.975C253.549 218.896 256.808 216.727 260.056 216.727C263.304 215.647 267.642 215.647 270.891 215.647C274.139 215.647 278.477 215.647 281.725 215.647H287.142V218.896C287.142 222.144 286.063 226.482 284.973 230.809C283.894 235.147 281.725 238.395 278.477 241.654C275.228 244.902 273.06 248.15 268.722 249.23C265.473 251.399 261.136 252.488 256.808 252.488C252.47 252.488 249.222 251.399 245.963 250.319C242.715 249.23 240.546 247.071 239.467 243.813C239.467 239.485 239.467 236.237 239.467 234.068ZM206.964 235.147C206.964 241.654 208.043 247.071 210.212 251.399C212.381 256.816 215.629 260.074 219.967 264.402C224.295 267.65 228.632 270.909 232.97 271.988C238.387 274.157 243.805 275.236 249.222 275.236C254.639 275.236 260.056 274.157 264.394 273.078C268.722 271.988 271.97 269.819 275.228 267.65C278.477 265.492 280.646 263.323 282.815 261.154C284.973 258.985 286.063 256.816 287.142 255.737C288.232 254.657 288.232 253.568 288.232 253.568C288.232 253.568 288.232 254.657 288.232 256.816C288.232 258.985 288.232 260.074 288.232 263.323V273.078H317.487V193.968C317.487 183.134 315.318 174.468 310.98 166.882C306.652 159.296 301.235 153.879 292.559 149.551C284.973 146.293 275.228 143.045 264.394 143.045C257.887 143.045 252.47 143.045 248.132 144.134C242.715 145.214 238.387 146.293 234.05 147.382C229.712 148.462 226.463 150.631 224.295 151.71C221.046 152.8 218.877 154.969 217.798 154.969C216.708 156.048 215.629 156.048 215.629 156.048L227.543 178.806C227.543 178.806 228.632 177.717 230.801 176.637C232.97 175.548 235.129 173.389 238.387 172.299C241.636 171.22 244.884 169.051 249.222 167.972C253.549 166.882 257.887 165.803 262.225 165.803C266.553 165.803 270.891 165.803 275.228 167.972C278.477 169.051 281.725 171.22 283.894 174.468C286.063 177.717 287.142 182.055 287.142 187.472V189.641H282.815C279.556 189.641 275.228 189.641 269.811 189.641C264.394 189.641 260.056 190.72 253.549 191.81C247.053 192.889 242.715 193.968 237.298 196.137C231.881 198.306 227.543 200.475 222.126 203.723C217.798 206.972 214.55 210.23 211.291 215.647C209.122 223.233 208.043 228.651 206.964 235.147ZM0 271.988H32.5032L40.0893 173.389C40.0893 170.131 40.0893 166.882 40.0893 163.634C40.0893 160.386 40.0893 157.127 40.0893 154.969C40.0893 151.71 40.0893 149.551 40.0893 148.462C40.0893 147.382 40.0893 145.214 40.0893 145.214C40.0893 145.214 40.0893 146.293 41.1789 148.462C42.2582 150.631 42.2582 152.8 43.3376 154.969C44.4272 158.217 45.5065 161.465 46.5961 163.634C47.6754 166.882 48.765 170.131 49.8444 172.299L78.0199 240.564H106.185L134.361 172.299C135.44 169.051 136.53 166.882 137.609 163.634C138.699 160.386 139.778 157.127 140.868 154.969C141.947 152.8 143.026 149.551 143.026 148.462C143.026 146.293 144.116 145.214 144.116 145.214C144.116 145.214 144.116 146.293 144.116 148.462C144.116 150.631 144.116 151.71 144.116 154.969C144.116 158.217 144.116 160.386 144.116 163.634C144.116 166.882 144.116 170.131 144.116 173.389L151.702 271.988H183.126L169.033 95.3691H135.44L100.768 182.055C99.6887 185.303 98.5991 187.472 97.5198 190.72C96.4405 193.968 95.3509 196.137 94.2715 199.396C93.1819 202.644 93.1819 203.723 92.1026 205.892C92.1026 208.061 91.0233 208.061 91.0233 209.141C91.0233 209.141 91.0233 208.061 89.9337 205.892C89.9337 203.723 88.8543 202.644 87.7647 199.396C86.6854 196.137 85.6061 193.968 84.5165 190.72C83.4371 187.472 82.3475 185.303 81.2682 182.055L46.5961 95.3691H14.0827L0 271.988Z" fill="black"/>
</g>
</g>
<defs>
<clipPath id="clip0_1057_6149">
<rect width="1815" height="323.201" fill="white" transform="translate(0 0.797852)"/>
</clipPath>
</defs>
</svg>
