<svg width="804" height="171" viewBox="0 0 804 171" fill="none" xmlns="http://www.w3.org/2000/svg">
<g clip-path="url(#clip0_34_57)">
<path d="M283.849 98.4907L279.057 112.012H278.657C277.859 108.963 276.394 104.323 273.998 98.7558L248.304 34.4651H223.143V136.933H239.784V73.7023C239.784 69.7256 239.784 65.2186 239.651 59.6511C239.518 56.8674 239.252 54.7465 239.119 53.1558H239.518C240.317 57.1325 241.249 60.0488 241.914 61.9046L272.8 136.667H284.515L315.134 61.2418C315.8 59.5186 316.466 56.0721 317.131 53.1558H317.531C317.131 60.7116 316.865 67.4721 316.732 71.5814V136.535H334.438V34.2H310.209L283.849 98.4907ZM351.212 63.0977H368.518V136.535H351.212V63.0977ZM359.998 32.079C357.069 32.079 354.673 33.1395 352.676 34.9953C350.679 36.8511 349.614 39.2372 349.614 42.1535C349.614 44.9372 350.679 47.3232 352.676 49.179C354.673 51.0349 357.069 51.9628 359.998 51.9628C362.927 51.9628 365.456 50.9023 367.32 49.179C369.317 47.3232 370.382 44.9372 370.382 42.1535C370.382 39.3697 369.317 36.9837 367.32 34.9953C365.59 33.1395 363.06 32.079 359.998 32.079ZM429.89 62.4349C426.695 61.7721 423.367 61.3744 420.172 61.3744C412.317 61.3744 405.128 63.0977 399.138 66.5442C393.147 69.9907 388.354 74.7628 385.292 80.7279C382.097 86.8256 380.5 93.8511 380.5 101.937C380.5 108.963 382.097 115.193 385.159 120.893C388.221 126.46 392.481 130.967 398.206 134.016C403.664 137.065 410.054 138.656 417.243 138.656C425.497 138.656 432.553 136.933 438.144 133.751L438.277 133.619V117.712L437.612 118.242C435.082 120.098 432.153 121.688 429.225 122.616C426.163 123.677 423.367 124.207 420.971 124.207C414.048 124.207 408.59 122.219 404.729 117.844C400.735 113.602 398.738 107.77 398.738 100.479C398.738 92.9232 400.735 86.9581 404.862 82.5837C408.989 78.2093 414.447 75.9558 421.104 75.9558C426.695 75.9558 432.42 77.8116 437.612 81.5232L438.277 82.0535V65.2186L438.144 65.086C435.881 64.1581 433.351 63.0977 429.89 62.4349ZM487.002 61.9046C482.742 61.9046 478.748 63.2302 475.287 66.0139C472.358 68.4 470.361 71.8465 468.63 75.9558H468.497V63.0977H451.191V136.535H468.497V99.0209C468.497 92.6581 469.828 87.3558 472.757 83.5116C475.686 79.5349 479.414 77.5465 483.94 77.5465C485.537 77.5465 487.135 77.9442 489.132 78.2093C490.996 78.7395 492.327 79.2697 493.259 79.9325L493.924 80.4628V63.2302L493.525 63.0977C492.327 62.3023 489.931 61.9046 487.002 61.9046ZM534.129 61.507C522.014 61.507 512.296 65.086 505.507 72.1116C498.584 79.1372 495.256 88.8139 495.256 101.009C495.256 112.409 498.717 121.688 505.373 128.449C512.03 135.077 521.082 138.523 532.398 138.523C544.247 138.523 553.699 134.944 560.488 127.786C567.411 120.628 570.739 111.084 570.739 99.286C570.739 87.6209 567.544 78.3418 561.021 71.5814C554.764 64.8209 545.578 61.507 534.129 61.507ZM547.974 117.977C544.779 122.086 539.72 124.074 533.463 124.074C527.206 124.074 522.148 122.086 518.553 117.712C514.959 113.602 513.228 107.637 513.228 100.081C513.228 92.2604 515.092 86.2953 518.553 82.0535C522.148 77.8116 527.073 75.6907 533.33 75.6907C539.454 75.6907 544.247 77.679 547.708 81.7884C551.169 85.8977 553.033 91.8628 553.033 99.6837C552.767 107.637 551.302 113.867 547.974 117.977ZM609.346 93.586C603.888 91.3325 600.426 89.6093 598.829 88.1511C597.498 86.8256 596.832 84.9697 596.832 82.5837C596.832 80.5953 597.631 78.607 599.628 77.2814C601.625 75.9558 603.888 75.293 607.216 75.293C610.145 75.293 613.207 75.8232 616.135 76.6186C619.064 77.4139 621.727 78.607 623.857 80.1977L624.523 80.7279V64.5558L624.123 64.4232C622.126 63.6279 619.464 62.8325 616.269 62.1697C613.074 61.6395 610.145 61.3744 607.748 61.3744C599.495 61.3744 592.705 63.3628 587.38 67.7372C582.055 71.8465 579.525 77.4139 579.525 83.9093C579.525 87.3558 580.058 90.4046 581.256 92.9232C582.454 95.4418 584.185 97.8279 586.581 99.8163C588.977 101.672 592.439 103.793 597.231 105.781C601.225 107.505 604.287 108.83 606.151 109.891C608.015 110.951 609.213 112.144 610.145 113.072C610.81 114.133 611.21 115.458 611.21 117.181C611.21 122.086 607.482 124.472 599.894 124.472C596.965 124.472 593.903 123.942 590.309 122.749C586.714 121.556 583.386 119.833 580.59 117.844L579.925 117.314V134.149L580.324 134.281C582.854 135.474 585.916 136.27 589.643 137.198C593.371 137.86 596.699 138.391 599.628 138.391C608.547 138.391 615.869 136.402 621.061 132.028C626.386 127.786 629.182 122.351 629.182 115.326C629.182 110.421 627.851 106.046 624.922 102.733C621.061 99.5511 616.269 96.2372 609.346 93.586ZM674.845 61.507C662.73 61.507 653.012 65.086 646.222 72.1116C639.433 79.1372 635.971 88.8139 635.971 101.009C635.971 112.409 639.433 121.688 646.089 128.449C652.746 135.077 661.798 138.523 673.114 138.523C684.962 138.523 694.414 134.944 701.204 127.786C708.127 120.628 711.455 111.084 711.455 99.286C711.455 87.6209 708.26 78.3418 701.736 71.5814C695.479 64.8209 686.294 61.507 674.845 61.507ZM688.557 117.977C685.362 122.086 680.303 124.074 674.046 124.074C667.656 124.074 662.73 122.086 659.136 117.712C655.541 113.602 653.811 107.637 653.811 100.081C653.811 92.2604 655.674 86.2953 659.136 82.0535C662.73 77.8116 667.656 75.6907 673.913 75.6907C679.904 75.6907 684.829 77.679 688.291 81.7884C691.752 85.8977 693.616 91.8628 693.616 99.6837C693.616 107.637 691.885 113.867 688.557 117.977ZM803.978 77.2814V63.0977H786.539V41.3581L786.006 41.4907L769.498 46.3953L769.099 46.5279V63.0977H743.006V53.8186C743.006 49.5767 744.071 46.2628 745.935 44.1418C747.798 42.0209 750.594 40.9604 754.056 40.9604C756.452 40.9604 758.981 41.4907 761.777 42.6837L762.443 43.0814V28.1023L762.043 27.9697C759.647 27.1744 756.452 26.6442 752.325 26.6442C747.133 26.6442 742.607 27.8372 738.48 29.8256C734.353 32.079 731.291 35.1279 729.028 39.2372C726.764 43.2139 725.566 47.7209 725.566 52.8907V63.0977H713.452V77.1488H725.566V136.535H743.006V77.2814H769.099V115.06C769.099 130.57 776.421 138.391 791.065 138.391C793.461 138.391 795.991 137.993 798.387 137.595C800.916 137.065 802.78 136.402 803.845 135.872L803.978 135.74V121.556L803.313 122.086C802.248 122.749 801.316 123.279 799.718 123.677C798.387 124.074 797.189 124.207 796.257 124.207C792.796 124.207 790.399 123.412 788.669 121.423C787.071 119.567 786.272 116.519 786.272 112.012V77.2814H803.978Z" fill="#737373"/>
<path d="M0.0216522 0H81.6288V81.2581H0.0216522V0Z" fill="#F25022"/>
<path d="M90.149 0H171.756V81.2581H90.149V0Z" fill="#7FBA00"/>
<path d="M0.0216064 89.7418H81.6287V171H0.0216064V89.7418Z" fill="#00A4EF"/>
<path d="M90.149 89.7418H171.756V171H90.149V89.7418Z" fill="#FFB900"/>
</g>
<defs>
<clipPath id="clip0_34_57">
<rect width="804" height="171" fill="white"/>
</clipPath>
</defs>
</svg>
