<svg width="1387" height="267" viewBox="0 0 1387 267" fill="none" xmlns="http://www.w3.org/2000/svg">
<g clip-path="url(#clip0_1057_6051)">
<path d="M483.376 153.701L475.213 174.725H474.533C473.173 169.984 470.679 162.77 466.598 154.113L422.839 54.1449H379.986V213.475H408.328V115.156C408.328 108.973 408.328 101.965 408.101 93.3076C407.874 88.9791 407.421 85.6812 407.194 83.2078H407.874C409.235 89.3913 410.822 93.926 411.955 96.8117L464.557 213.063H484.509L536.658 95.7811C537.791 93.1015 538.925 87.7424 540.059 83.2078H540.739C540.059 94.9566 539.605 105.469 539.378 111.858V212.857H569.534V53.7327H528.269L483.376 153.701ZM598.102 98.6667H627.577V212.857H598.102V98.6667ZM613.066 50.4348C608.078 50.4348 603.997 52.0837 600.596 54.9694C597.195 57.8551 595.381 61.5652 595.381 66.0999C595.381 70.4284 597.195 74.1385 600.596 77.0242C603.997 79.9099 608.078 81.3527 613.066 81.3527C618.054 81.3527 622.362 79.7037 625.536 77.0242C628.937 74.1385 630.751 70.4284 630.751 66.0999C630.751 61.7713 628.937 58.0612 625.536 54.9694C622.589 52.0837 618.281 50.4348 613.066 50.4348ZM732.1 97.6361C726.659 96.6055 720.99 95.9872 715.549 95.9872C702.172 95.9872 689.928 98.6667 679.725 104.026C669.522 109.385 661.36 116.805 656.145 126.081C650.704 135.562 647.983 146.486 647.983 159.06C647.983 169.984 650.704 179.672 655.918 188.535C661.133 197.192 668.389 204.2 678.138 208.941C687.434 213.681 698.317 216.155 710.561 216.155C724.618 216.155 736.635 213.475 746.157 208.528L746.384 208.322V183.588L745.251 184.412C740.943 187.298 735.955 189.772 730.966 191.214C725.752 192.863 720.99 193.688 716.909 193.688C705.119 193.688 695.823 190.596 689.248 183.794C682.446 177.198 679.045 168.129 679.045 156.792C679.045 145.044 682.446 135.768 689.475 128.966C696.503 122.164 705.799 118.66 717.136 118.66C726.659 118.66 736.408 121.546 745.251 127.317L746.384 128.142V101.965L746.157 101.759C742.303 100.316 737.995 98.6667 732.1 97.6361ZM829.368 96.8117C822.112 96.8117 815.311 98.8728 809.415 103.201C804.427 106.912 801.026 112.271 798.079 118.66H797.852V98.6667H768.377V212.857H797.852V154.525C797.852 144.631 800.12 136.387 805.108 130.409C810.096 124.226 816.444 121.134 824.153 121.134C826.874 121.134 829.595 121.752 832.996 122.164C836.17 122.989 838.437 123.813 840.024 124.844L841.158 125.668V98.8728L840.478 98.6667C838.437 97.43 834.356 96.8117 829.368 96.8117ZM909.631 96.1933C888.998 96.1933 872.447 101.759 860.884 112.683C849.094 123.607 843.425 138.654 843.425 157.617C843.425 175.343 849.32 189.772 860.657 200.284C871.993 210.59 887.411 215.949 906.683 215.949C926.862 215.949 942.96 210.383 954.524 199.253C966.314 188.123 971.982 173.282 971.982 154.937C971.982 136.799 966.54 122.37 955.43 111.858C944.774 101.346 929.13 96.1933 909.631 96.1933ZM933.211 184C927.769 190.39 919.153 193.482 908.497 193.482C897.841 193.482 889.225 190.39 883.103 183.588C876.981 177.198 874.034 167.923 874.034 156.174C874.034 144.013 877.208 134.738 883.103 128.142C889.225 121.546 897.614 118.248 908.27 118.248C918.7 118.248 926.862 121.34 932.757 127.73C938.652 134.119 941.827 143.395 941.827 155.556C941.373 167.923 938.879 177.61 933.211 184ZM1037.73 146.074C1028.44 142.57 1022.54 139.891 1019.82 137.623C1017.55 135.562 1016.42 132.676 1016.42 128.966C1016.42 125.874 1017.78 122.783 1021.18 120.721C1024.58 118.66 1028.44 117.63 1034.11 117.63C1039.09 117.63 1044.31 118.454 1049.3 119.691C1054.29 120.928 1058.82 122.783 1062.45 125.256L1063.58 126.081V100.934L1062.9 100.728C1059.5 99.4912 1054.97 98.2545 1049.52 97.2239C1044.08 96.3994 1039.09 95.9872 1035.01 95.9872C1020.96 95.9872 1009.39 99.079 1000.32 105.881C991.254 112.271 986.946 120.928 986.946 131.027C986.946 136.387 987.853 141.127 989.894 145.044C991.934 148.96 994.882 152.67 998.963 155.762C1003.04 158.647 1008.94 161.945 1017.1 165.037C1023.9 167.717 1029.12 169.778 1032.29 171.427C1035.47 173.076 1037.51 174.931 1039.09 176.374C1040.23 178.023 1040.91 180.084 1040.91 182.763C1040.91 190.39 1034.56 194.1 1021.64 194.1C1016.65 194.1 1011.43 193.276 1005.31 191.42C999.19 189.565 993.521 186.886 988.76 183.794L987.626 182.97V209.147L988.307 209.353C992.614 211.208 997.829 212.445 1004.18 213.887C1010.53 214.918 1016.19 215.743 1021.18 215.743C1036.37 215.743 1048.84 212.651 1057.69 205.849C1066.76 199.253 1071.52 190.802 1071.52 179.878C1071.52 172.251 1069.25 165.449 1064.26 160.296C1057.69 155.35 1049.52 150.197 1037.73 146.074ZM1149.29 96.1933C1128.65 96.1933 1112.1 101.759 1100.54 112.683C1088.98 123.607 1083.08 138.654 1083.08 157.617C1083.08 175.343 1088.98 189.772 1100.31 200.284C1111.65 210.59 1127.07 215.949 1146.34 215.949C1166.52 215.949 1182.62 210.383 1194.18 199.253C1205.97 188.123 1211.64 173.282 1211.64 154.937C1211.64 136.799 1206.2 122.37 1195.09 111.858C1184.43 101.346 1168.78 96.1933 1149.29 96.1933ZM1172.64 184C1167.2 190.39 1158.58 193.482 1147.93 193.482C1137.04 193.482 1128.65 190.39 1122.53 183.588C1116.41 177.198 1113.46 167.923 1113.46 156.174C1113.46 144.013 1116.64 134.738 1122.53 128.142C1128.65 121.546 1137.04 118.248 1147.7 118.248C1157.9 118.248 1166.29 121.34 1172.19 127.73C1178.08 134.119 1181.25 143.395 1181.25 155.556C1181.25 167.923 1178.31 177.61 1172.64 184ZM1369.22 120.721V98.6667H1339.51V64.8631L1338.61 65.0693L1310.49 72.6957L1309.81 72.9018V98.6667H1265.37V84.2384C1265.37 77.6425 1267.19 72.4896 1270.36 69.1916C1273.53 65.8937 1278.3 64.2448 1284.19 64.2448C1288.27 64.2448 1292.58 65.0693 1297.34 66.9243L1298.48 67.5427V44.2512L1297.79 44.0451C1293.71 42.8084 1288.27 41.9839 1281.24 41.9839C1272.4 41.9839 1264.69 43.839 1257.66 46.9308C1250.63 50.4348 1245.42 55.1755 1241.57 61.5652C1237.71 67.7488 1235.67 74.7569 1235.67 82.7955V98.6667H1215.04V120.515H1235.67V212.857H1265.37V120.721H1309.81V179.466C1309.81 203.582 1322.28 215.743 1347.22 215.743C1351.3 215.743 1355.61 215.124 1359.69 214.506C1364 213.681 1367.17 212.651 1368.99 211.826L1369.22 211.62V189.565L1368.08 190.39C1366.27 191.42 1364.68 192.245 1361.96 192.863C1359.69 193.482 1357.65 193.688 1356.06 193.688C1350.17 193.688 1346.09 192.451 1343.14 189.359C1340.42 186.474 1339.06 181.733 1339.06 174.725V120.721H1369.22Z" fill="#737373"/>
<path d="M-0.0175781 0.553223H138.969V126.904H-0.0175781V0.553223Z" fill="#F25022"/>
<path d="M153.482 0.553223H292.469V126.904H153.482V0.553223Z" fill="#7FBA00"/>
<path d="M-0.0175781 140.097H138.969V266.448H-0.0175781V140.097Z" fill="#00A4EF"/>
<path d="M153.482 140.097H292.469V266.448H153.482V140.097Z" fill="#FFB900"/>
</g>
<defs>
<clipPath id="clip0_1057_6051">
<rect width="1386.92" height="267" fill="white" transform="translate(0.0410156)"/>
</clipPath>
</defs>
</svg>
