<svg width="1281" height="396" viewBox="0 0 1281 396" fill="none" xmlns="http://www.w3.org/2000/svg">
<g clip-path="url(#clip0_1058_6846)">
<path fill-rule="evenodd" clip-rule="evenodd" d="M206.647 125.309C203.828 91.3437 228.085 65.6832 258.01 62.6236C291.072 59.2439 317.712 84.2156 320.597 113.707C323.867 147.154 299.001 173.482 269.577 176.521C236.408 179.949 209.084 154.662 206.646 125.309H206.647ZM0.730469 193.901C0.730469 215.638 1.81552 224.024 6.04323 243.777C10.7278 265.661 22.9991 292.299 35.4226 309.795C51.1775 331.982 73.2142 353.732 96.9537 367.311C102.339 370.392 107.114 372.823 112.944 375.761C154.281 396.597 201.596 399.697 246.514 389.227C262.071 385.6 282.964 376.628 296.719 368.474C299.692 366.711 301.348 365.896 304.112 364.041C311.921 358.794 317.103 355.576 324.591 349.042C327.121 346.834 328.407 345.998 330.878 343.502C333.079 341.28 334.545 339.854 336.89 337.688L339.57 334.85C349.306 324.209 349.64 324.148 358.669 312.162L368.097 297.939C377.348 281.836 383.902 266.627 388.905 247.79C400.548 203.931 395.721 153.686 376.285 113.211C369.289 98.6379 358.848 82.2185 348.235 70.3055C329.428 49.1963 307.509 30.2937 281.177 19.1022C246.062 4.17633 231.765 0.741211 189.949 0.741211C172.386 0.741211 147.148 5.81516 130.583 12.3306C100.538 24.1468 79.901 37.0739 57.6947 59.2802C44.0044 72.9688 31.5393 89.6685 22.8122 107.182C10.1844 132.524 0.730469 159.461 0.730469 193.902L0.730469 193.901Z" fill="#DB1D1D"/>
<path fill-rule="evenodd" clip-rule="evenodd" d="M1221.97 312.951C1205.99 312.951 1195.96 301.85 1195.96 287.722C1195.96 276.636 1195.88 271.124 1203.03 261.682C1211.86 250.015 1233.57 248.125 1242.03 260.568C1252.09 275.354 1249.11 312.951 1221.97 312.951ZM1162.84 282.992C1162.84 297.557 1163.21 307.37 1172.52 319.834C1189.23 342.21 1228.46 349.693 1246.93 325.288C1248.1 323.74 1247.27 324.825 1247.99 323.989C1247.99 331.807 1251.99 346.963 1241.92 357.335C1228.84 370.788 1195.82 367.064 1181.31 357.554C1178.81 355.912 1176.49 353.069 1173.88 352.37C1173.88 358.39 1172.89 366.986 1174.33 372.416C1177.97 386.11 1198.02 394.944 1213.3 394.944C1230.58 394.944 1247.29 392.473 1259.23 381.737C1286.26 357.418 1279.53 336.032 1279.53 301.912C1279.53 283.108 1280.66 269.089 1275.15 255.041C1258.85 213.409 1201.61 215.105 1176.78 245.685C1169.91 254.153 1162.84 268.073 1162.84 282.991L1162.84 282.992Z" fill="#666666"/>
<path fill-rule="evenodd" clip-rule="evenodd" d="M452.488 239.629C452.488 252.421 455.146 260.072 462.927 267.823C486.291 291.1 533.695 281.946 533.695 305.066C533.695 321.544 524.953 326.253 508.488 327.165C504.97 327.36 505.424 327.936 502.158 327.936C492.327 327.936 480.277 324.131 472.298 320.736C468.314 319.04 462.53 314.789 459.012 311.808C455.041 308.444 455.641 309.806 455.641 318.469C455.641 331.813 458.372 342.618 470.079 348.969C487.952 358.667 511.534 359.105 530.833 353.451C538.437 351.223 543.812 347.71 549.359 343.594C568.886 329.108 581.181 279.713 534.801 263.749C525.301 260.48 514.931 259.127 505.401 256.093C498.155 253.786 484.813 249.126 484.813 239.627C484.813 212.473 528.237 216.292 544.859 222.943C548.251 224.3 551.153 225.987 553.984 228.01C559.037 231.62 558.896 233.259 562.078 234.108C562.078 226.968 562.964 218.028 561.144 212.179C551.942 182.628 492.124 183.227 470.808 203.545L467.547 206.593C466.388 207.801 465.294 208.958 464.126 210.268C457.936 217.206 452.486 229.299 452.486 239.627L452.488 239.629Z" fill="#666666"/>
<path fill-rule="evenodd" clip-rule="evenodd" d="M206.646 125.308C209.082 154.662 236.406 179.948 269.577 176.52C298.999 173.481 323.867 147.153 320.597 113.707C317.712 84.2131 291.072 59.2431 258.01 62.6229C228.084 65.6825 203.827 91.3429 206.647 125.308H206.646Z" fill="#FFFEFE"/>
<path fill-rule="evenodd" clip-rule="evenodd" d="M712.665 281.414H703.204C703.204 264.662 712.734 250.665 727.644 250.665C741.103 250.665 753.661 252.879 753.661 270.376C753.661 281.962 731.076 280.273 725.734 281.081C721.599 281.706 716.979 281.414 712.665 281.414ZM670.09 290.874C670.09 313.856 678.943 332.584 696.886 345.284C698.879 346.695 699.194 347.198 701.605 348.448C717.822 356.856 734.106 359.347 752.543 355.197C763.534 352.722 773.348 348.462 777.553 337.632C779.574 332.428 778.889 324.521 778.889 317.679C776.013 318.447 773.372 322.232 763.582 326.023C753.595 329.891 744.706 329.504 733.95 329.504C726.296 329.504 718.568 325.506 713.883 321.976C709.589 318.74 706.637 314.655 704.874 309.697C704.145 307.649 704.047 306.034 703.202 304.274C728.535 304.274 783.62 308.291 783.62 275.891C783.62 256.348 777.949 243.892 764.371 233.644C741.444 216.338 704.644 220.649 683.823 247.05C675.981 256.996 670.09 273.389 670.09 290.871V290.874Z" fill="#666666"/>
<path fill-rule="evenodd" clip-rule="evenodd" d="M1031.18 273.53V335.814C1031.18 346.102 1042.13 353.946 1050.89 353.946H1062.72V280.625C1062.72 266.314 1070.99 252.243 1081.64 252.243C1093.1 252.243 1104.85 252.244 1109.53 268.496C1114.11 284.367 1109.5 328.308 1112.05 338.508C1116.14 354.781 1132.01 353.946 1143.13 353.946V277.47C1143.13 262.527 1137.71 248.785 1127.96 239.032C1118.72 229.792 1107.11 224.171 1089.3 223.517C1072.99 222.917 1057.98 228.875 1048.75 236.702C1040.52 243.683 1031.18 258.716 1031.18 273.528V273.53Z" fill="#666666"/>
<path fill-rule="evenodd" clip-rule="evenodd" d="M587.306 230.957V306.644C587.306 362.62 642.625 360.672 656.834 349.366C664.096 343.588 663.782 334.425 663.782 324.777C663.782 321.371 661.489 322.742 659.617 323.628C649.916 328.224 619.631 332.795 619.631 308.219V254.607C633.678 254.607 650.765 256.962 658.849 249.673C664.876 244.238 663.782 234.503 663.782 226.224H619.631V199.418C619.631 194.36 607.362 197.963 603.793 200.138C600.389 202.211 598.012 204.413 595.511 207.625C590.421 214.157 587.305 219.692 587.305 230.956L587.306 230.957Z" fill="#676767"/>
<path fill-rule="evenodd" clip-rule="evenodd" d="M888.479 319.258C888.479 356.483 932.606 360.666 944.266 351.392C951.37 345.744 949.975 338.013 949.975 328.719C939.467 328.719 926.917 330.468 922.079 321.135C918.448 314.134 920.016 264.505 920.016 254.608C920.016 239.366 919.981 224.121 920.016 208.879C920.037 199.632 919.608 195.875 915.433 190.595C909.079 182.555 897.624 183.651 888.479 183.651V319.256V319.258Z" fill="#666666"/>
<path fill-rule="evenodd" clip-rule="evenodd" d="M801.756 274.32V333.451C801.756 355.574 821.811 353.949 834.081 353.949V279.839C834.081 269.063 836.605 260.17 845.597 255.876C857.389 250.247 871.931 257.435 875.866 257.762C875.866 251.482 876.313 245.067 874.722 239.984C873.326 235.521 869.73 231.121 866.014 228.983C848.657 219.002 801.756 225.349 801.756 274.32Z" fill="#666666"/>
<path fill-rule="evenodd" clip-rule="evenodd" d="M961.803 230.957V307.433C961.803 337.407 970.782 355.526 1002.01 355.526C1020.75 355.526 1019.36 339.988 1019.36 328.72C989.443 328.72 994.128 325.982 994.128 274.321C994.128 243.906 997.921 228.593 964.168 228.593C962.351 228.593 961.803 229.141 961.803 230.958V230.957Z" fill="#676767"/>
<path fill-rule="evenodd" clip-rule="evenodd" d="M959.434 197.055C959.434 226.415 996.49 220.936 996.49 200.997V197.055C996.49 187.973 986.996 180.087 978.291 179.834C969.249 179.573 959.434 188.018 959.434 197.055Z" fill="#666666"/>
</g>
<defs>
<clipPath id="clip0_1058_6846">
<rect width="1279.54" height="394.326" fill="white" transform="translate(0.730469 0.742188)"/>
</clipPath>
</defs>
</svg>
