<svg width="304" height="137" viewBox="0 0 304 137" fill="none" xmlns="http://www.w3.org/2000/svg">
<g clip-path="url(#clip0_37_143)">
<path fill-rule="evenodd" clip-rule="evenodd" d="M226.344 67.0123L242.805 67.0082C242.805 53.2225 234.563 40.1799 222.906 33.4356C214.071 28.3242 201.041 26.5829 190.192 30.8823C186.027 32.533 184.503 33.6711 181.077 35.4821V28.6285H163.931V136.923H181.077V98.54C194.413 107.464 208.946 108.612 223.151 100.832C225.627 99.4759 226.333 98.587 228.283 97.0496C230.557 95.2582 231.562 94.8202 233.203 92.3713L229.082 84.152C227.774 81.5445 226.344 78.4705 226.344 74.5507H224.973C221.588 89.0675 197.855 97.1404 185.455 80.4571C173.257 64.0469 188.249 42.4224 205.716 44.4285C216.91 45.7139 226.344 54.4287 226.344 67.0123Z" fill="#005BFF"/>
<path fill-rule="evenodd" clip-rule="evenodd" d="M89.1723 47.1346H94.659C101.15 47.1346 109.951 54.3591 110.433 60.157H72.7117C73.4667 56.9156 76.0678 53.3642 78.3724 51.4212C80.6827 49.4751 85.1884 47.1346 89.1723 47.1346ZM54.1926 68.3821C54.1926 75.0317 55.0723 79.3911 57.8411 84.6134C69.8212 107.212 100.393 112.396 117.488 95.3074C120.189 92.6068 125.212 85.8212 125.523 82.09H109.062C102.711 82.09 106.397 88.2589 89.1723 88.2589C85.9458 88.2589 80.6786 85.7501 78.7419 84.2888C74.199 80.8628 74.19 78.3168 72.7117 75.2365H127.58C127.58 69.9218 129.876 62.334 125.302 52.8371C122.308 46.619 121.959 46.4879 118.106 41.5238C112.936 34.8612 100.803 29.9991 90.5437 29.9991C84.3143 29.9991 79.5754 31.3679 75.4489 33.4203C73.4731 34.4023 71.5807 35.3276 69.8375 36.7224C60.3402 44.3207 54.1926 55.7717 54.1926 68.3821Z" fill="#005BFF"/>
<path fill-rule="evenodd" clip-rule="evenodd" d="M242.805 67.5272L226.344 67.5402C226.344 108.582 285.281 121.78 301.206 81.5072C314.509 47.8658 278.471 14.8153 244.872 34.1205C240.472 36.6486 238.894 39.9055 235.261 42.3365C238.09 46.5592 242.805 53.3415 242.805 60.157H244.177C245.352 46.0426 271.864 37.0413 283.288 53.2865C294.295 68.9374 284.585 90.0123 264.04 89.6584C258.639 89.5655 252.443 86.6599 249.118 83.3206C244.947 79.1312 242.805 73.8514 242.805 67.5272Z" fill="#FF8C1E"/>
<path fill-rule="evenodd" clip-rule="evenodd" d="M0.0100098 14.9205C0.0100098 16.4991 0.487097 16.9767 2.06757 16.9767H25.3862V103.338C25.3862 106.914 32.6478 105.394 42.5331 105.394V16.9767H65.8528C70.0173 16.9767 68.5963 9.74104 68.5963 1.89728C68.5963 0.342217 68.133 -0.143637 66.6118 -0.158936H66.5388H0.0100098V14.9205Z" fill="#005BFF"/>
<path fill-rule="evenodd" clip-rule="evenodd" d="M134.439 22.4598C134.439 50.8553 135.124 77.0142 135.124 105.394H151.585V-0.158936H134.439V22.4598Z" fill="#005BFF"/>
<path fill-rule="evenodd" clip-rule="evenodd" d="M242.805 67.5271V67.0082L226.344 67.0122V67.5401L242.805 67.5271Z" fill="#C38054"/>
</g>
<defs>
<clipPath id="clip0_37_143">
<rect width="304" height="137" fill="white"/>
</clipPath>
</defs>
</svg>
