<svg width="595" height="107" viewBox="0 0 595 107" fill="none" xmlns="http://www.w3.org/2000/svg">
<g clip-path="url(#clip0_37_152)">
<path d="M109.058 2.1843C104.253 -0.425459 98.3539 1.56022 95.8805 6.60954L60.5845 82.4343C59.76 84.0654 59.0492 85.1859 57.1729 85.1859C55.2965 85.1859 54.5715 84.0654 53.7612 82.4343L18.4794 6.59535C16.006 1.54604 10.1068 -0.425459 5.30208 2.17011C0.497387 4.77987 -1.379 10.978 1.09442 16.0132L35.566 86.1929L39.4893 94.164C42.9151 101.156 49.6957 105.497 57.1871 105.497C64.6642 105.497 71.4448 101.156 74.8848 94.164L78.8082 86.1929L113.28 16.0132C115.739 10.9922 113.848 4.79405 109.058 2.1843Z" fill="#00B336"/>
<path d="M577.373 1.0353C570.735 1.00693 564.921 5.1485 562.135 10.8361C553.165 29.0902 526.796 83.3986 526.682 83.583C526.483 83.9234 525.929 85.1857 524.792 85.1857C523.726 85.1857 523.1 83.9943 522.901 83.5688C514.159 65.5417 496.916 29.9412 487.861 11.5169C484.378 4.41096 478.536 1.02112 472.224 1.02112H472.21C462.501 1.02112 454.64 9.20497 454.64 20.339V94.9865C454.64 99.5252 457.242 103.724 461.236 105.043C467.747 107.17 473.333 101.497 473.333 94.7879L471.969 22.0268C471.969 21.2751 472.878 21.0056 473.219 21.658L509.226 94.3766C512.567 101.341 518.367 105.496 524.792 105.496C531.203 105.496 537.003 101.341 540.357 94.3766L576.378 21.6722C576.734 20.9914 577.672 21.2609 577.672 22.0552L576.293 95.2276C576.293 101.014 580.629 105.681 585.931 105.496C591.048 105.326 594.986 100.419 594.986 94.7879C594.986 94.7879 594.986 38.9619 594.986 20.3674C595 9.11987 587.111 1.07785 577.373 1.0353Z" fill="#00B336"/>
<path d="M442.685 90.3344L403.011 12.2403C399.571 5.29041 392.805 0.978638 385.356 0.978638C380.679 0.978638 376.287 2.66647 372.804 5.64499C370.715 7.41793 368.952 9.65891 367.672 12.2545L328.197 89.9798C328.155 90.0649 328.126 90.15 328.084 90.221L328.027 90.3344C326.193 93.9512 326.634 98.2062 328.809 101.298C328.865 101.383 328.922 101.454 328.979 101.539C329.036 101.624 329.107 101.71 329.178 101.795C329.889 102.717 330.742 103.511 331.779 104.135C335.12 106.149 339.072 105.851 342.057 103.78C342.1 103.752 342.142 103.724 342.171 103.695C342.384 103.539 342.597 103.383 342.796 103.213C342.967 103.071 343.123 102.915 343.279 102.759C343.351 102.688 343.422 102.631 343.493 102.561C344.203 101.837 344.815 101 345.298 100.036L346.762 96.9439L355.021 79.6685C355.234 79.2288 355.661 78.9451 356.13 78.9451H392.592C392.592 78.9451 392.592 78.9451 392.606 78.9451C397.481 78.9451 401.448 74.7752 401.448 69.6549C401.448 64.5205 397.481 60.3648 392.606 60.3648H370.729H365.37C364.787 60.3648 364.417 59.7407 364.63 59.1875L366.663 54.89L381.575 24.9061L381.632 24.7785C381.66 24.7217 381.689 24.665 381.717 24.6083C381.959 24.1119 382.755 21.9702 384.205 21.5305C385.001 21.2893 385.839 21.3177 386.408 21.4879C387.915 21.9418 388.597 23.7998 389.251 25.1614L425.414 100.078C427.177 103.539 430.56 105.525 434.057 105.525C435.166 105.525 436.289 105.312 437.383 104.901C437.454 104.872 437.525 104.858 437.582 104.83C437.852 104.716 438.108 104.589 438.364 104.447C438.464 104.404 438.563 104.362 438.648 104.305C438.705 104.277 438.748 104.234 438.805 104.206C438.876 104.163 438.961 104.135 439.032 104.078C439.146 104.007 439.245 103.922 439.359 103.851C439.459 103.78 439.544 103.724 439.629 103.653C439.771 103.539 439.913 103.44 440.056 103.326C440.212 103.199 440.368 103.057 440.525 102.915C440.567 102.873 440.61 102.844 440.638 102.802C443.879 99.6529 444.832 94.5611 442.685 90.3344Z" fill="#00B336"/>
<path d="M135.683 64.5773H202.451C203.716 64.5631 214.05 63.7263 214.05 52.0675C214.065 23.3602 191.818 0 164.482 0C137.161 0 114.929 23.3602 114.929 52.0817C114.929 52.7341 114.971 54.5496 114.971 54.8191C114.929 87.6112 136.052 105.255 163.999 106.887C165.335 106.957 166.643 107 167.922 107C178.669 107 187.738 104.22 197.589 98.0077C198.599 97.3836 202.536 94.7597 206.559 89.5827C209.757 85.4695 210.042 79.2997 206.559 76.0942C201.541 71.4704 196.381 73.9667 191.775 77.8814C184.54 84.0228 178.939 88.8168 164.511 88.831C150.907 88.831 138.042 81.0868 134.986 65.6127C134.872 65.0737 135.185 64.5773 135.683 64.5773ZM134.944 45.3587C136.806 30.3242 147.168 16.9918 164.454 16.9918C181.74 16.9918 192.685 30.0547 194.419 45.3587C194.476 45.9118 194.121 46.4366 193.581 46.4366H135.782C135.242 46.4366 134.872 45.926 134.944 45.3587Z" fill="#00B336"/>
<path d="M245.523 64.5773H312.291C313.556 64.5631 323.89 63.7263 323.89 52.0675C323.89 23.3602 301.644 0 274.322 0C246.987 0 224.754 23.3602 224.754 52.0817C224.754 52.7341 224.797 54.5496 224.797 54.8191C224.754 87.6112 245.878 105.255 273.825 106.887C275.161 106.957 276.469 107 277.748 107C288.495 107 297.564 104.22 307.415 98.0077C308.424 97.3836 312.362 94.7597 316.385 89.5827C319.583 85.4695 319.867 79.2997 316.385 76.0942C311.367 71.4704 306.207 73.9667 301.601 77.8814C294.366 84.0228 288.765 88.8168 274.337 88.831C260.733 88.831 247.868 81.0868 244.812 65.6127C244.698 65.0737 245.011 64.5773 245.523 64.5773ZM244.769 45.3587C246.631 30.3242 256.994 16.9918 274.28 16.9918C291.565 16.9918 302.511 30.0547 304.245 45.3587C304.302 45.9118 303.947 46.4366 303.406 46.4366H245.594C245.068 46.4366 244.698 45.926 244.769 45.3587Z" fill="#00B336"/>
</g>
<defs>
<clipPath id="clip0_37_152">
<rect width="595" height="107" fill="white"/>
</clipPath>
</defs>
</svg>
