<svg width="622" height="157" viewBox="0 0 622 157" fill="none" xmlns="http://www.w3.org/2000/svg">
<g clip-path="url(#clip0_35_108)">
<path fill-rule="evenodd" clip-rule="evenodd" d="M199.378 124.9L215.983 125.21C215.983 113.002 214.458 42.1858 217.139 36.8676C219.988 31.2164 227.636 32.6846 235.162 32.6847C243.254 32.6847 261.223 31.3677 266.438 34.7549C275.817 40.8472 273.362 52.3986 268.173 56.4546C263.842 59.8401 243.554 66.2406 236.182 69.0449C225.937 72.9418 219.422 86.82 227.398 98.0769C231.985 104.551 248.226 110.572 256.034 113.996C261.088 116.211 266.17 118.722 271.38 120.949C276.161 122.992 282.244 126.451 286.841 127.728L286.851 109.774L253.463 94.9332C250.373 93.5163 237.403 90.1038 240.6 85.3352C241.913 83.3762 254.943 79.5621 258.091 78.4948C272.12 73.7381 281.296 70.9184 286.779 58.684C293.19 44.3791 287.552 30.7026 278.839 22.9879C268.907 14.1935 252.822 16.0686 237.128 16.0686C225.164 16.0686 209.05 14.2548 201.836 30.0557C197.767 38.9704 199.377 64.2416 199.377 75.8799C199.377 92.2199 199.364 108.561 199.378 124.9Z" fill="#B0181E"/>
<path fill-rule="evenodd" clip-rule="evenodd" d="M508.407 108.609V125.225C521.525 125.225 534.642 125.225 547.76 125.225C563.509 125.225 570.096 126.396 581.126 118.44C596.824 107.119 597.958 78.3364 576.954 66.3435C561.588 57.5697 534.792 66.8596 525.13 59.1791C516.498 52.3173 517.924 38.2274 528.734 33.8741C537.207 30.4616 576.082 34.8051 587.447 32.356V16.42C581.486 15.0461 556.351 16.0686 548.415 16.0686C534.825 16.0686 523.886 15.1842 514.961 22.7314C508.422 28.2614 501.608 37.349 503.093 50.9714C504.323 62.2531 511.427 70.886 519.049 75.0881C535.869 84.3616 561.63 74.1339 570.689 82.4384C581.78 92.6057 574.322 104.474 567.438 107.376C561.807 109.751 516.426 108.609 508.407 108.609Z" fill="#B0181E"/>
<path fill-rule="evenodd" clip-rule="evenodd" d="M183.054 125.225V108.609C167.657 108.609 152.256 108.575 136.86 108.61C129.055 108.628 123.527 108.077 121.157 101.458C120.069 98.4192 120.206 82.6949 120.873 78.8958L172.255 78.8177V62.4669L120.854 62.4649C120.343 59.182 120.276 43.0034 121.003 40.3647C122.843 33.6866 128.682 32.6562 136.202 32.6817C151.816 32.7347 167.439 32.6847 183.054 32.6847V16.0686C172.025 16.0686 160.996 16.0686 149.967 16.0686C139.707 16.0686 127.709 14.7225 119.24 18.8851C100.293 28.1981 104.012 46.8093 104.012 70.6332C104.012 78.8032 103.087 96.0577 104.433 103.177C106.107 112.032 112.247 118.851 118.75 122.231C127.252 126.651 139.035 125.225 149.312 125.225C160.559 125.225 171.806 125.225 183.054 125.225Z" fill="#B0181E"/>
<path fill-rule="evenodd" clip-rule="evenodd" d="M97.956 16.3567L80.4049 16.0497L58.0365 86.1823C55.7727 92.9253 50.3032 118.349 45.8158 104.68C45.1746 102.727 44.5254 100.685 43.9249 98.727L18.0404 18.3671C16.5242 14.6951 17.7062 16.0673 -0.0478516 16.0838C6.88145 41.7624 19.9689 77.7358 28.6569 105.465C31.6469 115.009 35.0737 125.202 49.0442 125.23C61.7623 125.256 65.87 116.397 69.1958 105.861C73.9446 90.8152 95.9934 25.1002 97.956 16.3567Z" fill="#B0181E"/>
<path fill-rule="evenodd" clip-rule="evenodd" d="M403.029 125.099C424.341 125.249 419.197 127.885 423.774 114.442C425.134 110.446 426.447 106.306 427.607 102.573L446.788 43.0371C450.848 30.7542 452.326 27.5528 457.032 42.7148L468.363 77.9619C470.755 85.6702 482.813 120.605 483.365 125.203L501.018 125.176C498.292 114.664 486.07 78.1296 481.937 65.6794C479.43 58.1272 470.49 27.0797 466.328 22.2599C460.009 14.9422 446.235 13.4963 438.156 21.9431C432.817 27.5246 424.916 56.6735 422.252 65.0557C418.688 76.2737 404.612 117.53 403.029 125.099Z" fill="#B0181E"/>
<path fill-rule="evenodd" clip-rule="evenodd" d="M335.583 32.5091L367.067 32.6946L367.201 124.836C371.609 125.732 379.053 125.336 383.801 125.102L383.803 32.6847L415.15 32.6542L415.15 16.3491L335.583 16.0713V32.5091Z" fill="#B0181E"/>
<path fill-rule="evenodd" clip-rule="evenodd" d="M305.547 124.886L307.895 125.293L319.701 125.225L322.156 125.06L322.151 16.2749L305.55 16.1156L305.547 124.886Z" fill="#B0181E"/>
</g>
<defs>
<clipPath id="clip0_35_108">
<rect width="622" height="157" fill="white"/>
</clipPath>
</defs>
</svg>
