<svg width="959" height="180" viewBox="0 0 959 180" fill="none" xmlns="http://www.w3.org/2000/svg">
<g clip-path="url(#clip0_1057_6030)">
<mask id="mask0_1057_6030" style="mask-type:luminance" maskUnits="userSpaceOnUse" x="-7058" y="-622" width="9122" height="7049">
<path d="M-7057.63 6426.96H2063.29V-621.027H-7057.63V6426.96Z" fill="white"/>
</mask>
<g mask="url(#mask0_1057_6030)">
<path d="M349.377 39.013C349.377 31.7232 355.286 25.8273 362.576 25.8273H419.731C428.575 25.8273 436.902 31.1824 440.265 39.9233C444.618 51.2669 438.951 63.9807 427.619 68.3338L383.328 84.6523C367.251 90.2032 358.717 107.708 364.245 123.785C367.136 132.192 373.309 138.538 380.829 141.889L463.7 179.501V150.641L391.205 118.579C389.915 118.015 388.856 116.921 388.36 115.482C387.416 112.729 388.879 109.724 391.631 108.779L437.063 92.967C461.996 83.3969 474.445 55.4239 464.886 30.4911C457.493 11.2588 439.17 -0.556713 419.731 -0.556713H362.576C340.718 -0.556713 322.994 17.1551 322.994 39.013V175.32H349.377V39.013Z" fill="#B1181E"/>
</g>
<path d="M494.686 175.367H521.069V-0.520996H494.686L494.686 175.367Z" fill="#B1181E"/>
<mask id="mask1_1057_6030" style="mask-type:luminance" maskUnits="userSpaceOnUse" x="-7058" y="-622" width="9122" height="7049">
<path d="M-7057.63 6426.96H2063.29V-621.027H-7057.63V6426.96Z" fill="white"/>
</mask>
<g mask="url(#mask1_1057_6030)">
<path d="M130.762 -0.5592L83.534 145.894C82.9351 147.759 81.2188 148.934 79.3531 148.934C77.4875 148.934 75.8639 147.817 75.173 145.894L27.9444 -0.5592H0.212891L50.0787 154.047C54.2822 167.003 66.2821 175.33 79.3531 175.33C92.4356 175.33 104.401 167.061 108.627 154.047L158.505 -0.5592H130.762ZM679.675 175.326L726.903 28.8726C727.501 27.007 729.206 25.8326 731.083 25.8326C732.949 25.8326 734.573 26.9497 735.264 28.8614L782.492 175.326H810.235L760.358 20.7077C756.154 7.76341 744.154 -0.562714 731.083 -0.562714C718.001 -0.562714 706.036 7.70556 701.809 20.719L651.932 175.326H679.675ZM212.409 25.8242H295.949V-0.5592H212.409C188.121 -0.5592 168.44 19.1336 168.44 43.41V131.36C168.44 155.636 188.121 175.33 212.409 175.33H295.949V148.946H212.409C202.701 148.946 194.824 141.068 194.824 131.36V100.358H278.363V74.4121H194.824V43.41C194.824 33.7018 202.701 25.8242 212.409 25.8242Z" fill="#B1181E"/>
</g>
<path d="M671.453 -0.518066H543.059V25.8655H594.064V175.369H620.448V25.8655H671.453V-0.518066Z" fill="#B1181E"/>
<path d="M908.213 175.327C936.14 175.327 958.781 152.685 958.781 124.758C958.781 96.8309 936.14 74.1899 908.213 74.1899H864.244C850.885 74.1899 840.048 63.3648 840.048 50.0059C840.048 36.647 850.885 25.8219 864.244 25.8219H949.983V-0.562115H864.244C836.317 -0.562115 813.676 22.0789 813.676 50.0059C813.676 77.933 836.317 100.574 864.244 100.574L908.213 100.585C921.572 100.585 932.397 111.411 932.397 124.758C932.397 138.117 921.572 148.943 908.213 148.943H822.463V175.327H908.213Z" fill="#B1181E"/>
</g>
<defs>
<clipPath id="clip0_1057_6030">
<rect width="957.515" height="180" fill="white" transform="translate(0.742188)"/>
</clipPath>
</defs>
</svg>
