<svg width="899" height="313" viewBox="0 0 899 313" fill="none" xmlns="http://www.w3.org/2000/svg">
<path fill-rule="evenodd" clip-rule="evenodd" d="M312.156 156.611C312.156 242.038 242.905 311.289 157.478 311.289C72.0482 311.289 2.79492 242.038 2.79492 156.611C2.79492 71.1851 72.0482 1.93383 157.478 1.93383C242.905 1.93383 312.156 71.1851 312.156 156.611Z" fill="#ED342B"/>
<path fill-rule="evenodd" clip-rule="evenodd" d="M157.479 222.867C122.88 144.442 97.5118 71.1782 97.5118 71.1782H44.4727C44.4727 71.1782 76.7548 165.213 136.72 282.809H178.238C238.203 165.213 270.483 71.1782 270.483 71.1782H217.443C217.443 71.1782 192.077 144.442 157.479 222.867Z" fill="#FEFEFE"/>
<path fill-rule="evenodd" clip-rule="evenodd" d="M823.62 148.545C793.637 148.545 791.334 180.833 791.334 180.833L855.901 180.833C855.901 180.833 853.598 148.545 823.62 148.545ZM895.108 213.115L791.334 213.115C791.334 213.115 793.637 247.711 839.764 247.711C862.822 247.711 885.884 240.786 885.884 240.786L890.499 277.683C890.499 277.683 867.437 286.913 835.149 286.913C789.028 286.913 747.517 263.849 747.517 199.279C747.517 148.545 779.805 116.259 825.927 116.259C895.108 116.259 899.718 185.442 895.108 213.115ZM542.238 158.625L549.379 120.548C549.379 120.548 494.242 103.817 449.426 134.823V287.13H497.02V163.38C516.058 149.107 542.238 158.625 542.238 158.625ZM343.851 148.545C313.873 148.545 311.569 180.833 311.569 180.833H376.137C376.137 180.833 373.834 148.545 343.851 148.545ZM415.339 213.115H311.569C311.569 213.115 313.873 247.711 359.995 247.711C383.051 247.711 406.115 240.786 406.115 240.786L410.73 277.683C410.73 277.683 387.666 286.913 355.38 286.913C309.258 286.913 267.746 263.849 267.746 199.279C267.746 148.545 300.034 116.259 346.156 116.259C415.339 116.259 419.948 185.442 415.339 213.115ZM658.389 228.919C634.222 170.913 622.143 116.286 622.143 116.286L573.818 116.292C573.818 116.292 597.983 209.583 639.066 286.885H677.712C718.797 209.583 742.962 116.306 742.962 116.306H694.635C694.635 116.306 682.556 170.913 658.389 228.919Z" fill="#03435F"/>
</svg>
