<svg width="678" height="104" viewBox="0 0 678 104" fill="none" xmlns="http://www.w3.org/2000/svg">
<g clip-path="url(#clip0_34_53)">
<path d="M291.3 96.2L261.6 13.5C261.2 12.4 260.7 10.8 260.7 9.49995C260.7 5.89995 263.7 2.49995 268.1 2.49995C271.9 2.49995 274.4 4.99995 275.5 8.49995L300.1 79.7L324.9 8.29995C326 4.89995 328.3 2.49995 332.1 2.49995H332.9C336.9 2.49995 339.3 4.99995 340.5 8.29995L365.1 79.6L390.1 7.99995C391.1 4.99995 393.1 2.29995 397.1 2.29995C401.3 2.29995 404.3 5.49995 404.3 9.09995C404.3 10.4 403.7 11.9 403.4 13.1L373.5 95.9C372 100.2 369 102.5 365.5 102.5H364.9C361.1 102.5 358.3 100.2 356.9 95.9L332.5 25.7L307.9 95.9C306.6 100.2 303.7 102.5 300 102.5H299.6C295.8 102.8 292.8 100.5 291.3 96.2ZM507.7 9.59995C507.7 5.59995 510.9 2.19995 514.9 2.19995C519.1 2.19995 522.3 5.39995 522.3 9.59995V26.4C529.5 10.1 545.4 2.39995 556 2.39995C560.4 2.39995 563.2 5.59995 563.2 9.79995C563.2 13.8 560.5 16.6 556.7 17.2C537.8 19.5 522.2 33.7 522.2 61.9V95.1C522.2 99.1 519.2 102.5 515 102.5C510.8 102.5 507.6 99.3 507.6 95.1L507.7 9.59995ZM610 103.4C583.6 103.4 562.1 83 562.1 53V52.6C562.1 24.7 581.6 2.19995 608.1 2.19995C636.5 2.19995 652.7 25.6 652.7 51.3C652.7 55.2 649.5 58.1 646 58.1H576.6C578.6 79.1 593.3 90.9 610.4 90.9C622.3 90.9 631 86.2 638.1 79.6C639.2 78.7 640.5 77.9 642.2 77.9C645.7 77.9 648.5 80.7 648.5 84.1C648.5 85.8 647.8 87.4999 646.3 88.7999C637.1 97.4999 626.3 103.4 610 103.4ZM638.4 47.3C636.9 29.7 626.9 14.3 607.8 14.3C591.1 14.3 578.5 28.3 576.6 47.3H638.4ZM404.2 73.1V72.7C404.2 52.1 421.2 41.2 445.9 41.2C458.4 41.2 467.2 42.9 476 45.4V42C476 24.4 465.2 15.4 446.9 15.4C437.1 15.4 431.4 16.7 424.2 19.9C423.3 20.3 422.3 20.5 421.6 20.5C418.2 20.5 415.2 17.7 415.2 14.3C415.2 11.3 416.5 9.39995 419.2 8.19995C428.8 3.99995 436.1 2.59995 448.5 2.59995C462.3 2.59995 472.9 6.19995 480 13.4C486.6 20 490 29.5 490 41.9V95.7999C490 99.8999 487 103 483 103C478.9 103 476.1 100 476.1 96.2V86.9C469.3 95.8 457.9 103.7 440.8 103.7C422.6 103.5 404.2 93.1 404.2 73.1ZM476.2 65.5V56.1C469 54 459.4 51.9 447.5 51.9C429.2 51.9 419 59.8 419 72.1V72.5C419 84.8 430.3 92 443.6 92C461.5 92 476.2 81 476.2 65.5ZM26.6999 8.79995C23.4999 1.79995 15.5999 -1.40005 8.19995 1.89995C0.799947 5.19995 -1.90005 13.4 1.39995 20.4L32.3999 87.7999C37.2999 98.4 42.3999 103.9 52.0999 103.9C62.3999 103.9 66.8999 97.9 71.7999 87.7999C71.7999 87.7999 98.7999 28.9 99.0999 28.3C99.3999 27.7 100.2 25.8 103 25.8C105.3 25.8 107.3 27.7 107.3 30.2V87.7999C107.3 96.6999 112.2 104 121.7 104C131.2 104 136.3 96.6999 136.3 87.7999V40.7C136.3 31.6 142.8 25.7 151.7 25.7C160.6 25.7 166.5 31.8 166.5 40.7V87.7999C166.5 96.6999 171.4 104 180.9 104C190.4 104 195.5 96.6999 195.5 87.7999V40.7C195.5 31.6 202 25.7 210.9 25.7C219.8 25.7 225.7 31.8 225.7 40.7V87.7999C225.7 96.6999 230.6 104 240.1 104C249.6 104 254.7 96.6999 254.7 87.7999V34.2C254.7 14.5 238.9 0.699954 219.8 0.699954C200.8 0.699954 188.8 13.9 188.8 13.9C182.5 5.59995 173.7 0.599954 158.9 0.599954C143.3 0.599954 129.6 13.8 129.6 13.8C123.3 5.59995 112.5 0.599954 103.5 0.599954C89.6999 0.699954 78.6999 6.79995 71.9999 22.1L52.1999 68.7999L26.6999 8.79995ZM653.8 14.3C653.8 7.59995 659.1 2.09995 665.9 2.09995C672.7 2.09995 678 7.49995 678 14.1V14.2C678 20.8 672.7 26.4 665.9 26.4C659.1 26.4 653.8 20.9 653.8 14.3ZM675.7 14.2C675.7 8.69995 671.5 4.29995 665.9 4.29995C660.4 4.29995 656.1 8.79995 656.1 14.2V14.3C656.1 19.7 660.3 24.2 665.9 24.2C671.4 24.2 675.7 19.6 675.7 14.2Z" fill="#717073"/>
<path d="M661.3 9.49995C661.3 8.79995 661.9 8.19995 662.6 8.19995H666.6C668.1 8.19995 669.3 8.59995 670 9.39995C670.7 9.99995 671 11 671 12.1C671 13.9 670.1 15.1 668.7 15.7L670.5 17.9C670.7 18.2 670.9 18.5 670.9 18.9C670.9 19.6 670.3 20.1 669.7 20.1C669.1 20.1 668.7 19.8 668.4 19.4L665.9 16.2H663.8V18.7C663.8 19.4 663.2 20 662.5 20C661.8 20 661.2 19.4 661.2 18.7L661.3 9.49995ZM666.5 13.9C667.8 13.9 668.4 13.2 668.4 12.2C668.4 11.1 667.7 10.5 666.4 10.5H663.8V13.9H666.5Z" fill="#717073"/>
</g>
<defs>
<clipPath id="clip0_34_53">
<rect width="678" height="103.4" fill="white" transform="translate(0 0.599976)"/>
</clipPath>
</defs>
</svg>
