<svg width="1155" height="176" viewBox="0 0 1155 176" fill="none" xmlns="http://www.w3.org/2000/svg">
<g clip-path="url(#clip0_1057_6072)">
<mask id="mask0_1057_6072" style="mask-type:luminance" maskUnits="userSpaceOnUse" x="-3813" y="-5710" width="7353" height="9515">
<path d="M-3812.72 3804.36H3539.02V-5709.64H-3812.72V3804.36Z" fill="white"/>
</mask>
<g mask="url(#mask0_1057_6072)">
<path d="M496.254 163.249L445.736 22.5723C445.09 20.6272 444.129 18.0593 444.129 15.8067C444.129 9.71007 449.28 3.92101 456.661 3.92101C463.103 3.92101 467.301 8.10337 469.223 14.2L511.085 135.418L553.246 13.8617C555.168 8.09564 559.035 3.91326 565.439 3.91326H566.747C573.52 3.91326 577.702 8.09564 579.624 13.8617L621.44 135.418L663.962 13.5619C665.569 8.38777 669.083 3.91326 675.864 3.91326C682.937 3.91326 688.095 9.35647 688.095 15.4839C688.095 17.7288 687.119 20.289 686.489 22.2494L635.647 163.249C633.049 170.614 627.921 174.481 622.116 174.481H621.155C614.713 174.481 609.877 170.614 607.609 163.249L566.116 43.7068L524.262 163.249C522.009 170.614 517.166 174.481 510.746 174.481H510.07C503.973 174.481 498.845 170.614 496.254 163.249ZM864.507 16.1835C864.507 9.39494 869.98 3.59817 876.738 3.59817C883.865 3.59817 889.324 9.07973 889.324 16.1835V44.7295C901.563 17.0063 928.71 3.92101 946.7 3.92101C954.15 3.92101 958.986 9.39495 958.986 16.4834C958.986 23.2643 954.496 28.077 947.991 29.0457C915.74 32.9129 889.331 57.1073 889.331 105.158V161.688C889.331 168.462 884.18 174.251 877.092 174.251C869.996 174.251 864.514 168.746 864.514 161.688L864.507 16.1835ZM1038.64 175.819C993.767 175.819 957.125 141.015 957.125 89.9738V89.3127C957.125 41.7772 990.307 3.48273 1035.48 3.48273C1083.79 3.48273 1111.29 43.3379 1111.29 87.0755C1111.29 93.7949 1105.87 98.5999 1099.91 98.5999H981.804C985.248 134.311 1010.19 154.408 1039.29 154.408C1059.52 154.408 1074.31 146.428 1086.34 135.257C1088.24 133.681 1090.44 132.405 1093.3 132.405C1099.29 132.405 1104.04 137.194 1104.04 142.96C1104.04 145.82 1102.78 148.703 1100.22 150.91C1084.76 165.894 1066.42 175.819 1038.64 175.819ZM1086.97 80.4022C1084.43 50.3802 1067.36 24.2407 1034.82 24.2407C1006.39 24.2407 984.91 48.1583 981.788 80.4022H1086.97ZM688.534 124.155V123.509C688.534 88.4823 717.472 69.8156 759.564 69.8156C780.791 69.8156 795.89 72.7063 810.705 76.9117V71.0996C810.705 41.2314 792.331 25.7782 761.186 25.7782C744.464 25.7782 734.731 27.9079 722.492 33.3588C720.908 34.0046 719.286 34.3351 718.033 34.3351C712.244 34.3351 707.077 29.4992 707.077 23.7255C707.077 18.5975 709.315 15.4223 713.843 13.4157C730.211 6.31189 742.55 3.95174 763.754 3.95174C787.203 3.95174 805.208 10.0406 817.402 22.2647C828.672 33.5124 834.461 49.5807 834.461 70.8075V162.511C834.461 169.561 829.318 174.72 822.529 174.72C815.487 174.72 810.713 169.569 810.713 163.149V147.296C799.119 162.434 779.814 175.911 750.623 175.911C719.747 175.888 688.534 158.229 688.534 124.155ZM811.021 111.293V95.2172C798.781 91.6883 782.367 88.144 762.132 88.144C730.995 88.144 713.612 101.66 713.612 122.533V123.171C713.612 144.06 732.879 156.276 755.405 156.276C785.926 156.276 811.021 137.625 811.021 111.293ZM45.9624 14.3537C40.5192 2.42179 27.0652 -2.98288 14.5028 2.59868C1.9251 8.18792 -2.70332 22.1341 2.97819 34.0737L55.7264 148.726C64.0219 166.693 72.7633 176.111 89.1697 176.111C106.699 176.111 114.34 165.855 122.628 148.726C122.628 148.726 168.634 48.5505 169.095 47.5049C169.564 46.4439 171.04 43.2073 175.722 43.238C179.682 43.2611 183.011 46.4207 183.011 50.6645V148.626C183.011 163.726 191.383 176.111 207.497 176.111C223.596 176.111 232.299 163.726 232.299 148.626V68.4625C232.299 53.0017 243.377 42.9689 258.477 42.9689C273.576 42.9689 283.625 53.3631 283.625 68.4625V148.626C283.625 163.726 292.028 176.111 308.111 176.111C324.21 176.111 332.959 163.726 332.959 148.626V68.4625C332.959 53.0017 343.992 42.9689 359.099 42.9689C374.175 42.9689 384.262 53.3631 384.262 68.4625V148.626C384.262 163.726 392.657 176.111 408.756 176.111C424.847 176.111 433.581 163.726 433.581 148.626V57.3916C433.581 23.8638 406.619 0.376805 374.175 0.376805C341.77 0.376805 321.473 22.7952 321.473 22.7952C310.687 8.81053 295.818 0.40754 270.655 0.40754C244.1 0.40754 220.859 22.7952 220.859 22.7952C210.065 8.81053 191.69 0.40754 176.476 0.40754C152.942 0.40754 134.253 10.7557 122.851 36.826L89.1697 116.221L45.9624 14.3537ZM1113.3 24.2867V24.1485C1113.3 12.9315 1122.4 3.48273 1133.84 3.48273C1145.44 3.48273 1154.42 12.8315 1154.42 24.0638V24.1485C1154.42 35.4039 1145.35 44.8525 1133.84 44.8525C1122.24 44.8525 1113.3 35.5344 1113.3 24.2867ZM1150.47 24.1485V24.0945C1150.47 14.8688 1143.35 7.30379 1133.84 7.30379C1124.43 7.30379 1117.19 14.9996 1117.19 24.1485V24.2559C1117.19 33.4586 1124.34 41.0237 1133.84 41.0237C1143.23 41.0237 1150.47 33.3434 1150.47 24.1485Z" fill="#696566"/>
<path d="M1125.98 16.0141C1125.98 14.7916 1126.95 13.8152 1128.19 13.8152H1135.05C1137.63 13.8152 1139.62 14.5457 1140.86 15.8526C1141.99 16.952 1142.61 18.5434 1142.61 20.3886V20.4501C1142.61 23.5868 1141.02 25.5011 1138.63 26.5082L1141.66 30.1986C1142.09 30.7521 1142.37 31.2057 1142.37 31.8823C1142.37 33.097 1141.34 33.8965 1140.29 33.8965C1139.32 33.8965 1138.66 33.3967 1138.14 32.7663L1133.87 27.3693H1130.38V31.7056C1130.38 32.928 1129.43 33.889 1128.2 33.889C1126.96 33.889 1125.99 32.9203 1125.99 31.7056V16.0141H1125.98ZM1134.8 23.487C1136.94 23.487 1138.12 22.372 1138.12 20.6729V20.604C1138.12 18.7511 1136.86 17.7517 1134.73 17.7517H1130.35V23.4793H1134.8V23.487Z" fill="#696566"/>
</g>
</g>
<defs>
<clipPath id="clip0_1057_6072">
<rect width="1155" height="175" fill="white" transform="translate(0 0.742188)"/>
</clipPath>
</defs>
</svg>
