<svg width="100" height="100" viewBox="0 0 100 100" fill="none" xmlns="http://www.w3.org/2000/svg">
<g clip-path="url(#clip0_219_5)">
<path d="M90 0H10C4.47715 0 0 4.47715 0 10V90C0 95.5229 4.47715 100 10 100H90C95.5229 100 100 95.5229 100 90V10C100 4.47715 95.5229 0 90 0Z" fill="#003895"/>
<path d="M15 25C15 19.4772 19.4772 15 25 15H75C80.5228 15 85 19.4772 85 25V75C85 80.5228 80.5228 85 75 85H25C19.4772 85 15 80.5228 15 75V25Z" fill="white"/>
<path opacity="0.8" d="M77.5867 33C78.2611 30.0258 78.1343 28.3771 77.0278 25.7313C74.3302 20.5197 66.7915 17.4091 43.6456 22.8663C38.1362 24.499 37.2159 24.6533 32 26.6375C32.3014 26.6375 43.7485 24.6822 47 24C50.4211 23.2823 66 20.0845 73 25.7313C74.5429 26.9759 77.2084 28.6475 77.5867 33Z" fill="#003997"/>
<path d="M30 28.5C30 29.8807 28.8807 31 27.5 31C26.1193 31 25 29.8807 25 28.5C25 27.1193 26.1193 26 27.5 26C28.8807 26 30 27.1193 30 28.5Z" fill="#003895"/>
<path d="M25.8878 78C25.7628 78 25.6378 77.9583 25.5128 77.875C25.4294 77.75 25.3878 77.625 25.3878 77.5C25.3878 73.7083 25.3878 68.0625 25.3878 60.5625C25.3878 54.3125 25.3878 44.9375 25.3878 32.4375C25.3878 32.2708 25.4503 32.125 25.5753 32C25.7003 31.875 25.8461 31.8125 26.0128 31.8125C26.5544 31.8125 27.4086 31.8125 28.5753 31.8125C28.7419 31.8125 28.8878 31.875 29.0128 32C29.0961 32.125 29.1378 32.2708 29.1378 32.4375C29.1378 38.5625 29.1378 47.75 29.1378 60C29.1378 60.125 29.1378 60.3333 29.1378 60.625C29.1378 60.6667 29.1378 60.6875 29.1378 60.6875C29.1378 64.4375 29.1378 70.0417 29.1378 77.5C29.1378 77.625 29.0961 77.75 29.0128 77.875C28.9294 77.9583 28.8044 78 28.6378 78C28.0128 78 27.0961 78 25.8878 78ZM52.8623 36C51.4873 36 49.4039 36 46.6123 36C46.3623 36 46.1748 36.0625 46.0498 36.1875C45.8831 36.3542 45.7998 36.5417 45.7998 36.75C45.7998 44.9583 45.7998 57.2917 45.7998 73.75C45.7998 73.9583 45.8831 74.1458 46.0498 74.3125C46.1748 74.4375 46.3623 74.5 46.6123 74.5C47.9873 74.5 50.0706 74.5 52.8623 74.5C54.6956 74.5 56.4664 74.2292 58.1748 73.6875C59.8414 73.1458 61.4039 72.4167 62.8623 71.5C65.5706 69.7917 67.7373 67.5208 69.3623 64.6875C70.9873 61.8125 71.7998 58.6667 71.7998 55.25C71.7998 53.4167 71.5498 51.6458 71.0498 49.9375C70.5498 48.2292 69.8623 46.6458 68.9873 45.1875C67.3206 42.4792 65.0706 40.2708 62.2373 38.5625C59.4039 36.8958 56.2789 36.0417 52.8623 36ZM75.7998 55.25C75.7998 59.375 74.8206 63.1458 72.8623 66.5625C70.9039 70.0208 68.3206 72.7708 65.1123 74.8125C63.3623 75.9375 61.4664 76.8125 59.4248 77.4375C57.4248 78.0625 55.3206 78.4167 53.1123 78.5C50.7789 78.5 47.2789 78.5 42.6123 78.5C42.4039 78.5 42.2164 78.4167 42.0498 78.25C41.9248 78.0833 41.8623 77.8958 41.8623 77.6875C41.8623 73.9375 41.8623 68.3125 41.8623 60.8125C41.8623 54.5625 41.8623 45.2083 41.8623 32.75C41.8623 32.5417 41.9248 32.3542 42.0498 32.1875C42.2164 32.0625 42.4039 32 42.6123 32C44.9456 32 48.4456 32 53.1123 32C55.3206 32.0417 57.4248 32.375 59.4248 33C61.4664 33.625 63.3414 34.5 65.0498 35.625C68.2998 37.7083 70.9039 40.4583 72.8623 43.875C74.8206 47.3333 75.7998 51.125 75.7998 55.25Z" fill="#0079C5"/>
</g>
<defs>
<clipPath id="clip0_219_5">
<rect width="100" height="100" fill="white"/>
</clipPath>
</defs>
</svg>
