<svg width="473" height="209" viewBox="0 0 473 150" fill="none" xmlns="http://www.w3.org/2000/svg">
<path d="M4.78516 138.698C4.58984 138.698 4.39453 138.632 4.19922 138.502C4.06901 138.307 4.00391 138.112 4.00391 137.916C4.00391 131.992 4.00391 123.17 4.00391 111.451C4.00391 101.686 4.00391 87.0374 4.00391 67.5061C4.00391 67.2457 4.10156 67.0178 4.29688 66.8225C4.49219 66.6272 4.72005 66.5295 4.98047 66.5295C5.82682 66.5295 7.16146 66.5295 8.98438 66.5295C9.24479 66.5295 9.47266 66.6272 9.66797 66.8225C9.79818 67.0178 9.86328 67.2457 9.86328 67.5061C9.86328 77.0764 9.86328 91.4319 9.86328 110.573C9.86328 110.768 9.86328 111.093 9.86328 111.549C9.86328 111.614 9.86328 111.647 9.86328 111.647C9.86328 117.506 9.86328 126.263 9.86328 137.916C9.86328 138.112 9.79818 138.307 9.66797 138.502C9.53776 138.632 9.34245 138.698 9.08203 138.698C8.10547 138.698 6.67318 138.698 4.78516 138.698ZM46.9328 73.0725C44.7844 73.0725 41.5292 73.0725 37.1672 73.0725C36.7766 73.0725 36.4836 73.1702 36.2883 73.3655C36.0279 73.6259 35.8977 73.9189 35.8977 74.2444C35.8977 87.0699 35.8977 106.341 35.8977 132.057C35.8977 132.382 36.0279 132.675 36.2883 132.936C36.4836 133.131 36.7766 133.229 37.1672 133.229C39.3156 133.229 42.5708 133.229 46.9328 133.229C49.7974 133.229 52.5643 132.806 55.2336 131.959C57.8378 131.113 60.2792 129.974 62.5578 128.541C66.7896 125.872 70.175 122.324 72.7141 117.897C75.2531 113.405 76.5227 108.489 76.5227 103.151C76.5227 100.286 76.132 97.5191 75.3508 94.8499C74.5695 92.1806 73.4953 89.7066 72.1281 87.428C69.524 83.1962 66.0083 79.7457 61.5812 77.0764C57.1542 74.4722 52.2714 73.1376 46.9328 73.0725ZM82.7727 103.151C82.7727 109.596 81.2427 115.488 78.1828 120.826C75.1229 126.23 71.0865 130.527 66.0734 133.717C63.3391 135.475 60.3768 136.842 57.1867 137.819C54.0617 138.795 50.774 139.349 47.3234 139.479C43.6776 139.479 38.2089 139.479 30.9172 139.479C30.5917 139.479 30.2987 139.349 30.0383 139.088C29.843 138.828 29.7453 138.535 29.7453 138.209C29.7453 132.35 29.7453 123.561 29.7453 111.842C29.7453 102.076 29.7453 87.4605 29.7453 67.9944C29.7453 67.6689 29.843 67.3759 30.0383 67.1155C30.2987 66.9202 30.5917 66.8225 30.9172 66.8225C34.563 66.8225 40.0318 66.8225 47.3234 66.8225C50.774 66.8876 54.0617 67.4084 57.1867 68.385C60.3768 69.3616 63.3065 70.7288 65.9758 72.4866C71.0539 75.7418 75.1229 80.0387 78.1828 85.3772C81.2427 90.7808 82.7727 96.7053 82.7727 103.151ZM138.495 72.3889C131.073 72.3889 119.907 72.3889 104.998 72.3889C104.673 72.3889 104.38 72.5191 104.12 72.7795C103.924 72.9749 103.827 73.2678 103.827 73.6584C103.827 78.4111 103.827 85.5725 103.827 95.1428C103.827 95.5334 103.924 95.8264 104.12 96.0217C104.38 96.2821 104.673 96.4124 104.998 96.4124C110.337 96.4124 118.377 96.4124 129.12 96.4124C129.445 96.4124 129.738 96.5426 129.998 96.803C130.259 96.9983 130.389 97.2587 130.389 97.5842C130.389 98.3655 130.389 99.4722 130.389 100.905C130.389 101.23 130.259 101.523 129.998 101.783C129.738 102.044 129.445 102.174 129.12 102.174C123.781 102.174 115.741 102.174 104.998 102.174C104.673 102.174 104.38 102.272 104.12 102.467C103.924 102.727 103.827 103.02 103.827 103.346C103.827 110.898 103.827 122.161 103.827 137.135C103.827 137.526 103.696 137.819 103.436 138.014C103.176 138.274 102.883 138.405 102.557 138.405C101.841 138.405 100.734 138.405 99.2367 138.405C98.9112 138.405 98.6508 138.274 98.4555 138.014C98.1951 137.819 98.0648 137.526 98.0648 137.135C98.0648 131.406 98.0648 122.747 98.0648 111.158C98.0648 101.523 98.0648 87.0699 98.0648 67.7991C98.0648 67.4736 98.1951 67.1806 98.4555 66.9202C98.6508 66.7249 98.9112 66.6272 99.2367 66.6272C100.278 66.6272 101.808 66.6272 103.827 66.6272C111.509 66.6272 123.065 66.6272 138.495 66.6272C138.82 66.6272 139.113 66.7574 139.373 67.0178C139.634 67.2782 139.764 67.5712 139.764 67.8967C139.764 68.6129 139.764 69.7196 139.764 71.217C139.764 71.5426 139.634 71.803 139.373 71.9983C139.113 72.2587 138.82 72.3889 138.495 72.3889ZM138.299 138.698C129.64 138.698 116.62 138.698 99.2367 138.698C98.9112 138.698 98.6508 138.567 98.4555 138.307C98.1951 138.112 98.0648 137.851 98.0648 137.526C98.0648 136.809 98.0648 135.8 98.0648 134.498C98.0648 134.108 98.1951 133.815 98.4555 133.619C98.6508 133.359 98.9112 133.229 99.2367 133.229C102.557 133.229 107.472 133.229 113.983 133.229C119.386 133.229 127.492 133.229 138.299 133.229C138.69 133.229 138.983 133.359 139.178 133.619C139.439 133.815 139.569 134.108 139.569 134.498C139.569 135.149 139.569 136.158 139.569 137.526C139.569 137.851 139.439 138.112 139.178 138.307C138.983 138.567 138.69 138.698 138.299 138.698ZM213.455 139.186C212.673 139.186 211.469 139.186 209.841 139.186C209.516 139.186 209.255 139.056 209.06 138.795C208.8 138.6 208.67 138.339 208.67 138.014C208.67 129.355 208.67 116.334 208.67 98.9514C208.67 98.9514 208.67 98.9189 208.67 98.8538C208.67 98.8538 208.637 97.747 208.572 95.5334C208.442 93.385 207.921 90.9111 207.009 88.1116C206.489 86.6142 205.805 85.0842 204.959 83.5217C204.112 82.0243 203.071 80.6246 201.834 79.3225C199.88 77.3043 197.537 75.7743 194.802 74.7327C192.068 73.691 188.976 73.1702 185.525 73.1702C182.14 73.2353 179.08 73.7561 176.345 74.7327C173.676 75.7743 171.365 77.2717 169.412 79.2249C168.11 80.5269 167.003 81.9592 166.091 83.5217C165.245 85.0191 164.529 86.5165 163.943 88.0139C162.901 90.8134 162.315 93.2874 162.185 95.4358C161.99 97.5842 161.892 98.6584 161.892 98.6584C161.892 107.382 161.892 120.436 161.892 137.819C161.892 138.144 161.762 138.405 161.502 138.6C161.306 138.86 161.046 138.99 160.72 138.99C159.874 138.99 158.67 138.99 157.107 138.99C156.782 138.99 156.489 138.86 156.228 138.6C156.033 138.405 155.935 138.144 155.935 137.819C155.935 129.095 155.935 116.041 155.935 98.6584C155.935 98.4631 156.033 97.0959 156.228 94.5569C156.423 91.9527 157.172 88.9579 158.474 85.5725C159.125 83.8147 160.004 82.0243 161.111 80.2014C162.218 78.3785 163.552 76.6532 165.115 75.0256C167.719 72.4215 170.714 70.5009 174.099 69.2639C177.485 67.9618 181.293 67.3108 185.525 67.3108C189.822 67.3108 193.696 67.9618 197.146 69.2639C200.597 70.6311 203.591 72.6168 206.13 75.2209C207.693 76.7834 208.995 78.4762 210.037 80.2991C211.013 82.122 211.827 83.9124 212.478 85.6702C213.65 88.9254 214.301 91.8551 214.431 94.4592C214.561 96.803 214.627 98.2678 214.627 98.8538C214.627 98.9189 214.627 98.9514 214.627 98.9514C214.627 107.61 214.627 120.599 214.627 137.916C214.627 138.307 214.529 138.6 214.334 138.795C214.073 139.056 213.78 139.186 213.455 139.186ZM269.372 67.6038C269.372 68.4501 269.372 69.7196 269.372 71.4124C269.372 71.803 269.242 72.0959 268.981 72.2913C268.721 72.5517 268.428 72.6819 268.102 72.6819C264.977 72.6819 260.29 72.6819 254.04 72.6819C253.714 72.6819 253.421 72.8121 253.161 73.0725C252.901 73.2678 252.77 73.5608 252.77 73.9514C252.77 88.1441 252.77 109.433 252.77 137.819C252.77 138.209 252.64 138.502 252.38 138.698C252.184 138.958 251.891 139.088 251.501 139.088C250.654 139.088 249.385 139.088 247.692 139.088C247.367 139.088 247.074 138.958 246.813 138.698C246.618 138.502 246.52 138.209 246.52 137.819C246.52 123.626 246.52 102.337 246.52 73.9514C246.52 73.5608 246.39 73.2678 246.13 73.0725C245.869 72.8121 245.576 72.6819 245.251 72.6819C242.126 72.6819 237.438 72.6819 231.188 72.6819C230.798 72.6819 230.505 72.5517 230.309 72.2913C230.049 72.0959 229.919 71.803 229.919 71.4124C229.919 70.566 229.919 69.2965 229.919 67.6038C229.919 67.2782 230.049 66.9853 230.309 66.7249C230.505 66.4644 230.798 66.3342 231.188 66.3342C239.391 66.3342 251.664 66.3342 268.005 66.3342C268.395 66.3342 268.688 66.4644 268.884 66.7249C269.144 66.9853 269.307 67.2782 269.372 67.6038ZM287.301 138.698C287.105 138.698 286.91 138.632 286.715 138.502C286.585 138.307 286.52 138.112 286.52 137.916C286.52 131.992 286.52 123.17 286.52 111.451C286.52 101.686 286.52 87.0374 286.52 67.5061C286.52 67.2457 286.617 67.0178 286.812 66.8225C287.008 66.6272 287.236 66.5295 287.496 66.5295C288.342 66.5295 289.677 66.5295 291.5 66.5295C291.76 66.5295 291.988 66.6272 292.184 66.8225C292.314 67.0178 292.379 67.2457 292.379 67.5061C292.379 77.0764 292.379 91.4319 292.379 110.573C292.379 110.768 292.379 111.093 292.379 111.549C292.379 111.614 292.379 111.647 292.379 111.647C292.379 117.506 292.379 126.263 292.379 137.916C292.379 138.112 292.314 138.307 292.184 138.502C292.053 138.632 291.858 138.698 291.598 138.698C290.621 138.698 289.189 138.698 287.301 138.698ZM327.886 93.5803C334.982 103.151 345.594 117.539 359.722 136.744C359.917 136.94 360.015 137.168 360.015 137.428C360.015 137.623 359.982 137.819 359.917 138.014C359.657 138.47 359.266 138.698 358.745 138.698C357.704 138.698 356.141 138.698 354.058 138.698C353.862 138.698 353.7 138.665 353.57 138.6C353.374 138.47 353.211 138.339 353.081 138.209C346.636 129.485 336.968 116.367 324.077 98.8538C323.817 98.5282 323.491 98.3655 323.101 98.3655C322.71 98.3655 322.385 98.4957 322.124 98.7561C321.017 100.058 319.357 102.011 317.144 104.615C317.014 104.746 316.916 104.876 316.851 105.006C316.786 105.136 316.753 105.267 316.753 105.397C316.753 112.493 316.753 123.138 316.753 137.33C316.753 137.656 316.655 137.949 316.46 138.209C316.2 138.47 315.907 138.6 315.581 138.6C314.735 138.6 313.465 138.6 311.773 138.6C311.447 138.6 311.154 138.47 310.894 138.209C310.698 137.949 310.601 137.656 310.601 137.33C310.601 131.666 310.601 123.17 310.601 111.842C310.601 102.402 310.601 88.2743 310.601 69.4592C310.601 69.1337 310.698 68.8407 310.894 68.5803C311.154 68.385 311.447 68.2874 311.773 68.2874C312.619 68.2874 313.856 68.2874 315.484 68.2874C315.809 68.2874 316.102 68.385 316.362 68.5803C316.623 68.8407 316.753 69.1337 316.753 69.4592C316.753 74.5374 316.753 82.122 316.753 92.2131C316.753 92.7991 317.014 93.1897 317.534 93.385C318.055 93.5803 318.511 93.4501 318.902 92.9944C322.678 88.6324 328.374 82.0894 335.991 73.3655C336.122 73.2353 336.252 73.1051 336.382 72.9749C336.512 72.9097 336.675 72.8772 336.87 72.8772C337.977 72.8772 339.637 72.8772 341.851 72.8772C342.372 72.8772 342.762 73.1051 343.023 73.5608C343.218 74.0816 343.153 74.5374 342.827 74.928C339.507 78.704 334.559 84.4006 327.984 92.0178C327.788 92.2782 327.691 92.5387 327.691 92.7991C327.691 93.0595 327.756 93.3199 327.886 93.5803ZM316.753 69.6545C316.753 70.5009 316.46 71.2496 315.874 71.9006C315.288 72.4866 314.572 72.7795 313.726 72.7795C312.879 72.7795 312.163 72.5191 311.577 71.9983C310.991 71.4124 310.666 70.7288 310.601 69.9475C310.601 69.1663 310.601 68.0269 310.601 66.5295C311.252 66.5295 312.293 66.5295 313.726 66.5295C314.572 66.5295 315.288 66.8551 315.874 67.5061C316.46 68.092 316.753 68.8082 316.753 69.6545ZM410.268 138.795C406.883 138.795 403.627 138.307 400.502 137.33C397.377 136.419 394.448 135.149 391.713 133.522C386.765 130.397 382.761 126.198 379.702 120.924C376.642 115.716 375.112 109.954 375.112 103.639C375.112 100.253 375.567 96.9983 376.479 93.8733C377.455 90.7483 378.758 87.8512 380.385 85.1819C383.51 80.234 387.709 76.2301 392.983 73.1702C398.191 70.1103 403.953 68.5803 410.268 68.5803C416.518 68.5803 422.28 70.0777 427.553 73.0725C432.827 76.1324 437.026 80.1689 440.151 85.1819C441.778 87.8512 443.048 90.7483 443.959 93.8733C444.936 96.9983 445.424 100.253 445.424 103.639C445.424 107.089 444.936 110.377 443.959 113.502C443.048 116.627 441.746 119.524 440.053 122.194C436.993 127.142 432.827 131.145 427.553 134.205C422.28 137.265 416.518 138.795 410.268 138.795ZM410.561 74.635C407.696 74.635 404.995 75.0256 402.455 75.8069C399.851 76.5881 397.442 77.6624 395.229 79.0295C391.062 81.5686 387.742 85.0191 385.268 89.3811C382.729 93.7431 381.459 98.5282 381.459 103.737C381.459 106.536 381.85 109.238 382.631 111.842C383.347 114.446 384.389 116.855 385.756 119.069C388.36 123.235 391.843 126.556 396.205 129.03C400.567 131.569 405.353 132.838 410.561 132.838C413.36 132.838 416.062 132.448 418.666 131.666C421.205 130.95 423.614 129.876 425.893 128.444C429.995 125.905 433.315 122.454 435.854 118.092C438.393 113.73 439.663 108.945 439.663 103.737C439.663 98.5282 438.393 93.7431 435.854 89.3811C433.315 85.0191 429.962 81.5686 425.795 79.0295C423.582 77.6624 421.173 76.5881 418.569 75.8069C416.03 75.0256 413.36 74.635 410.561 74.635Z" fill="#0079C5"/>
<circle cx="6.8522" cy="59.0936" r="3.28909" fill="#003895"/>
<path opacity="0.8" d="M467.911 114.651C474.649 88.4208 473.382 73.8806 462.326 50.546C435.374 4.58303 360.052 -22.8503 128.794 25.2784C73.7469 39.6776 64.5524 41.039 12.4386 58.5379C15.4503 58.5379 92.6969 39.7171 125.184 33.701C159.365 27.3711 389.573 -12.9266 445.721 50.5461C457.911 64.3257 464.131 76.265 467.911 114.651Z" fill="#003797"/>
</svg>
