<svg width="375" height="375" viewBox="0 0 375 375" fill="none" xmlns="http://www.w3.org/2000/svg">
<rect width="375" height="375" fill="white"/>
<path d="M78.274 317.205C77.6955 317.205 77.1171 317.012 76.5387 316.627C76.1531 316.048 75.9603 315.47 75.9603 314.891C75.9603 297.346 75.9603 271.22 75.9603 236.515C75.9603 207.593 75.9603 164.212 75.9603 106.369C75.9603 105.598 76.2495 104.923 76.8279 104.345C77.4063 103.766 78.0812 103.477 78.8524 103.477C81.3589 103.477 85.3115 103.477 90.7101 103.477C91.4813 103.477 92.1562 103.766 92.7346 104.345C93.1202 104.923 93.313 105.598 93.313 106.369C93.313 134.712 93.313 177.226 93.313 233.912C93.313 234.49 93.313 235.454 93.313 236.804C93.313 236.997 93.313 237.093 93.313 237.093C93.313 254.446 93.313 280.379 93.313 314.891C93.313 315.47 93.1202 316.048 92.7346 316.627C92.349 317.012 91.7706 317.205 90.9993 317.205C88.1072 317.205 83.8654 317.205 78.274 317.205ZM197.765 122.854C191.402 122.854 181.762 122.854 168.844 122.854C167.687 122.854 166.819 123.143 166.241 123.722C165.47 124.493 165.084 125.361 165.084 126.325C165.084 164.308 165.084 221.379 165.084 297.539C165.084 298.503 165.47 299.37 166.241 300.142C166.819 300.72 167.687 301.009 168.844 301.009C175.206 301.009 184.847 301.009 197.765 301.009C206.249 301.009 214.443 299.756 222.348 297.249C230.061 294.743 237.291 291.369 244.039 287.127C256.572 279.222 266.598 268.714 274.117 255.603C281.637 242.299 285.397 227.742 285.397 211.932C285.397 203.448 284.24 195.254 281.926 187.349C279.612 179.443 276.431 172.117 272.382 165.368C264.67 152.836 254.258 142.617 241.147 134.712C228.036 127 213.575 123.047 197.765 122.854ZM303.906 211.932C303.906 231.02 299.375 248.469 290.313 264.279C281.251 280.282 269.297 293.008 254.451 302.455C246.353 307.661 237.58 311.71 228.132 314.602C218.878 317.494 209.141 319.133 198.922 319.519C188.125 319.519 171.929 319.519 150.334 319.519C149.37 319.519 148.503 319.133 147.731 318.362C147.153 317.591 146.864 316.723 146.864 315.759C146.864 298.406 146.864 272.377 146.864 237.672C146.864 208.75 146.864 165.465 146.864 107.815C146.864 106.851 147.153 105.983 147.731 105.212C148.503 104.634 149.37 104.345 150.334 104.345C161.131 104.345 177.327 104.345 198.922 104.345C209.141 104.537 218.878 106.08 228.132 108.972C237.58 111.864 246.256 115.913 254.162 121.119C269.201 130.759 281.251 143.485 290.313 159.295C299.375 175.298 303.906 192.844 303.906 211.932Z" fill="#0078C3"/>

<path d="M95 77.5C95 84.4035 89.4035 90 82.5 90C75.5965 90 70 84.4035 70 77.5C70 70.5965 75.5965 65 82.5 65C89.4035 65 95 70.5965 95 77.5Z" fill="#003898"/>
<path d="M337.934 110C341.306 95.1288 340.672 86.8853 335.139 73.6563C321.651 47.5983 283.958 32.0453 168.228 59.3313C140.681 67.4948 136.079 68.2663 110 78.1873C111.507 78.1873 168.743 68.4108 185 64.9998C202.105 61.4113 280 45.4223 315 73.6563C322.714 79.8793 336.042 88.2373 337.934 110Z" fill="#003898"/>
</svg>
