<?xml version="1.0" encoding="UTF-8"?>
<!DOCTYPE svg PUBLIC "-//W3C//DTD SVG 1.1//EN" "http://www.w3.org/Graphics/SVG/1.1/DTD/svg11.dtd">
<svg xmlns="http://www.w3.org/2000/svg" version="1.1" width="512px" height="512px" style="shape-rendering:geometricPrecision; text-rendering:geometricPrecision; image-rendering:optimizeQuality; fill-rule:evenodd; clip-rule:evenodd" xmlns:xlink="http://www.w3.org/1999/xlink">
<g><path style="opacity:0.995" fill="#8fcaf9" d="M 56.5,15.5 C 63.8773,14.6893 70.8773,15.856 77.5,19C 136.68,78.347 196.014,137.514 255.5,196.5C 314.986,137.514 374.32,78.347 433.5,19C 448.991,11.4547 461.157,14.9547 470,29.5C 472.456,37.7847 471.789,45.7847 468,53.5C 401.833,119.667 335.667,185.833 269.5,252C 260.167,256.667 250.833,256.667 241.5,252C 175.333,185.833 109.167,119.667 43,53.5C 35.1456,36.2197 39.6456,23.553 56.5,15.5 Z"/></g>
<g><path style="opacity:0.994" fill="#8fcaf9" d="M 56.5,135.5 C 63.8773,134.689 70.8773,135.856 77.5,139C 136.68,198.347 196.014,257.514 255.5,316.5C 314.986,257.514 374.32,198.347 433.5,139C 448.991,131.455 461.157,134.955 470,149.5C 472.456,157.785 471.789,165.785 468,173.5C 401.833,239.667 335.667,305.833 269.5,372C 260.167,376.667 250.833,376.667 241.5,372C 175.333,305.833 109.167,239.667 43,173.5C 35.1456,156.22 39.6456,143.553 56.5,135.5 Z"/></g>
<g><path style="opacity:0.993" fill="#8fcaf9" d="M 56.5,255.5 C 63.8773,254.689 70.8773,255.856 77.5,259C 136.68,318.347 196.014,377.514 255.5,436.5C 314.986,377.514 374.32,318.347 433.5,259C 448.991,251.455 461.157,254.955 470,269.5C 472.456,277.785 471.789,285.785 468,293.5C 401.833,359.667 335.667,425.833 269.5,492C 260.167,496.667 250.833,496.667 241.5,492C 175.333,425.833 109.167,359.667 43,293.5C 35.1456,276.22 39.6456,263.553 56.5,255.5 Z"/></g>
</svg>
