<?xml version="1.0" encoding="UTF-8"?>
<!DOCTYPE svg PUBLIC "-//W3C//DTD SVG 1.1//EN" "http://www.w3.org/Graphics/SVG/1.1/DTD/svg11.dtd">
<!-- Creator: CorelDRAW -->
<svg xmlns="http://www.w3.org/2000/svg" xml:space="preserve" width="6.34731in" height="1.9561in" version="1.1" style="shape-rendering:geometricPrecision; text-rendering:geometricPrecision; image-rendering:optimizeQuality; fill-rule:evenodd; clip-rule:evenodd"
viewBox="0 0 7393.88 2278.63"
 xmlns:xlink="http://www.w3.org/1999/xlink"
 xmlns:xodm="http://www.corel.com/coreldraw/odm/2003">
 <defs>
  <style type="text/css">
   <![CDATA[
    .fil1 {fill:#666666}
    .fil3 {fill:#676767}
    .fil0 {fill:#DB1D1D}
    .fil2 {fill:#FFFEFE}
   ]]>
  </style>
 </defs>
 <g id="Layer_x0020_1">
  <metadata id="CorelCorpID_0Corel-Layer"/>
  <g id="_2547570918768">
   <path class="fil0" d="M1189.9 719.82c-16.29,-196.27 123.88,-344.55 296.8,-362.23 191.05,-19.53 344.99,124.77 361.66,295.19 18.9,193.27 -124.79,345.41 -294.82,362.97 -191.67,19.81 -349.56,-126.31 -363.65,-295.93zm-1189.9 396.36c0,125.61 6.27,174.07 30.7,288.21 27.07,126.46 97.98,280.39 169.77,381.49 91.04,128.21 218.38,253.89 355.56,332.36 31.12,17.8 58.71,31.85 92.4,48.83 238.87,120.4 512.28,138.31 771.84,77.81 89.9,-20.96 210.63,-72.8 290.11,-119.92 17.18,-10.19 26.75,-14.9 42.72,-25.62 45.13,-30.32 75.07,-48.91 118.34,-86.67 14.62,-12.76 22.05,-17.59 36.33,-32.01 12.72,-12.84 21.19,-21.08 34.74,-33.6l15.49 -16.4c56.26,-61.49 58.19,-61.84 110.36,-131.1l54.48 -82.19c53.46,-93.05 91.33,-180.94 120.24,-289.79 67.28,-253.44 39.39,-543.78 -72.92,-777.67 -40.43,-84.21 -100.76,-179.09 -162.09,-247.93 -108.68,-121.98 -235.34,-231.21 -387.5,-295.88 -202.91,-86.25 -285.53,-106.1 -527.16,-106.1 -101.49,0 -247.33,29.32 -343.05,66.97 -173.62,68.28 -292.87,142.98 -421.19,271.3 -79.11,79.1 -151.14,175.6 -201.57,276.8 -72.97,146.44 -127.6,302.1 -127.6,501.12z"/>
   <path class="fil1" d="M7057.01 1804.12c-92.33,0 -150.34,-64.15 -150.34,-145.79 0,-64.06 -0.44,-95.91 40.87,-150.47 51.05,-67.42 176.5,-78.34 225.39,-6.44 58.09,85.44 40.88,302.7 -115.92,302.7zm-341.69 -173.12c0,84.16 2.11,140.87 55.91,212.89 96.56,129.3 323.25,172.54 429.97,31.52 6.77,-8.95 1.97,-2.68 6.16,-7.51 0,45.18 23.12,132.76 -35.11,192.69 -75.53,77.74 -266.35,56.22 -350.2,1.27 -14.48,-9.49 -27.84,-25.92 -42.94,-29.96 0,34.79 -5.72,84.46 2.61,115.84 21.03,79.13 136.9,130.18 225.18,130.18 99.84,0 196.42,-14.28 265.38,-76.32 156.19,-140.53 117.31,-264.11 117.31,-461.27 0,-108.66 6.53,-189.67 -25.27,-270.85 -94.24,-240.57 -424.98,-230.77 -568.43,-54.06 -39.72,48.93 -80.56,129.37 -80.56,215.57z"/>
   <path class="fil1" d="M2610.5 1380.42c0,73.92 15.36,118.13 60.32,162.92 135.01,134.51 408.94,81.61 408.94,215.21 0,95.22 -50.52,122.43 -145.66,127.7 -20.33,1.13 -17.71,4.46 -36.58,4.46 -56.81,0 -126.44,-21.99 -172.55,-41.61 -23.02,-9.8 -56.44,-34.36 -76.77,-51.59 -22.95,-19.44 -19.48,-11.57 -19.48,38.49 0,77.11 15.78,139.55 83.43,176.25 103.28,56.04 239.55,58.57 351.07,25.9 43.94,-12.88 75,-33.18 107.05,-56.96 112.84,-83.71 183.89,-369.14 -84.12,-461.39 -54.9,-18.89 -114.82,-26.71 -169.89,-44.24 -41.87,-13.33 -118.97,-40.26 -118.97,-95.15 0,-156.91 250.93,-134.84 346.98,-96.41 19.6,7.84 36.37,17.59 52.73,29.28 29.2,20.86 28.38,30.33 46.77,35.24 0,-41.26 5.12,-92.92 -5.4,-126.72 -53.17,-170.76 -398.83,-167.3 -522.01,-49.89l-18.84 17.61c-6.7,6.98 -13.02,13.67 -19.77,21.24 -35.77,40.09 -67.26,109.97 -67.26,169.65z"/>
   <path class="fil2" d="M1189.9 719.82c14.08,169.62 171.97,315.74 363.65,295.93 170.02,-17.56 313.72,-169.7 294.82,-362.97 -16.67,-170.43 -170.61,-314.72 -361.66,-295.19 -172.93,17.68 -313.1,165.96 -296.8,362.23z"/>
   <path class="fil1" d="M4113.93 1621.88l-54.67 0c0,-96.8 55.07,-177.68 141.23,-177.68 77.77,0 150.34,12.79 150.34,113.9 0,66.95 -130.51,57.19 -161.38,61.86 -23.89,3.61 -50.59,1.92 -75.52,1.92zm-246.02 54.67c0,132.8 51.16,241.02 154.84,314.41 11.52,8.15 13.34,11.06 27.27,18.28 93.71,48.59 187.81,62.98 294.35,39 63.51,-14.3 120.22,-38.92 144.52,-101.5 11.68,-30.07 7.72,-75.76 7.72,-115.3 -16.62,4.44 -31.88,26.31 -88.45,48.22 -57.71,22.35 -109.08,20.11 -171.23,20.11 -44.23,0 -88.89,-23.1 -115.96,-43.5 -24.81,-18.7 -41.87,-42.3 -52.06,-70.95 -4.21,-11.84 -4.78,-21.17 -9.66,-31.34 146.39,0 464.7,23.21 464.7,-164.01 0,-112.93 -32.77,-184.91 -111.23,-244.13 -132.49,-100 -345.14,-75.09 -465.45,77.47 -45.32,57.47 -79.36,152.2 -79.36,253.22z"/>
   <path class="fil1" d="M5954.49 1576.32l0 359.91c0,59.45 63.31,104.78 113.9,104.78l68.34 0 0 -423.69c0,-82.7 47.83,-164.01 109.34,-164.01 66.24,0 134.16,0.01 161.2,93.92 26.42,91.71 -0.22,345.63 14.57,404.57 23.59,94.03 115.33,89.21 179.58,89.21l0 -441.92c0,-86.35 -31.33,-165.76 -87.68,-222.12 -53.39,-53.39 -120.47,-85.87 -223.37,-89.65 -94.27,-3.47 -180.99,30.96 -234.33,76.19 -47.58,40.34 -101.55,127.21 -101.55,212.8z"/>
   <path class="fil3" d="M3389.55 1330.31l0 437.36c0,323.46 319.66,312.2 401.77,246.87 41.96,-33.39 40.15,-86.34 40.15,-142.09 0,-19.68 -13.25,-11.76 -24.07,-6.64 -56.06,26.56 -231.06,52.97 -231.06,-89.04l0 -309.8c81.17,0 179.91,13.61 226.62,-28.51 34.83,-31.41 28.51,-87.66 28.51,-135.5l-255.13 0 0 -154.9c0,-29.23 -70.9,-8.41 -91.52,4.16 -19.67,11.98 -33.41,24.7 -47.86,43.26 -29.41,37.75 -47.42,69.73 -47.42,134.82z"/>
   <path class="fil1" d="M5129.88 1840.56c0,215.11 254.99,239.28 322.37,185.69 41.05,-32.64 32.99,-77.31 32.99,-131.02 -60.72,0 -133.24,10.11 -161.2,-43.82 -20.98,-40.46 -11.92,-327.24 -11.92,-384.43 0,-88.08 -0.2,-176.17 0,-264.25 0.12,-53.43 -2.36,-75.14 -26.48,-105.65 -36.72,-46.46 -102.91,-40.13 -155.76,-40.13l0 783.6z"/>
   <path class="fil1" d="M4628.74 1580.88l0 341.69c0,127.84 115.89,118.45 186.79,118.45l0 -428.25c0,-62.27 14.59,-113.66 66.55,-138.47 68.14,-32.53 152.17,9.01 174.91,10.9 0,-36.29 2.58,-73.36 -6.61,-102.73 -8.07,-25.79 -28.85,-51.22 -50.32,-63.57 -100.3,-57.68 -371.32,-21 -371.32,261.98z"/>
   <path class="fil3" d="M5553.58 1330.31l0 441.92c0,173.21 51.89,277.91 232.34,277.91 108.28,0 100.23,-89.79 100.23,-154.9 -172.85,0 -145.78,-15.82 -145.78,-314.35 0,-175.75 21.92,-264.24 -173.12,-264.24 -10.5,0 -13.67,3.17 -13.67,13.67z"/>
   <path class="fil1" d="M5539.91 1134.4c0,169.66 214.13,138 214.13,22.78l0 -22.78c0,-52.48 -54.86,-98.05 -105.16,-99.51 -52.25,-1.51 -108.97,47.29 -108.97,99.51z"/>
  </g>
 </g>
</svg>
