<?xml version="1.0" encoding="utf-8"?>
<!-- Generator: Adobe Illustrator 19.2.1, SVG Export Plug-In . SVG Version: 6.00 Build 0)  -->
<svg version="1.1" id="layer" xmlns="http://www.w3.org/2000/svg" xmlns:xlink="http://www.w3.org/1999/xlink" x="0px" y="0px"
	 viewBox="0 0 652 652" style="enable-background:new 0 0 652 652;" xml:space="preserve" width="931" height="500">
<style type="text/css">
	.st0{fill:#00B336;}
</style>
<path class="st0" d="M610.5,271.3c-6.4-1.7-13.1,1.4-16,7.3l-39.5,77c-1.1,2.2-3.3,3.5-5.7,3.5l0,0c-2.4,0-4.6-1.4-5.7-3.5
	l-39.6-76.9c-3-5.9-9.6-8.9-16-7.3c-6.5,1.6-11,7.4-10.9,14v81c0,3.8,3.1,6.9,6.9,6.9c3.8,0,6.9-3.1,6.9-6.9c0,0,0,0,0,0V284
	c0-0.3-0.1-0.7,0.4-0.9c0.5-0.2,0.6,0.3,0.7,0.6l39.5,77.2c5.1,9.9,17.2,13.8,27.1,8.8c3.8-1.9,6.8-5,8.8-8.8l39.4-77.1
	c0.1-0.3,0.3-0.7,0.7-0.6c0.4,0.1,0.4,0.6,0.4,0.9v82.3c0,3.8,3.1,6.9,6.9,6.9c3.8,0,6.9-3.1,6.9-6.9v-81.1
	C621.4,278.7,616.9,272.9,610.5,271.3z"/>
<path class="st0" d="M136.7,271.8c-3.3-1.8-7.4-0.5-9.2,2.8c0,0,0,0.1,0,0.1l-43.2,83.4c-0.9,1.6-2.1,2.6-3.3,2.6
	c-1.2,0-2.5-1-3.3-2.6l-43.2-83.4c-1.7-3.3-5.8-4.7-9.1-3c-0.1,0-0.1,0.1-0.2,0.1c-3.4,1.8-4.6,6-2.9,9.4l43.1,82.2
	c3.2,6.2,9.1,9.9,15.6,9.9c6.5,0,12.3-3.7,15.6-9.9l43.3-82.2C141.3,277.7,140,273.6,136.7,271.8z"/>
<path class="st0" d="M188.9,269c-28.6,0-51.9,23.8-51.9,53c0,29.2,23.3,53,51.9,53c16.5-0.1,32-8,41.7-21.4c2.3-3.1,1.6-7.4-1.4-9.7
	c-3-2.2-7.2-1.6-9.5,1.3c0,0,0,0.1-0.1,0.1c-7.4,10-18.5,16.3-30.7,16.3c-18.8,0-34.5-14.5-37.7-32.7H234c3.8-0.1,6.8-3.2,6.8-7
	C240.8,292.8,217.5,269,188.9,269z M151.2,316.3c3.2-18.2,18.9-34,37.7-34s34.6,15.8,37.8,34H151.2z"/>
<path class="st0" d="M301.6,269c-28.6,0-51.9,23.8-51.9,53c0,29.2,23.3,53,51.9,53c16.5-0.1,32-8,41.7-21.4c2.3-3.1,1.6-7.4-1.4-9.7
	c-3-2.2-7.2-1.6-9.5,1.3c0,0,0,0.1-0.1,0.1c-7.4,10-18.5,16.3-30.7,16.3c-18.8,0-34.5-14.5-37.7-32.7h82.9c3.8-0.1,6.8-3.2,6.8-7
	C353.6,292.8,330.3,269,301.6,269z M263.9,316.3c3.2-18.2,18.9-34,37.7-34c18.8,0,34.6,15.8,37.8,34H263.9z"/>
<path class="st0" d="M423.6,280.7c-3.2-6-8.8-9.6-15.1-9.6c-6.3,0-11.9,3.6-15.1,9.6l-43.1,82.4c-1.8,3.4-0.5,7.5,2.8,9.3
	c0,0,0,0,0,0c1,0.5,2.1,0.8,3.2,0.8c2.6,0,4.9-1.4,6.1-3.7l12.1-23.2h49.7c3.8,0,6.8-3.1,6.8-6.9c0,0,0,0,0,0c0-3.8-3.3-6.6-7.1-6.6
	l-42.5,0.1l23.9-47.6c0.8-1.4,1.8-2.3,3-2.3c1.1,0,2.2,0.9,3,2.3l43.2,84.1c1.7,3.3,5.8,4.7,9.1,3c0.1,0,0.1-0.1,0.2-0.1
	c3.3-1.8,4.3-6.6,2.6-9.9L423.6,280.7z"/>
</svg>
