<?xml version="1.0" encoding="UTF-8"?>
<!DOCTYPE svg PUBLIC "-//W3C//DTD SVG 1.1//EN" "http://www.w3.org/Graphics/SVG/1.1/DTD/svg11.dtd">
<svg xmlns="http://www.w3.org/2000/svg" version="1.1" width="512px" height="512px" style="shape-rendering:geometricPrecision; text-rendering:geometricPrecision; image-rendering:optimizeQuality; fill-rule:evenodd; clip-rule:evenodd" xmlns:xlink="http://www.w3.org/1999/xlink">
<g><path style="opacity:0.965" fill="#000000" d="M 42.5,-0.5 C 134.833,-0.5 227.167,-0.5 319.5,-0.5C 343.048,5.55018 357.215,20.5502 362,44.5C 362.667,91.8333 362.667,139.167 362,186.5C 355,195.833 348,195.833 341,186.5C 340.667,140.5 340.333,94.5 340,48.5C 337.356,34.5238 329.189,25.6904 315.5,22C 225.833,21.3333 136.167,21.3333 46.5,22C 33.6667,25.5 25.5,33.6667 22,46.5C 21.3333,164.5 21.3333,282.5 22,400.5C 25.5,413.333 33.6667,421.5 46.5,425C 99.5,425.333 152.5,425.667 205.5,426C 215.336,432.036 216.003,439.036 207.5,447C 152.5,447.667 97.5,447.667 42.5,447C 19.6259,441.292 5.2926,427.125 -0.5,404.5C -0.5,283.833 -0.5,163.167 -0.5,42.5C 5.5,19.8333 19.8333,5.5 42.5,-0.5 Z M 175.5,85.5 C 188.283,84.1358 196.783,89.4691 201,101.5C 202.04,116.083 195.374,124.75 181,127.5C 163.046,123.594 157.046,112.927 163,95.5C 166.191,90.8366 170.358,87.5032 175.5,85.5 Z"/></g>
<g><path style="opacity:0.946" fill="#000000" d="M 171.5,63.5 C 197.597,60.7875 214.764,71.7875 223,96.5C 226.431,122.365 215.931,139.531 191.5,148C 168.555,152.249 151.722,144.083 141,123.5C 134.257,104.212 138.09,87.3783 152.5,73C 158.378,68.7274 164.712,65.5607 171.5,63.5 Z M 175.5,85.5 C 170.358,87.5032 166.191,90.8366 163,95.5C 157.046,112.927 163.046,123.594 181,127.5C 195.374,124.75 202.04,116.083 201,101.5C 196.783,89.4691 188.283,84.1358 175.5,85.5 Z"/></g>
<g><path style="opacity:0.953" fill="#000000" d="M 142.5,169.5 C 167.836,169.333 193.169,169.5 218.5,170C 242.693,173.527 258.193,187.027 265,210.5C 266.564,223.118 266.897,235.785 266,248.5C 262.903,255.132 257.736,257.299 250.5,255C 247.619,253.749 245.786,251.583 245,248.5C 244.884,237.118 244.217,225.785 243,214.5C 239.099,203.599 231.599,196.432 220.5,193C 196.532,191.406 172.532,191.072 148.5,192C 134.188,192.974 124.354,200.14 119,213.5C 118.022,225.848 117.022,238.181 116,250.5C 111.483,255.745 105.983,256.912 99.5,254C 97.9512,252.786 96.7845,251.286 96,249.5C 95.3333,237.167 95.3333,224.833 96,212.5C 102.766,188.562 118.266,174.229 142.5,169.5 Z"/></g>
<g><path style="opacity:0.947" fill="#000000" d="M 511.5,356.5 C 511.5,367.5 511.5,378.5 511.5,389.5C 502.557,443.538 472.891,481.372 422.5,503C 411.644,506.93 400.644,509.764 389.5,511.5C 378.5,511.5 367.5,511.5 356.5,511.5C 302.56,503.072 264.726,473.739 243,423.5C 222.538,360.915 236.705,307.748 285.5,264C 329.601,231.554 377.268,225.22 428.5,245C 475.743,267.676 503.41,304.842 511.5,356.5 Z M 371.5,255.5 C 421.819,257.731 457.986,281.398 480,326.5C 497.283,371.26 490.949,412.26 461,449.5C 424.725,487.36 381.559,498.194 331.5,482C 283.693,461.394 258.693,425.061 256.5,373C 258.37,323.57 281.37,287.903 325.5,266C 340.348,259.734 355.682,256.234 371.5,255.5 Z"/></g>
<g><path style="opacity:0.961" fill="#000000" d="M 71.5,297.5 C 116.168,297.333 160.835,297.5 205.5,298C 215.336,304.036 216.003,311.036 207.5,319C 161.5,319.667 115.5,319.667 69.5,319C 65.0466,316.929 63.0466,313.429 63.5,308.5C 63.8551,303.146 66.5218,299.479 71.5,297.5 Z"/></g>
<g><path style="opacity:0.938" fill="#000000" d="M 421.5,319.5 C 435.082,318.899 439.582,324.899 435,337.5C 412,363.833 389,390.167 366,416.5C 362.799,420.036 359.299,423.203 355.5,426C 350.632,427.186 346.298,426.186 342.5,423C 327.637,408.471 313.137,393.638 299,378.5C 296.167,365.333 301.333,360.167 314.5,363C 326.736,374.613 338.736,386.447 350.5,398.5C 373.949,371.905 397.616,345.572 421.5,319.5 Z"/></g>
<g><path style="opacity:0.961" fill="#000000" d="M 71.5,361.5 C 108.835,361.333 146.168,361.5 183.5,362C 191.069,364.584 193.569,369.751 191,377.5C 189.833,380 188,381.833 185.5,383C 146.833,383.667 108.167,383.667 69.5,383C 65.0466,380.929 63.0466,377.429 63.5,372.5C 63.8551,367.146 66.5218,363.479 71.5,361.5 Z"/></g>
</svg>
