<?xml version="1.0" encoding="UTF-8"?>
<!DOCTYPE svg PUBLIC "-//W3C//DTD SVG 1.1//EN" "http://www.w3.org/Graphics/SVG/1.1/DTD/svg11.dtd">
<svg xmlns="http://www.w3.org/2000/svg" version="1.1" width="512px" height="512px" style="shape-rendering:geometricPrecision; text-rendering:geometricPrecision; image-rendering:optimizeQuality; fill-rule:evenodd; clip-rule:evenodd" xmlns:xlink="http://www.w3.org/1999/xlink">
<g><path style="opacity:0.954" fill="#000000" d="M 511.5,41.5 C 511.5,161.5 511.5,281.5 511.5,401.5C 508.508,408.651 503.174,413.151 495.5,415C 478.503,415.5 461.503,415.667 444.5,415.5C 444.667,432.837 444.5,450.17 444,467.5C 441.928,474.573 437.428,479.406 430.5,482C 291.5,482.667 152.5,482.667 13.5,482C 6.64983,479.648 1.98316,475.148 -0.5,468.5C -0.5,348.833 -0.5,229.167 -0.5,109.5C 2.38267,102.79 7.38267,98.2903 14.5,96C 31.8301,95.5001 49.1635,95.3334 66.5,95.5C 66.3334,78.1635 66.5001,60.8301 67,43.5C 69.0724,36.4269 73.5724,31.5936 80.5,29C 219.5,28.3333 358.5,28.3333 497.5,29C 504.255,30.9265 508.922,35.0932 511.5,41.5 Z M 86.5,45.5 C 221.834,45.3333 357.167,45.5 492.5,46C 493,46.5 493.5,47 494,47.5C 494.5,66.8305 494.667,86.1638 494.5,105.5C 357.833,105.5 221.167,105.5 84.5,105.5C 83.8639,85.2666 84.5306,65.2666 86.5,45.5 Z M 17.5,113.5 C 33.8333,113.5 50.1667,113.5 66.5,113.5C 66.5,133.5 66.5,153.5 66.5,173.5C 49.8333,173.5 33.1667,173.5 16.5,173.5C 16.1905,153.454 16.5238,133.454 17.5,113.5 Z M 84.5,123.5 C 221.167,123.5 357.833,123.5 494.5,123.5C 494.831,214.541 494.497,305.541 493.5,396.5C 357.265,397.832 221.098,397.832 85,396.5C 84.5,305.501 84.3333,214.501 84.5,123.5 Z M 16.5,190.5 C 33.1667,190.5 49.8333,190.5 66.5,190.5C 66.3333,260.167 66.5,329.834 67,399.5C 68.8244,407.991 73.9911,413.158 82.5,415C 197.166,415.5 311.833,415.667 426.5,415.5C 427.143,432.239 426.477,448.739 424.5,465C 289.167,465.667 153.833,465.667 18.5,465C 18,464.5 17.5,464 17,463.5C 16.5,372.501 16.3333,281.501 16.5,190.5 Z"/></g>
<g><path style="opacity:0.95" fill="#000000" d="M 119.5,65.5 C 132.171,65.3334 144.838,65.5001 157.5,66C 162.069,68.5414 163.569,72.3747 162,77.5C 161.167,79.6667 159.667,81.1667 157.5,82C 144.833,82.6667 132.167,82.6667 119.5,82C 114.391,78.6338 113.224,74.1338 116,68.5C 117.145,67.3636 118.312,66.3636 119.5,65.5 Z"/></g>
<g><path style="opacity:0.946" fill="#000000" d="M 189.5,65.5 C 202.504,65.3334 215.504,65.5001 228.5,66C 235.167,71.3333 235.167,76.6667 228.5,82C 215.5,82.6667 202.5,82.6667 189.5,82C 182.899,76.5041 182.899,71.0041 189.5,65.5 Z"/></g>
<g><path style="opacity:0.91" fill="#000000" d="M 303.5,185.5 C 309.206,185.171 314.872,185.505 320.5,186.5C 304.723,226.389 289.223,266.389 274,306.5C 268.554,307.806 263.054,307.806 257.5,306.5C 273.124,266.256 288.458,225.922 303.5,185.5 Z"/></g>
<g><path style="opacity:0.898" fill="#000000" d="M 238.5,209.5 C 239.5,209.5 240.5,209.5 241.5,209.5C 241.829,215.206 241.495,220.872 240.5,226.5C 220.802,236.349 201.136,246.182 181.5,256C 201.167,265.833 220.833,275.667 240.5,285.5C 241.495,291.128 241.829,296.794 241.5,302.5C 214.773,289.303 188.106,275.803 161.5,262C 160.202,257.882 160.202,253.715 161.5,249.5C 187.385,236.392 213.052,223.059 238.5,209.5 Z"/></g>
<g><path style="opacity:0.916" fill="#000000" d="M 336.5,209.5 C 362.78,222.64 389.114,235.807 415.5,249C 416.629,253.079 416.796,257.245 416,261.5C 390.07,275.549 363.903,289.216 337.5,302.5C 336.193,296.612 336.193,290.779 337.5,285C 357.29,275.605 376.956,265.939 396.5,256C 376.833,246.167 357.167,236.333 337.5,226.5C 336.505,220.872 336.171,215.206 336.5,209.5 Z"/></g>
</svg>
