<?xml version="1.0" encoding="UTF-8"?>
<!DOCTYPE svg PUBLIC "-//W3C//DTD SVG 1.1//EN" "http://www.w3.org/Graphics/SVG/1.1/DTD/svg11.dtd">
<svg xmlns="http://www.w3.org/2000/svg" version="1.1" width="512px" height="512px" style="shape-rendering:geometricPrecision; text-rendering:geometricPrecision; image-rendering:optimizeQuality; fill-rule:evenodd; clip-rule:evenodd" xmlns:xlink="http://www.w3.org/1999/xlink">
<g><path style="opacity:0.915" fill="#000000" d="M 248.5,33.5 C 269.859,31.7642 286.359,39.7642 298,57.5C 307.842,77.5535 306.176,96.5535 293,114.5C 271.36,134.9 248.194,136.734 223.5,120C 208.095,105.107 203.262,87.2739 209,66.5C 216.267,48.3025 229.434,37.3025 248.5,33.5 Z M 246.5,45.5 C 247.5,45.5 248.5,45.5 249.5,45.5C 249.5,52.1667 249.5,58.8333 249.5,65.5C 245.774,65.8226 242.107,65.4892 238.5,64.5C 239.835,58.4926 241.169,52.4926 242.5,46.5C 244.099,46.7678 245.432,46.4345 246.5,45.5 Z M 261.5,45.5 C 263.806,45.9926 266.139,46.3259 268.5,46.5C 269.99,52.7926 271.323,59.126 272.5,65.5C 268.833,65.5 265.167,65.5 261.5,65.5C 261.5,58.8333 261.5,52.1667 261.5,45.5 Z M 282.5,56.5 C 284.829,58.8413 286.829,61.5079 288.5,64.5C 286.955,65.4519 285.288,65.7852 283.5,65.5C 283.492,62.4552 283.159,59.4552 282.5,56.5 Z M 227.5,57.5 C 227.986,59.9517 227.986,62.6183 227.5,65.5C 225.712,65.7852 224.045,65.4519 222.5,64.5C 223.931,61.9613 225.597,59.6279 227.5,57.5 Z M 218.5,77.5 C 221.167,77.5 223.833,77.5 226.5,77.5C 226.5,80.8333 226.5,84.1667 226.5,87.5C 218.134,88.775 215.467,85.4417 218.5,77.5 Z M 237.5,77.5 C 241.5,77.5 245.5,77.5 249.5,77.5C 249.5,80.8333 249.5,84.1667 249.5,87.5C 245.5,87.5 241.5,87.5 237.5,87.5C 237.5,84.1667 237.5,80.8333 237.5,77.5 Z M 261.5,77.5 C 265.5,77.5 269.5,77.5 273.5,77.5C 273.5,80.8333 273.5,84.1667 273.5,87.5C 269.5,87.5 265.5,87.5 261.5,87.5C 261.5,84.1667 261.5,80.8333 261.5,77.5 Z M 285.5,77.5 C 293.234,76.1604 295.568,79.1604 292.5,86.5C 290.257,87.4742 287.924,87.8076 285.5,87.5C 285.5,84.1667 285.5,80.8333 285.5,77.5 Z M 221.5,99.5 C 223.265,98.5386 225.265,98.2053 227.5,98.5C 227.543,101.587 227.71,104.587 228,107.5C 225.575,104.947 223.408,102.28 221.5,99.5 Z M 238.5,98.5 C 242.167,98.5 245.833,98.5 249.5,98.5C 249.5,105.5 249.5,112.5 249.5,119.5C 247.173,119.335 245.007,118.669 243,117.5C 240.711,111.343 239.211,105.009 238.5,98.5 Z M 261.5,98.5 C 265.167,98.5 268.833,98.5 272.5,98.5C 271.789,105.009 270.289,111.343 268,117.5C 265.993,118.669 263.827,119.335 261.5,119.5C 261.5,112.5 261.5,105.5 261.5,98.5 Z M 284.5,98.5 C 286.199,98.3398 287.866,98.5065 289.5,99C 283.241,109.912 281.574,109.746 284.5,98.5 Z"/></g>
<g><path style="opacity:0.852" fill="#000000" d="M 182.5,91.5 C 190.207,90.2014 192.873,93.2014 190.5,100.5C 185.519,104.668 179.852,106.501 173.5,106C 171.271,103.447 170.938,100.614 172.5,97.5C 175.897,95.4741 179.23,93.4741 182.5,91.5 Z"/></g>
<g><path style="opacity:0.851" fill="#000000" d="M 321.5,91.5 C 328.262,91.4627 334.095,93.7961 339,98.5C 340.324,105.505 337.49,108.005 330.5,106C 327.167,104.333 323.833,102.667 320.5,101C 319.01,97.6028 319.344,94.4361 321.5,91.5 Z"/></g>
<g><path style="opacity:0.862" fill="#000000" d="M 158.5,104.5 C 165.56,103.725 168.06,106.725 166,113.5C 161.41,116.879 156.91,120.379 152.5,124C 144.873,128.365 141.373,126.198 142,117.5C 147.66,113.268 153.16,108.934 158.5,104.5 Z"/></g>
<g><path style="opacity:0.862" fill="#000000" d="M 347.5,104.5 C 349.199,104.34 350.866,104.506 352.5,105C 358.09,109.045 363.59,113.212 369,117.5C 370.48,123.338 368.313,126.171 362.5,126C 356.403,122.201 350.569,118.035 345,113.5C 343.779,109.718 344.613,106.718 347.5,104.5 Z"/></g>
<g><path style="opacity:0.868" fill="#000000" d="M 130.5,127.5 C 137.693,126.847 140.193,129.847 138,136.5C 133.133,141.032 128.633,145.866 124.5,151C 117.304,152.143 114.804,149.309 117,142.5C 121.337,137.331 125.837,132.331 130.5,127.5 Z"/></g>
<g><path style="opacity:0.864" fill="#000000" d="M 374.5,127.5 C 376.92,127.292 379.253,127.626 381.5,128.5C 384.818,132.318 388.318,135.985 392,139.5C 396.175,143.285 396.341,147.118 392.5,151C 390.5,151.667 388.5,151.667 386.5,151C 382.367,145.866 377.867,141.032 373,136.5C 371.058,133.141 371.558,130.141 374.5,127.5 Z"/></g>
<g><path style="opacity:0.847" fill="#000000" d="M 108.5,154.5 C 114.377,154.206 116.877,156.872 116,162.5C 113.873,166.589 111.373,170.423 108.5,174C 103.608,175.69 100.608,174.023 99.5,169C 101.556,163.473 104.556,158.64 108.5,154.5 Z"/></g>
<g><path style="opacity:0.846" fill="#000000" d="M 398.5,154.5 C 402.876,155.024 406.043,157.357 408,161.5C 409.303,163.94 410.47,166.44 411.5,169C 410.392,174.023 407.392,175.69 402.5,174C 397.653,169.478 395.153,163.978 395,157.5C 396.145,156.364 397.312,155.364 398.5,154.5 Z"/></g>
<g><path style="opacity:0.895" fill="#000000" d="M 241.5,162.5 C 250.839,162.334 260.173,162.5 269.5,163C 270.931,163.465 272.097,164.299 273,165.5C 273.173,169.541 273.673,173.541 274.5,177.5C 282.696,179.674 290.363,183.008 297.5,187.5C 300.628,184.03 304.295,181.364 308.5,179.5C 316.452,185.95 323.952,192.95 331,200.5C 331.706,202.971 331.373,205.305 330,207.5C 327.833,209.667 325.667,211.833 323.5,214C 328.652,221.801 331.985,230.301 333.5,239.5C 338.099,239.2 342.599,239.533 347,240.5C 348.094,246.087 348.594,251.754 348.5,257.5C 348.618,262.941 348.118,268.274 347,273.5C 346.5,274 346,274.5 345.5,275C 341.514,275.499 337.514,275.666 333.5,275.5C 331.645,284.562 328.312,293.062 323.5,301C 326,303.5 328.5,306 331,308.5C 331.706,310.971 331.373,313.305 330,315.5C 323.833,321.667 317.667,327.833 311.5,334C 308.697,334.755 306.03,334.422 303.5,333C 302.042,330.54 300.209,328.373 298,326.5C 289.524,330.99 280.691,334.49 271.5,337C 277.842,348.572 276.175,358.906 266.5,368C 263.382,369.893 260.049,371.226 256.5,372C 237.167,372.333 217.833,372.667 198.5,373C 190.602,375.29 187.769,380.457 190,388.5C 190.833,392 193,394.167 196.5,395C 216.833,395.667 237.167,395.667 257.5,395C 264.811,393.345 271.478,390.345 277.5,386C 302.59,359.908 328.59,334.908 355.5,311C 365.716,304.616 375.55,305.116 385,312.5C 390.028,323.455 389.361,334.121 383,344.5C 355.205,376.63 327.038,408.464 298.5,440C 292.186,445.489 284.853,448.822 276.5,450C 233.5,450.333 190.5,450.667 147.5,451C 142.72,452.556 138.387,454.889 134.5,458C 128.909,465.428 122.243,471.594 114.5,476.5C 87.5434,451.377 61.3767,425.377 36,398.5C 35.3623,397.391 34.8623,396.225 34.5,395C 35.716,391.779 37.716,389.112 40.5,387C 66.1301,365.039 91.4634,342.705 116.5,320C 129.98,310.215 144.98,306.882 161.5,310C 166.021,310.729 170.354,312.063 174.5,314C 178.027,316.591 181.694,318.591 185.5,320C 181.073,317.315 179.24,313.482 180,308.5C 182.683,305.984 185.183,303.317 187.5,300.5C 182.597,292.791 179.264,284.458 177.5,275.5C 173.486,275.666 169.486,275.499 165.5,275C 165,274.5 164.5,274 164,273.5C 162.88,268.107 162.38,262.607 162.5,257C 162.38,251.393 162.88,245.893 164,240.5C 168.401,239.533 172.901,239.2 177.5,239.5C 179.015,230.301 182.348,221.801 187.5,214C 185.333,211.833 183.167,209.667 181,207.5C 179.627,205.305 179.294,202.971 180,200.5C 187.048,192.95 194.548,185.95 202.5,179.5C 206.705,181.364 210.372,184.03 213.5,187.5C 220.637,183.008 228.304,179.674 236.5,177.5C 237.327,173.541 237.827,169.541 238,165.5C 239.145,164.364 240.312,163.364 241.5,162.5 Z M 248.5,173.5 C 253.167,173.5 257.833,173.5 262.5,173.5C 262.334,177.514 262.501,181.514 263,185.5C 263.5,186 264,186.5 264.5,187C 275.85,189.003 286.183,193.336 295.5,200C 297.5,200.667 299.5,200.667 301.5,200C 303.977,198.357 306.31,196.524 308.5,194.5C 312.396,197.206 315.23,200.539 317,204.5C 313.831,206.827 311.664,209.827 310.5,213.5C 313.495,218.685 316.329,224.018 319,229.5C 321.277,235.332 322.944,241.332 324,247.5C 324.903,248.701 326.069,249.535 327.5,250C 330.817,250.498 334.15,250.665 337.5,250.5C 337.5,255.167 337.5,259.833 337.5,264.5C 333.818,264.335 330.152,264.501 326.5,265C 325.692,265.308 325.025,265.808 324.5,266.5C 323.001,271.828 321.501,277.161 320,282.5C 316.815,288.87 313.649,295.203 310.5,301.5C 311.834,305.344 314.168,308.511 317.5,311C 314.977,315.205 311.644,318.205 307.5,320C 305.173,316.831 302.173,314.664 298.5,313.5C 278.289,325.868 256.623,329.368 233.5,324C 225.906,321.536 218.906,318.036 212.5,313.5C 208.639,315.02 205.305,317.353 202.5,320.5C 199.683,317.182 196.683,314.015 193.5,311C 197.059,308.455 199.392,305.121 200.5,301C 193.954,290.73 189.454,279.563 187,267.5C 186.5,266.333 185.667,265.5 184.5,265C 181.183,264.502 177.85,264.335 174.5,264.5C 174.5,259.833 174.5,255.167 174.5,250.5C 177.518,250.665 180.518,250.498 183.5,250C 184.931,249.535 186.097,248.701 187,247.5C 188.178,242.457 189.511,237.457 191,232.5C 194.198,225.982 197.365,219.482 200.5,213C 199.155,209.64 196.988,206.807 194,204.5C 193.333,203.833 193.333,203.167 194,202.5C 197,199.5 200,196.5 203,193.5C 204.913,197.585 208.08,199.918 212.5,200.5C 218.236,197.961 223.903,195.128 229.5,192C 235.053,189.927 240.72,188.26 246.5,187C 247,186.5 247.5,186 248,185.5C 248.499,181.514 248.666,177.514 248.5,173.5 Z M 249.5,225.5 C 267.396,224.02 279.229,231.687 285,248.5C 287.003,270.332 277.17,282.999 255.5,286.5C 233.83,282.999 223.997,270.332 226,248.5C 229.761,236.571 237.595,228.904 249.5,225.5 Z M 367.5,317.5 C 376.192,317.701 379.359,322.035 377,330.5C 375.254,334.327 373.254,337.993 371,341.5C 343.537,372.632 315.703,403.465 287.5,434C 284.618,435.608 281.618,436.941 278.5,438C 233.808,438.042 189.141,438.709 144.5,440C 132.104,444.053 122.271,451.553 115,462.5C 93.3479,440.014 71.5146,417.681 49.5,395.5C 74.6949,372.139 100.362,349.305 126.5,327C 139.185,319.943 152.518,318.61 166.5,323C 171.833,326.333 177.167,329.667 182.5,333C 186.068,334.618 189.735,335.951 193.5,337C 214.13,338.262 234.796,338.928 255.5,339C 260.954,340.121 263.954,343.454 264.5,349C 263.762,355.132 260.429,359.132 254.5,361C 233.449,361.046 212.449,361.712 191.5,363C 179.829,368.962 175.662,378.462 179,391.5C 181.167,399 186,403.833 193.5,406C 217.209,406.949 240.875,406.616 264.5,405C 271.724,402.721 278.391,399.388 284.5,395C 308.558,370.274 333.225,346.274 358.5,323C 361.263,320.626 364.263,318.792 367.5,317.5 Z"/></g>
<g><path style="opacity:0.903" fill="#000000" d="M 67.5,178.5 C 84.5013,176.25 97.0013,182.583 105,197.5C 122.15,194.765 132.15,202.098 135,219.5C 145.735,230.887 146.235,242.72 136.5,255C 132.817,258.34 128.484,260.34 123.5,261C 97.1667,261.667 70.8333,261.667 44.5,261C 28.2092,256.599 22.0425,246.099 26,229.5C 29.0895,222.076 34.4229,217.076 42,214.5C 42.2499,196.449 50.7499,184.449 67.5,178.5 Z M 70.5,189.5 C 77.5808,188.805 83.9141,190.639 89.5,195C 93.0341,199.744 96.0341,204.744 98.5,210C 100.5,210.667 102.5,210.667 104.5,210C 111.755,205.795 117.589,207.295 122,214.5C 122.852,218.191 123.518,221.858 124,225.5C 134.019,232.054 134.853,239.554 126.5,248C 124.608,248.973 122.608,249.64 120.5,250C 96.1667,250.667 71.8333,250.667 47.5,250C 37.9464,247.719 34.4464,241.885 37,232.5C 40.3299,227.251 45.1632,224.751 51.5,225C 52.9308,224.535 54.0975,223.701 55,222.5C 50.6906,206.888 55.8573,195.888 70.5,189.5 Z"/></g>
<g><path style="opacity:0.92" fill="#000000" d="M 411.5,183.5 C 435.502,183.333 459.502,183.5 483.5,184C 484.333,184.833 485.167,185.667 486,186.5C 486.667,217.167 486.667,247.833 486,278.5C 485.167,279.333 484.333,280.167 483.5,281C 479.514,281.499 475.514,281.666 471.5,281.5C 471.665,285.182 471.499,288.848 471,292.5C 470.535,293.931 469.701,295.097 468.5,296C 442.5,296.667 416.5,296.667 390.5,296C 390,295.5 389.5,295 389,294.5C 388.333,263.5 388.333,232.5 389,201.5C 389.5,200.333 390.333,199.5 391.5,199C 397.157,198.501 402.824,198.334 408.5,198.5C 408.334,194.486 408.501,190.486 409,186.5C 410.045,185.627 410.878,184.627 411.5,183.5 Z M 419.5,194.5 C 438.167,194.5 456.833,194.5 475.5,194.5C 475.5,219.833 475.5,245.167 475.5,270.5C 474.167,270.5 472.833,270.5 471.5,270.5C 471.958,253.097 471.458,235.764 470,218.5C 463.469,211.635 456.636,205.135 449.5,199C 439.506,198.5 429.506,198.334 419.5,198.5C 419.5,197.167 419.5,195.833 419.5,194.5 Z M 399.5,209.5 C 414.837,209.333 430.17,209.5 445.5,210C 450,214.5 454.5,219 459,223.5C 459.5,244.164 459.667,264.831 459.5,285.5C 439.5,285.5 419.5,285.5 399.5,285.5C 399.5,260.167 399.5,234.833 399.5,209.5 Z"/></g>
<g><path style="opacity:0.893" fill="#000000" d="M 246.5,214.5 C 271.42,211.615 287.92,221.949 296,245.5C 299.976,270.501 290.143,287.334 266.5,296C 244.092,300.378 227.592,292.544 217,272.5C 209.103,243.959 218.936,224.625 246.5,214.5 Z M 249.5,225.5 C 237.595,228.904 229.761,236.571 226,248.5C 223.997,270.332 233.83,282.999 255.5,286.5C 277.17,282.999 287.003,270.332 285,248.5C 279.229,231.687 267.396,224.02 249.5,225.5 Z"/></g>
<g><path style="opacity:0.903" fill="#000000" d="M 406.5,234.5 C 421.837,234.333 437.17,234.5 452.5,235C 456,238.004 456.333,241.337 453.5,245C 437.833,245.667 422.167,245.667 406.5,245C 402.55,241.551 402.55,238.051 406.5,234.5 Z"/></g>
<g><path style="opacity:0.843" fill="#000000" d="M 407.5,249.5 C 422.17,249.333 436.837,249.5 451.5,250C 455.213,251.691 456.379,254.525 455,258.5C 454.097,259.701 452.931,260.535 451.5,261C 436.833,261.667 422.167,261.667 407.5,261C 403.787,259.309 402.621,256.475 404,252.5C 405.145,251.364 406.312,250.364 407.5,249.5 Z"/></g>
</svg>
